<svg width="20" height="20" viewBox="0 0 20 20" fill="none" xmlns="http://www.w3.org/2000/svg">
<path fill-rule="evenodd" clip-rule="evenodd" d="M15.8334 1.66666C16.1023 2.91923 17.0808 3.89768 18.3334 4.16666C17.0808 4.43563 16.1023 5.41408 15.8334 6.66666C15.5644 5.41408 14.5859 4.43563 13.3334 4.16666C14.5859 3.89768 15.5644 2.91923 15.8334 1.66666ZM7.56006 1.83333C8.31964 5.37059 11.0828 8.13374 14.6201 8.89333C11.0828 9.65291 8.31964 12.4161 7.56006 15.9533C6.80048 12.4161 4.03733 9.65291 0.500061 8.89333C4.03733 8.13374 6.80048 5.37059 7.56006 1.83333ZM18.3334 15C16.6633 14.6414 15.3587 13.3368 15 11.6667C14.6414 13.3368 13.3368 14.6414 11.6667 15C13.3368 15.3586 14.6414 16.6632 15 18.3333C15.3587 16.6632 16.6633 15.3586 18.3334 15Z" fill="#009F95"/>
</svg>
