<svg width="1630" height="505" viewBox="0 0 1630 505" fill="none" xmlns="http://www.w3.org/2000/svg">
<rect y="0.410156" width="1630" height="503.975" rx="16.6146" fill="white"/>
<rect x="272.16" y="451.08" width="13.8455" height="13.8455" rx="5.53819" fill="#3B8F85"/>
<path d="M298.245 464.503V452.54H303.079C303.196 452.54 303.34 452.546 303.511 452.557C303.683 452.563 303.846 452.579 304.002 452.607C304.666 452.712 305.22 452.939 305.663 453.288C306.112 453.637 306.447 454.077 306.668 454.609C306.89 455.141 307 455.728 307 456.37C307 457.323 306.757 458.145 306.269 458.837C305.782 459.524 305.051 459.953 304.076 460.125L303.37 460.208H299.981V464.503H298.245ZM305.239 464.503L302.88 459.635L304.633 459.186L307.225 464.503H305.239ZM299.981 458.563H303.013C303.124 458.563 303.246 458.558 303.378 458.547C303.517 458.536 303.647 458.516 303.769 458.488C304.123 458.405 304.409 458.253 304.625 458.032C304.841 457.804 304.996 457.544 305.09 457.251C305.184 456.957 305.231 456.664 305.231 456.37C305.231 456.077 305.184 455.786 305.09 455.498C304.996 455.204 304.841 454.947 304.625 454.725C304.409 454.498 304.123 454.343 303.769 454.26C303.647 454.227 303.517 454.205 303.378 454.194C303.246 454.183 303.124 454.177 303.013 454.177H299.981V458.563ZM311.584 464.752C310.92 464.752 310.363 464.63 309.915 464.387C309.466 464.137 309.125 463.811 308.893 463.406C308.666 462.997 308.552 462.548 308.552 462.061C308.552 461.606 308.632 461.208 308.793 460.864C308.954 460.521 309.192 460.23 309.507 459.992C309.823 459.748 310.211 459.552 310.67 459.402C311.069 459.286 311.521 459.183 312.025 459.095C312.529 459.006 313.057 458.923 313.611 458.846C314.171 458.768 314.724 458.691 315.273 458.613L314.641 458.962C314.652 458.259 314.503 457.738 314.193 457.4C313.888 457.057 313.362 456.885 312.614 456.885C312.144 456.885 311.712 456.996 311.318 457.217C310.925 457.433 310.651 457.793 310.496 458.297L308.876 457.799C309.098 457.029 309.519 456.417 310.139 455.963C310.765 455.509 311.595 455.282 312.631 455.282C313.434 455.282 314.132 455.42 314.724 455.697C315.323 455.969 315.76 456.401 316.037 456.993C316.181 457.287 316.27 457.597 316.303 457.924C316.336 458.25 316.353 458.602 316.353 458.979V464.503H314.816V462.451L315.115 462.717C314.744 463.404 314.27 463.916 313.694 464.254C313.124 464.586 312.421 464.752 311.584 464.752ZM311.892 463.332C312.385 463.332 312.808 463.246 313.163 463.074C313.517 462.897 313.802 462.673 314.018 462.401C314.234 462.13 314.376 461.847 314.442 461.554C314.536 461.288 314.589 460.989 314.6 460.657C314.616 460.324 314.625 460.059 314.625 459.859L315.19 460.067C314.641 460.15 314.143 460.225 313.694 460.291C313.246 460.358 312.839 460.424 312.473 460.491C312.113 460.551 311.792 460.626 311.51 460.715C311.271 460.798 311.058 460.898 310.87 461.014C310.687 461.13 310.54 461.271 310.43 461.438C310.324 461.604 310.272 461.806 310.272 462.044C310.272 462.277 310.33 462.493 310.446 462.692C310.562 462.886 310.74 463.041 310.978 463.157C311.216 463.273 311.521 463.332 311.892 463.332ZM318.676 454.061V452.374H320.412V454.061H318.676ZM318.676 464.503V455.531H320.412V464.503H318.676ZM329.204 464.503V460.092C329.204 459.743 329.173 459.386 329.112 459.02C329.057 458.649 328.946 458.306 328.78 457.99C328.619 457.674 328.39 457.42 328.091 457.226C327.797 457.032 327.412 456.935 326.936 456.935C326.626 456.935 326.332 456.988 326.055 457.093C325.778 457.193 325.535 457.356 325.324 457.583C325.119 457.81 324.956 458.109 324.834 458.48C324.718 458.851 324.66 459.303 324.66 459.834L323.58 459.427C323.58 458.613 323.732 457.896 324.037 457.276C324.341 456.65 324.779 456.162 325.349 455.814C325.92 455.465 326.609 455.29 327.418 455.29C328.038 455.29 328.559 455.39 328.979 455.589C329.4 455.789 329.741 456.052 330.001 456.378C330.267 456.7 330.469 457.051 330.608 457.433C330.746 457.816 330.84 458.189 330.89 458.555C330.94 458.92 330.965 459.242 330.965 459.519V464.503H329.204ZM322.899 464.503V455.531H324.452V458.123H324.66V464.503H322.899ZM333.951 464.503V455.215C333.951 454.988 333.959 454.747 333.976 454.493C333.993 454.232 334.04 453.978 334.117 453.728C334.2 453.474 334.336 453.241 334.524 453.031C334.751 452.781 335.001 452.604 335.272 452.499C335.543 452.394 335.812 452.333 336.078 452.316C336.349 452.3 336.598 452.291 336.825 452.291H337.955V453.72H336.909C336.499 453.72 336.191 453.823 335.986 454.027C335.787 454.227 335.687 454.512 335.687 454.883V464.503H333.951ZM332.464 456.927V455.531H337.955V456.927H332.464ZM341.568 464.752C340.904 464.752 340.347 464.63 339.899 464.387C339.45 464.137 339.109 463.811 338.877 463.406C338.65 462.997 338.536 462.548 338.536 462.061C338.536 461.606 338.617 461.208 338.777 460.864C338.938 460.521 339.176 460.23 339.492 459.992C339.807 459.748 340.195 459.552 340.655 459.402C341.053 459.286 341.505 459.183 342.009 459.095C342.513 459.006 343.042 458.923 343.595 458.846C344.155 458.768 344.709 458.691 345.257 458.613L344.625 458.962C344.637 458.259 344.487 457.738 344.177 457.4C343.872 457.057 343.346 456.885 342.598 456.885C342.128 456.885 341.696 456.996 341.303 457.217C340.909 457.433 340.635 457.793 340.48 458.297L338.86 457.799C339.082 457.029 339.503 456.417 340.123 455.963C340.749 455.509 341.579 455.282 342.615 455.282C343.418 455.282 344.116 455.42 344.709 455.697C345.307 455.969 345.744 456.401 346.021 456.993C346.165 457.287 346.254 457.597 346.287 457.924C346.32 458.25 346.337 458.602 346.337 458.979V464.503H344.8V462.451L345.099 462.717C344.728 463.404 344.254 463.916 343.678 464.254C343.108 464.586 342.405 464.752 341.568 464.752ZM341.876 463.332C342.369 463.332 342.792 463.246 343.147 463.074C343.501 462.897 343.786 462.673 344.002 462.401C344.218 462.13 344.36 461.847 344.426 461.554C344.52 461.288 344.573 460.989 344.584 460.657C344.601 460.324 344.609 460.059 344.609 459.859L345.174 460.067C344.625 460.15 344.127 460.225 343.678 460.291C343.23 460.358 342.823 460.424 342.457 460.491C342.097 460.551 341.776 460.626 341.494 460.715C341.255 460.798 341.042 460.898 340.854 461.014C340.671 461.13 340.524 461.271 340.414 461.438C340.308 461.604 340.256 461.806 340.256 462.044C340.256 462.277 340.314 462.493 340.43 462.692C340.547 462.886 340.724 463.041 340.962 463.157C341.2 463.273 341.505 463.332 341.876 463.332ZM348.66 464.503V452.291H350.396V464.503H348.66ZM353.057 464.503V452.291H354.793V464.503H353.057Z" fill="#1A1A1A"/>
<rect x="749.518" y="451.08" width="13.8455" height="13.8455" rx="5.53819" fill="#FFA500"/>
<path d="M778.585 464.503V454.177H774.606V452.54H784.301V454.177H780.322V464.503H778.585ZM788.279 464.752C787.387 464.752 786.604 464.558 785.928 464.171C785.258 463.777 784.735 463.232 784.358 462.534C783.987 461.831 783.801 461.017 783.801 460.092C783.801 459.112 783.984 458.261 784.35 457.541C784.721 456.821 785.236 456.265 785.895 455.872C786.554 455.478 787.321 455.282 788.196 455.282C789.11 455.282 789.888 455.495 790.53 455.922C791.173 456.342 791.652 456.943 791.967 457.724C792.289 458.505 792.416 459.433 792.35 460.507H790.613V459.876C790.602 458.835 790.403 458.065 790.015 457.566C789.633 457.068 789.049 456.819 788.262 456.819C787.393 456.819 786.739 457.093 786.302 457.641C785.864 458.189 785.646 458.981 785.646 460.017C785.646 461.003 785.864 461.767 786.302 462.31C786.739 462.847 787.371 463.116 788.196 463.116C788.739 463.116 789.207 462.994 789.6 462.75C789.999 462.501 790.309 462.146 790.53 461.687L792.233 462.227C791.884 463.03 791.355 463.653 790.647 464.096C789.938 464.533 789.148 464.752 788.279 464.752ZM785.081 460.507V459.153H791.486V460.507H785.081ZM804.72 464.503L804.728 458.912C804.728 458.264 804.562 457.76 804.23 457.4C803.897 457.035 803.46 456.852 802.917 456.852C802.585 456.852 802.28 456.929 802.003 457.085C801.732 457.234 801.51 457.461 801.339 457.766C801.172 458.065 801.089 458.441 801.089 458.896L800.25 458.472C800.239 457.84 800.372 457.287 800.649 456.81C800.932 456.334 801.314 455.966 801.795 455.706C802.277 455.44 802.817 455.307 803.415 455.307C804.385 455.307 805.135 455.598 805.667 456.179C806.198 456.761 806.464 457.533 806.464 458.497L806.456 464.503H804.72ZM793.962 464.503V455.531H795.507V458.123H795.706V464.503H793.962ZM799.345 464.503L799.353 458.945C799.353 458.292 799.187 457.78 798.855 457.409C798.528 457.037 798.088 456.852 797.534 456.852C796.986 456.852 796.542 457.04 796.205 457.417C795.872 457.793 795.706 458.286 795.706 458.896L794.876 458.364C794.876 457.777 795.017 457.253 795.299 456.794C795.582 456.334 795.964 455.971 796.446 455.706C796.927 455.44 797.473 455.307 798.082 455.307C798.719 455.307 799.262 455.442 799.71 455.714C800.159 455.98 800.5 456.353 800.732 456.835C800.97 457.317 801.089 457.876 801.089 458.513L801.081 464.503H799.345ZM812.833 464.752C811.975 464.752 811.255 464.544 810.673 464.129C810.092 463.708 809.651 463.141 809.352 462.426C809.053 461.712 808.904 460.906 808.904 460.009C808.904 459.112 809.051 458.306 809.344 457.591C809.643 456.877 810.081 456.315 810.657 455.905C811.238 455.49 811.953 455.282 812.8 455.282C813.642 455.282 814.367 455.49 814.976 455.905C815.591 456.315 816.065 456.877 816.397 457.591C816.729 458.3 816.895 459.106 816.895 460.009C816.895 460.906 816.729 461.714 816.397 462.434C816.07 463.149 815.602 463.714 814.993 464.129C814.389 464.544 813.669 464.752 812.833 464.752ZM808.613 468.49V455.531H810.158V461.986H810.358V468.49H808.613ZM812.592 463.182C813.146 463.182 813.603 463.041 813.963 462.758C814.328 462.476 814.6 462.097 814.777 461.62C814.96 461.138 815.051 460.601 815.051 460.009C815.051 459.422 814.96 458.89 814.777 458.414C814.6 457.937 814.326 457.558 813.955 457.276C813.584 456.993 813.11 456.852 812.534 456.852C811.991 456.852 811.543 456.985 811.188 457.251C810.839 457.517 810.579 457.888 810.407 458.364C810.241 458.84 810.158 459.388 810.158 460.009C810.158 460.629 810.241 461.177 810.407 461.654C810.574 462.13 810.837 462.504 811.197 462.775C811.557 463.046 812.022 463.182 812.592 463.182ZM822.709 464.752C821.817 464.752 821.033 464.558 820.358 464.171C819.688 463.777 819.164 463.232 818.788 462.534C818.417 461.831 818.231 461.017 818.231 460.092C818.231 459.112 818.414 458.261 818.779 457.541C819.151 456.821 819.666 456.265 820.325 455.872C820.984 455.478 821.751 455.282 822.626 455.282C823.54 455.282 824.318 455.495 824.96 455.922C825.603 456.342 826.082 456.943 826.397 457.724C826.718 458.505 826.846 459.433 826.779 460.507H825.043V459.876C825.032 458.835 824.833 458.065 824.445 457.566C824.063 457.068 823.479 456.819 822.692 456.819C821.823 456.819 821.169 457.093 820.732 457.641C820.294 458.189 820.075 458.981 820.075 460.017C820.075 461.003 820.294 461.767 820.732 462.31C821.169 462.847 821.801 463.116 822.626 463.116C823.168 463.116 823.636 462.994 824.03 462.75C824.428 462.501 824.739 462.146 824.96 461.687L826.663 462.227C826.314 463.03 825.785 463.653 825.076 464.096C824.367 464.533 823.578 464.752 822.709 464.752ZM819.51 460.507V459.153H825.915V460.507H819.51ZM828.643 464.503V455.531H830.188V457.708L829.972 457.425C830.083 457.137 830.227 456.874 830.404 456.636C830.582 456.392 830.786 456.193 831.019 456.038C831.246 455.872 831.498 455.744 831.775 455.656C832.057 455.562 832.345 455.506 832.639 455.49C832.933 455.467 833.215 455.481 833.486 455.531V457.159C833.193 457.082 832.866 457.06 832.506 457.093C832.152 457.126 831.825 457.24 831.526 457.433C831.243 457.616 831.019 457.838 830.853 458.098C830.692 458.358 830.576 458.649 830.504 458.97C830.432 459.286 830.396 459.621 830.396 459.975V464.503H828.643ZM837.342 464.752C836.678 464.752 836.121 464.63 835.673 464.387C835.224 464.137 834.884 463.811 834.651 463.406C834.424 462.997 834.31 462.548 834.31 462.061C834.31 461.606 834.391 461.208 834.551 460.864C834.712 460.521 834.95 460.23 835.266 459.992C835.581 459.748 835.969 459.552 836.429 459.402C836.827 459.286 837.279 459.183 837.783 459.095C838.287 459.006 838.816 458.923 839.369 458.846C839.929 458.768 840.483 458.691 841.031 458.613L840.4 458.962C840.411 458.259 840.261 457.738 839.951 457.4C839.646 457.057 839.12 456.885 838.373 456.885C837.902 456.885 837.47 456.996 837.077 457.217C836.683 457.433 836.409 457.793 836.254 458.297L834.634 457.799C834.856 457.029 835.277 456.417 835.897 455.963C836.523 455.509 837.354 455.282 838.389 455.282C839.192 455.282 839.89 455.42 840.483 455.697C841.081 455.969 841.518 456.401 841.795 456.993C841.939 457.287 842.028 457.597 842.061 457.924C842.094 458.25 842.111 458.602 842.111 458.979V464.503H840.574V462.451L840.873 462.717C840.502 463.404 840.028 463.916 839.453 464.254C838.882 464.586 838.179 464.752 837.342 464.752ZM837.65 463.332C838.143 463.332 838.566 463.246 838.921 463.074C839.275 462.897 839.561 462.673 839.776 462.401C839.992 462.13 840.134 461.847 840.2 461.554C840.294 461.288 840.347 460.989 840.358 460.657C840.375 460.324 840.383 460.059 840.383 459.859L840.948 460.067C840.4 460.15 839.901 460.225 839.453 460.291C839.004 460.358 838.597 460.424 838.231 460.491C837.871 460.551 837.55 460.626 837.268 460.715C837.03 460.798 836.816 460.898 836.628 461.014C836.445 461.13 836.299 461.271 836.188 461.438C836.083 461.604 836.03 461.806 836.03 462.044C836.03 462.277 836.088 462.493 836.204 462.692C836.321 462.886 836.498 463.041 836.736 463.157C836.974 463.273 837.279 463.332 837.65 463.332ZM849.402 464.503C848.837 464.614 848.283 464.661 847.74 464.644C847.198 464.628 846.713 464.522 846.287 464.328C845.86 464.135 845.539 463.83 845.323 463.415C845.129 463.044 845.024 462.667 845.007 462.285C844.996 461.897 844.991 461.46 844.991 460.972V453.039H846.735V460.889C846.735 461.249 846.738 461.562 846.744 461.828C846.755 462.094 846.813 462.318 846.918 462.501C847.117 462.844 847.433 463.041 847.865 463.091C848.303 463.135 848.815 463.116 849.402 463.033V464.503ZM843.271 456.927V455.531H849.402V456.927H843.271ZM854.675 464.744C854.054 464.744 853.534 464.644 853.113 464.445C852.692 464.245 852.349 463.985 852.083 463.664C851.822 463.337 851.623 462.983 851.485 462.601C851.346 462.218 851.252 461.845 851.202 461.479C851.152 461.114 851.127 460.792 851.127 460.515V455.531H852.889V459.942C852.889 460.291 852.916 460.651 852.972 461.022C853.032 461.388 853.143 461.728 853.304 462.044C853.47 462.36 853.7 462.614 853.993 462.808C854.292 463.002 854.68 463.099 855.156 463.099C855.467 463.099 855.76 463.049 856.037 462.949C856.314 462.844 856.555 462.678 856.76 462.451C856.97 462.224 857.134 461.925 857.25 461.554C857.372 461.183 857.433 460.731 857.433 460.2L858.513 460.607C858.513 461.421 858.36 462.141 858.056 462.767C857.751 463.387 857.314 463.872 856.743 464.22C856.173 464.569 855.483 464.744 854.675 464.744ZM857.64 464.503V461.911H857.433V455.531H859.185V464.503H857.64ZM861.515 464.503V455.531H863.061V457.708L862.845 457.425C862.955 457.137 863.099 456.874 863.276 456.636C863.454 456.392 863.659 456.193 863.891 456.038C864.118 455.872 864.37 455.744 864.647 455.656C864.93 455.562 865.218 455.506 865.511 455.49C865.805 455.467 866.087 455.481 866.358 455.531V457.159C866.065 457.082 865.738 457.06 865.378 457.093C865.024 457.126 864.697 457.24 864.398 457.433C864.116 457.616 863.891 457.838 863.725 458.098C863.564 458.358 863.448 458.649 863.376 458.97C863.304 459.286 863.268 459.621 863.268 459.975V464.503H861.515ZM871.757 464.752C870.866 464.752 870.082 464.558 869.406 464.171C868.736 463.777 868.213 463.232 867.836 462.534C867.465 461.831 867.28 461.017 867.28 460.092C867.28 459.112 867.463 458.261 867.828 457.541C868.199 456.821 868.714 456.265 869.373 455.872C870.032 455.478 870.799 455.282 871.674 455.282C872.588 455.282 873.366 455.495 874.009 455.922C874.651 456.342 875.13 456.943 875.446 457.724C875.767 458.505 875.894 459.433 875.828 460.507H874.092V459.876C874.081 458.835 873.881 458.065 873.494 457.566C873.112 457.068 872.527 456.819 871.741 456.819C870.871 456.819 870.218 457.093 869.78 457.641C869.343 458.189 869.124 458.981 869.124 460.017C869.124 461.003 869.343 461.767 869.78 462.31C870.218 462.847 870.849 463.116 871.674 463.116C872.217 463.116 872.685 462.994 873.078 462.75C873.477 462.501 873.787 462.146 874.009 461.687L875.712 462.227C875.363 463.03 874.834 463.653 874.125 464.096C873.416 464.533 872.627 464.752 871.757 464.752ZM868.559 460.507V459.153H874.964V460.507H868.559Z" fill="#1A1A1A"/>
<rect x="1269.88" y="451.08" width="13.8455" height="13.8455" rx="5.53819" fill="#DBEAFE"/>
<path d="M1295.96 464.503V452.54H1299.71C1299.82 452.54 1300.02 452.543 1300.32 452.549C1300.63 452.554 1300.92 452.576 1301.2 452.615C1302.13 452.732 1302.92 453.067 1303.55 453.62C1304.2 454.174 1304.68 454.878 1305.01 455.73C1305.34 456.578 1305.5 457.508 1305.5 458.522C1305.5 459.541 1305.34 460.477 1305.01 461.33C1304.68 462.177 1304.2 462.877 1303.55 463.431C1302.92 463.98 1302.13 464.312 1301.2 464.428C1300.92 464.467 1300.63 464.489 1300.32 464.495C1300.02 464.5 1299.82 464.503 1299.71 464.503H1295.96ZM1297.74 462.85H1299.71C1299.9 462.85 1300.12 462.844 1300.38 462.833C1300.64 462.822 1300.87 462.8 1301.07 462.767C1301.68 462.65 1302.17 462.387 1302.55 461.978C1302.93 461.562 1303.21 461.053 1303.39 460.449C1303.57 459.845 1303.65 459.203 1303.65 458.522C1303.65 457.818 1303.56 457.168 1303.38 456.569C1303.2 455.966 1302.91 455.462 1302.53 455.058C1302.16 454.648 1301.67 454.387 1301.07 454.277C1300.87 454.238 1300.64 454.216 1300.37 454.21C1300.11 454.199 1299.89 454.194 1299.71 454.194H1297.74V462.85ZM1307.43 464.503V455.531H1308.98V457.708L1308.76 457.425C1308.87 457.137 1309.02 456.874 1309.19 456.636C1309.37 456.392 1309.58 456.193 1309.81 456.038C1310.04 455.872 1310.29 455.744 1310.56 455.656C1310.85 455.562 1311.14 455.506 1311.43 455.49C1311.72 455.467 1312 455.481 1312.28 455.531V457.159C1311.98 457.082 1311.66 457.06 1311.3 457.093C1310.94 457.126 1310.61 457.24 1310.32 457.433C1310.03 457.616 1309.81 457.838 1309.64 458.098C1309.48 458.358 1309.37 458.649 1309.29 458.97C1309.22 459.286 1309.19 459.621 1309.19 459.975V464.503H1307.43ZM1317.59 464.752C1316.69 464.752 1315.92 464.55 1315.26 464.146C1314.6 463.741 1314.09 463.185 1313.73 462.476C1313.37 461.762 1313.2 460.939 1313.2 460.009C1313.2 459.073 1313.38 458.25 1313.75 457.541C1314.11 456.827 1314.62 456.273 1315.28 455.88C1315.94 455.481 1316.71 455.282 1317.59 455.282C1318.49 455.282 1319.27 455.484 1319.93 455.888C1320.59 456.293 1321.09 456.849 1321.45 457.558C1321.81 458.267 1321.99 459.084 1321.99 460.009C1321.99 460.945 1321.81 461.77 1321.45 462.484C1321.09 463.193 1320.58 463.75 1319.92 464.154C1319.26 464.553 1318.48 464.752 1317.59 464.752ZM1317.59 463.116C1318.45 463.116 1319.09 462.828 1319.51 462.252C1319.94 461.67 1320.15 460.922 1320.15 460.009C1320.15 459.073 1319.93 458.325 1319.5 457.766C1319.08 457.201 1318.44 456.918 1317.59 456.918C1317.01 456.918 1316.53 457.051 1316.15 457.317C1315.78 457.577 1315.5 457.94 1315.32 458.405C1315.13 458.865 1315.04 459.399 1315.04 460.009C1315.04 460.95 1315.26 461.703 1315.69 462.268C1316.12 462.833 1316.76 463.116 1317.59 463.116ZM1327.2 464.744C1326.58 464.744 1326.06 464.644 1325.64 464.445C1325.22 464.245 1324.88 463.985 1324.61 463.664C1324.35 463.337 1324.15 462.983 1324.01 462.601C1323.87 462.218 1323.78 461.845 1323.73 461.479C1323.68 461.114 1323.65 460.792 1323.65 460.515V455.531H1325.42V459.942C1325.42 460.291 1325.44 460.651 1325.5 461.022C1325.56 461.388 1325.67 461.728 1325.83 462.044C1326 462.36 1326.23 462.614 1326.52 462.808C1326.82 463.002 1327.21 463.099 1327.68 463.099C1327.99 463.099 1328.29 463.049 1328.56 462.949C1328.84 462.844 1329.08 462.678 1329.29 462.451C1329.5 462.224 1329.66 461.925 1329.78 461.554C1329.9 461.183 1329.96 460.731 1329.96 460.2L1331.04 460.607C1331.04 461.421 1330.89 462.141 1330.58 462.767C1330.28 463.387 1329.84 463.872 1329.27 464.22C1328.7 464.569 1328.01 464.744 1327.2 464.744ZM1330.17 464.503V461.911H1329.96V455.531H1331.71V464.503H1330.17ZM1337.74 468.74C1337.26 468.74 1336.79 468.665 1336.33 468.515C1335.89 468.366 1335.48 468.144 1335.11 467.851C1334.73 467.563 1334.43 467.206 1334.18 466.779L1335.79 465.965C1335.98 466.347 1336.26 466.627 1336.62 466.804C1336.98 466.981 1337.36 467.07 1337.76 467.07C1338.25 467.07 1338.67 466.981 1339.02 466.804C1339.37 466.632 1339.63 466.372 1339.81 466.023C1339.99 465.674 1340.08 465.242 1340.07 464.727V462.218H1340.28V455.531H1341.82V464.744C1341.82 464.982 1341.81 465.209 1341.79 465.425C1341.78 465.641 1341.75 465.857 1341.7 466.073C1341.57 466.677 1341.33 467.175 1340.97 467.568C1340.62 467.962 1340.16 468.255 1339.61 468.449C1339.06 468.643 1338.44 468.74 1337.74 468.74ZM1337.61 464.752C1336.77 464.752 1336.05 464.544 1335.44 464.129C1334.83 463.714 1334.37 463.149 1334.03 462.434C1333.71 461.714 1333.54 460.906 1333.54 460.009C1333.54 459.106 1333.71 458.3 1334.04 457.591C1334.37 456.877 1334.85 456.315 1335.45 455.905C1336.07 455.49 1336.8 455.282 1337.64 455.282C1338.49 455.282 1339.2 455.49 1339.77 455.905C1340.36 456.315 1340.79 456.877 1341.09 457.591C1341.39 458.306 1341.54 459.112 1341.54 460.009C1341.54 460.906 1341.39 461.712 1341.09 462.426C1340.79 463.141 1340.35 463.708 1339.77 464.129C1339.18 464.544 1338.46 464.752 1337.61 464.752ZM1337.85 463.182C1338.42 463.182 1338.88 463.046 1339.24 462.775C1339.6 462.504 1339.87 462.13 1340.03 461.654C1340.2 461.177 1340.28 460.629 1340.28 460.009C1340.28 459.388 1340.2 458.84 1340.02 458.364C1339.86 457.888 1339.6 457.517 1339.24 457.251C1338.89 456.985 1338.45 456.852 1337.91 456.852C1337.33 456.852 1336.86 456.993 1336.48 457.276C1336.11 457.558 1335.84 457.937 1335.65 458.414C1335.48 458.89 1335.39 459.422 1335.39 460.009C1335.39 460.601 1335.48 461.138 1335.65 461.62C1335.84 462.097 1336.11 462.476 1336.47 462.758C1336.83 463.041 1337.29 463.182 1337.85 463.182ZM1350.45 464.503V460.092C1350.45 459.743 1350.42 459.386 1350.36 459.02C1350.3 458.649 1350.19 458.306 1350.02 457.99C1349.86 457.674 1349.63 457.42 1349.33 457.226C1349.04 457.032 1348.66 456.935 1348.18 456.935C1347.87 456.935 1347.58 456.988 1347.3 457.093C1347.02 457.193 1346.78 457.356 1346.57 457.583C1346.36 457.81 1346.2 458.109 1346.08 458.48C1345.96 458.851 1345.9 459.303 1345.9 459.834L1344.82 459.427C1344.82 458.613 1344.98 457.896 1345.28 457.276C1345.58 456.65 1346.02 456.162 1346.59 455.814C1347.16 455.465 1347.85 455.29 1348.66 455.29C1349.28 455.29 1349.8 455.39 1350.22 455.589C1350.64 455.789 1350.98 456.052 1351.24 456.378C1351.51 456.7 1351.71 457.051 1351.85 457.433C1351.99 457.816 1352.08 458.189 1352.13 458.555C1352.18 458.92 1352.21 459.242 1352.21 459.519V464.503H1350.45ZM1344.14 464.503V452.54H1345.7V458.995H1345.9V464.503H1344.14ZM1359.51 464.503C1358.94 464.614 1358.39 464.661 1357.84 464.644C1357.3 464.628 1356.82 464.522 1356.39 464.328C1355.96 464.135 1355.64 463.83 1355.43 463.415C1355.23 463.044 1355.13 462.667 1355.11 462.285C1355.1 461.897 1355.09 461.46 1355.09 460.972V453.039H1356.84V460.889C1356.84 461.249 1356.84 461.562 1356.85 461.828C1356.86 462.094 1356.92 462.318 1357.02 462.501C1357.22 462.844 1357.54 463.041 1357.97 463.091C1358.41 463.135 1358.92 463.116 1359.51 463.033V464.503ZM1353.38 456.927V455.531H1359.51V456.927H1353.38Z" fill="#1A1A1A"/>
<line x1="1558.31" y1="363.854" x2="135.692" y2="363.854" stroke="#F1F5F9" stroke-width="1.38455" stroke-linecap="round"/>
<line x1="1558.31" y1="301.55" x2="135.692" y2="301.55" stroke="#F1F5F9" stroke-width="1.38455" stroke-linecap="round"/>
<line x1="1558.31" y1="239.245" x2="135.692" y2="239.245" stroke="#F1F5F9" stroke-width="1.38455" stroke-linecap="round"/>
<line x1="1558.31" y1="176.94" x2="135.692" y2="176.94" stroke="#F1F5F9" stroke-width="1.38455" stroke-linecap="round"/>
<line x1="1558.31" y1="114.636" x2="135.692" y2="114.636" stroke="#F1F5F9" stroke-width="1.38455" stroke-linecap="round"/>
<path d="M234.865 404.968V393.005H238.496C238.623 393.005 238.839 393.008 239.144 393.014C239.454 393.019 239.75 393.041 240.033 393.08C240.941 393.207 241.7 393.545 242.309 394.094C242.918 394.642 243.375 395.34 243.679 396.187C243.984 397.034 244.136 397.968 244.136 398.987C244.136 400.006 243.984 400.939 243.679 401.786C243.375 402.633 242.918 403.331 242.309 403.88C241.7 404.428 240.941 404.766 240.033 404.893C239.756 404.926 239.459 404.948 239.144 404.959C238.828 404.965 238.612 404.968 238.496 404.968H234.865ZM236.128 403.796H238.496C238.723 403.796 238.966 403.791 239.227 403.78C239.493 403.763 239.72 403.736 239.908 403.697C240.606 403.575 241.168 403.292 241.594 402.849C242.026 402.406 242.342 401.853 242.541 401.188C242.741 400.518 242.84 399.784 242.84 398.987C242.84 398.183 242.741 397.447 242.541 396.777C242.342 396.107 242.026 395.553 241.594 395.115C241.162 394.678 240.6 394.398 239.908 394.276C239.72 394.238 239.49 394.213 239.218 394.202C238.953 394.185 238.712 394.177 238.496 394.177H236.128V403.796ZM249.825 405.217C248.95 405.217 248.191 405.023 247.549 404.635C246.912 404.248 246.416 403.702 246.062 402.999C245.707 402.296 245.53 401.47 245.53 400.523C245.53 399.543 245.704 398.696 246.053 397.981C246.402 397.267 246.892 396.716 247.524 396.328C248.161 395.941 248.911 395.747 249.775 395.747C250.661 395.747 251.417 395.952 252.043 396.361C252.669 396.766 253.142 397.347 253.463 398.106C253.785 398.865 253.931 399.77 253.904 400.822H252.658V400.39C252.635 399.227 252.383 398.35 251.902 397.757C251.425 397.164 250.727 396.868 249.808 396.868C248.844 396.868 248.105 397.181 247.59 397.807C247.081 398.433 246.826 399.324 246.826 400.482C246.826 401.612 247.081 402.489 247.59 403.115C248.105 403.736 248.833 404.046 249.775 404.046C250.417 404.046 250.977 403.899 251.453 403.605C251.935 403.306 252.314 402.877 252.591 402.318L253.729 402.758C253.375 403.539 252.851 404.145 252.159 404.577C251.472 405.004 250.694 405.217 249.825 405.217ZM246.394 400.822V399.801H253.247V400.822H246.394ZM259.469 405.217C258.566 405.217 257.802 405.015 257.176 404.611C256.55 404.206 256.074 403.65 255.747 402.941C255.426 402.226 255.26 401.407 255.249 400.482C255.26 399.54 255.432 398.715 255.764 398.006C256.096 397.292 256.575 396.738 257.201 396.345C257.827 395.946 258.586 395.747 259.477 395.747C260.385 395.747 261.175 395.968 261.845 396.411C262.52 396.854 262.983 397.461 263.232 398.231L262.036 398.613C261.825 398.075 261.49 397.66 261.031 397.367C260.576 397.068 260.056 396.918 259.469 396.918C258.81 396.918 258.264 397.07 257.832 397.375C257.4 397.674 257.079 398.092 256.869 398.629C256.658 399.167 256.55 399.784 256.545 400.482C256.556 401.556 256.805 402.42 257.292 403.074C257.78 403.722 258.505 404.046 259.469 404.046C260.078 404.046 260.596 403.907 261.022 403.63C261.454 403.348 261.781 402.938 262.003 402.401L263.232 402.766C262.9 403.564 262.412 404.173 261.77 404.594C261.128 405.009 260.361 405.217 259.469 405.217ZM267.941 404.959L267.949 403.846L273.357 398.962C273.822 398.541 274.13 398.142 274.279 397.765C274.434 397.383 274.512 396.984 274.512 396.569C274.512 396.076 274.395 395.63 274.163 395.232C273.93 394.833 273.617 394.517 273.224 394.285C272.831 394.046 272.391 393.927 271.903 393.927C271.394 393.927 270.94 394.049 270.541 394.293C270.142 394.537 269.826 394.858 269.594 395.257C269.367 395.655 269.256 396.09 269.262 396.561H268.015C268.015 395.835 268.187 395.185 268.531 394.609C268.874 394.033 269.339 393.581 269.926 393.255C270.513 392.922 271.178 392.756 271.92 392.756C272.645 392.756 273.296 392.928 273.872 393.271C274.454 393.609 274.911 394.069 275.243 394.65C275.581 395.226 275.75 395.869 275.75 396.577C275.75 397.076 275.689 397.516 275.567 397.898C275.451 398.275 275.265 398.627 275.01 398.953C274.761 399.275 274.443 399.607 274.055 399.95L269.253 404.287L269.062 403.788H275.75V404.959H267.941ZM281.279 405.217C280.659 405.217 280.086 405.09 279.559 404.835C279.033 404.58 278.585 404.228 278.214 403.78C277.843 403.331 277.577 402.816 277.416 402.235L278.588 401.919C278.693 402.351 278.884 402.725 279.161 403.04C279.438 403.351 279.762 403.592 280.133 403.763C280.509 403.935 280.903 404.021 281.312 404.021C281.844 404.021 282.32 403.893 282.741 403.639C283.168 403.378 283.505 403.035 283.755 402.609C284.004 402.182 284.129 401.714 284.129 401.205C284.129 400.678 283.998 400.205 283.738 399.784C283.478 399.358 283.134 399.02 282.708 398.771C282.282 398.521 281.816 398.397 281.312 398.397C280.747 398.397 280.26 398.521 279.85 398.771C279.44 399.014 279.114 399.322 278.87 399.693L277.757 399.227L278.122 393.005H284.511V394.177H278.662L279.269 393.603L278.945 398.912L278.637 398.505C278.981 398.111 279.396 397.804 279.883 397.583C280.371 397.361 280.883 397.25 281.42 397.25C282.157 397.25 282.821 397.428 283.414 397.782C284.007 398.131 284.477 398.604 284.826 399.203C285.175 399.801 285.35 400.468 285.35 401.205C285.35 401.936 285.164 402.606 284.793 403.215C284.422 403.819 283.929 404.303 283.314 404.669C282.7 405.034 282.021 405.217 281.279 405.217Z" fill="#1A1A1A"/>
<path d="M447.249 404.968V393.005H450.879C451.006 393.005 451.222 393.008 451.527 393.014C451.837 393.019 452.133 393.041 452.416 393.08C453.324 393.207 454.083 393.545 454.692 394.094C455.301 394.642 455.758 395.34 456.063 396.187C456.367 397.034 456.52 397.968 456.52 398.987C456.52 400.006 456.367 400.939 456.063 401.786C455.758 402.633 455.301 403.331 454.692 403.88C454.083 404.428 453.324 404.766 452.416 404.893C452.139 404.926 451.843 404.948 451.527 404.959C451.211 404.965 450.995 404.968 450.879 404.968H447.249ZM448.511 403.796H450.879C451.106 403.796 451.35 403.791 451.61 403.78C451.876 403.763 452.103 403.736 452.291 403.697C452.989 403.575 453.551 403.292 453.978 402.849C454.41 402.406 454.725 401.853 454.925 401.188C455.124 400.518 455.224 399.784 455.224 398.987C455.224 398.183 455.124 397.447 454.925 396.777C454.725 396.107 454.41 395.553 453.978 395.115C453.546 394.678 452.983 394.398 452.291 394.276C452.103 394.238 451.873 394.213 451.602 394.202C451.336 394.185 451.095 394.177 450.879 394.177H448.511V403.796ZM462.208 405.217C461.333 405.217 460.574 405.023 459.932 404.635C459.295 404.248 458.799 403.702 458.445 402.999C458.09 402.296 457.913 401.47 457.913 400.523C457.913 399.543 458.088 398.696 458.436 397.981C458.785 397.267 459.276 396.716 459.907 396.328C460.544 395.941 461.294 395.747 462.158 395.747C463.044 395.747 463.8 395.952 464.426 396.361C465.052 396.766 465.525 397.347 465.847 398.106C466.168 398.865 466.315 399.77 466.287 400.822H465.041V400.39C465.019 399.227 464.767 398.35 464.285 397.757C463.809 397.164 463.111 396.868 462.191 396.868C461.228 396.868 460.488 397.181 459.973 397.807C459.464 398.433 459.209 399.324 459.209 400.482C459.209 401.612 459.464 402.489 459.973 403.115C460.488 403.736 461.217 404.046 462.158 404.046C462.801 404.046 463.36 403.899 463.836 403.605C464.318 403.306 464.697 402.877 464.974 402.318L466.112 402.758C465.758 403.539 465.235 404.145 464.542 404.577C463.856 405.004 463.077 405.217 462.208 405.217ZM458.777 400.822V399.801H465.631V400.822H458.777ZM471.852 405.217C470.949 405.217 470.185 405.015 469.559 404.611C468.933 404.206 468.457 403.65 468.13 402.941C467.809 402.226 467.643 401.407 467.632 400.482C467.643 399.54 467.815 398.715 468.147 398.006C468.479 397.292 468.958 396.738 469.584 396.345C470.21 395.946 470.969 395.747 471.86 395.747C472.769 395.747 473.558 395.968 474.228 396.411C474.904 396.854 475.366 397.461 475.615 398.231L474.419 398.613C474.209 398.075 473.874 397.66 473.414 397.367C472.96 397.068 472.439 396.918 471.852 396.918C471.193 396.918 470.648 397.07 470.216 397.375C469.784 397.674 469.462 398.092 469.252 398.629C469.041 399.167 468.933 399.784 468.928 400.482C468.939 401.556 469.188 402.42 469.676 403.074C470.163 403.722 470.888 404.046 471.852 404.046C472.461 404.046 472.979 403.907 473.406 403.63C473.838 403.348 474.164 402.938 474.386 402.401L475.615 402.766C475.283 403.564 474.796 404.173 474.153 404.594C473.511 405.009 472.744 405.217 471.852 405.217ZM480.324 404.959L480.332 403.846L485.74 398.962C486.206 398.541 486.513 398.142 486.662 397.765C486.817 397.383 486.895 396.984 486.895 396.569C486.895 396.076 486.779 395.63 486.546 395.232C486.314 394.833 486.001 394.517 485.607 394.285C485.214 394.046 484.774 393.927 484.287 393.927C483.777 393.927 483.323 394.049 482.924 394.293C482.525 394.537 482.21 394.858 481.977 395.257C481.75 395.655 481.639 396.09 481.645 396.561H480.399C480.399 395.835 480.57 395.185 480.914 394.609C481.257 394.033 481.722 393.581 482.309 393.255C482.896 392.922 483.561 392.756 484.303 392.756C485.029 392.756 485.679 392.928 486.255 393.271C486.837 393.609 487.294 394.069 487.626 394.65C487.964 395.226 488.133 395.869 488.133 396.577C488.133 397.076 488.072 397.516 487.95 397.898C487.834 398.275 487.648 398.627 487.393 398.953C487.144 399.275 486.826 399.607 486.438 399.95L481.637 404.287L481.445 403.788H488.133V404.959H480.324ZM494.177 405.217C493.43 405.217 492.749 405.037 492.134 404.677C491.525 404.311 491.037 403.819 490.672 403.198C490.312 402.573 490.132 401.869 490.132 401.088V396.943C490.132 396.14 490.312 395.425 490.672 394.8C491.032 394.168 491.522 393.673 492.142 393.313C492.768 392.947 493.477 392.764 494.269 392.764C494.95 392.764 495.581 392.914 496.163 393.213C496.75 393.512 497.229 393.93 497.6 394.467L496.661 395.24C496.407 394.841 496.069 394.523 495.648 394.285C495.227 394.046 494.767 393.927 494.269 393.927C493.709 393.927 493.211 394.063 492.773 394.334C492.336 394.606 491.993 394.963 491.743 395.406C491.494 395.844 491.37 396.32 491.37 396.835V399.443L491.062 399.095C491.411 398.546 491.868 398.103 492.433 397.765C493.003 397.428 493.624 397.259 494.294 397.259C495.036 397.259 495.703 397.436 496.296 397.79C496.888 398.139 497.359 398.613 497.708 399.211C498.057 399.809 498.231 400.479 498.231 401.221C498.231 401.958 498.046 402.628 497.675 403.232C497.309 403.835 496.819 404.317 496.204 404.677C495.595 405.037 494.92 405.217 494.177 405.217ZM494.177 404.029C494.698 404.029 495.172 403.904 495.598 403.655C496.03 403.406 496.371 403.068 496.62 402.642C496.874 402.215 497.002 401.742 497.002 401.221C497.002 400.701 496.874 400.227 496.62 399.801C496.371 399.369 496.033 399.028 495.606 398.779C495.18 398.524 494.706 398.397 494.186 398.397C493.665 398.397 493.192 398.524 492.765 398.779C492.339 399.028 491.998 399.369 491.743 399.801C491.494 400.227 491.37 400.701 491.37 401.221C491.37 401.736 491.494 402.207 491.743 402.633C491.993 403.06 492.33 403.4 492.757 403.655C493.183 403.904 493.657 404.029 494.177 404.029Z" fill="#1A1A1A"/>
<path d="M660.632 404.968V393.005H664.262C664.39 393.005 664.606 393.008 664.91 393.014C665.22 393.019 665.517 393.041 665.799 393.08C666.707 393.207 667.466 393.545 668.075 394.094C668.684 394.642 669.141 395.34 669.446 396.187C669.751 397.034 669.903 397.968 669.903 398.987C669.903 400.006 669.751 400.939 669.446 401.786C669.141 402.633 668.684 403.331 668.075 403.88C667.466 404.428 666.707 404.766 665.799 404.893C665.522 404.926 665.226 404.948 664.91 404.959C664.594 404.965 664.378 404.968 664.262 404.968H660.632ZM661.895 403.796H664.262C664.489 403.796 664.733 403.791 664.993 403.78C665.259 403.763 665.486 403.736 665.674 403.697C666.372 403.575 666.934 403.292 667.361 402.849C667.793 402.406 668.108 401.853 668.308 401.188C668.507 400.518 668.607 399.784 668.607 398.987C668.607 398.183 668.507 397.447 668.308 396.777C668.108 396.107 667.793 395.553 667.361 395.115C666.929 394.678 666.367 394.398 665.674 394.276C665.486 394.238 665.256 394.213 664.985 394.202C664.719 394.185 664.478 394.177 664.262 394.177H661.895V403.796ZM675.591 405.217C674.716 405.217 673.957 405.023 673.315 404.635C672.678 404.248 672.182 403.702 671.828 402.999C671.474 402.296 671.296 401.47 671.296 400.523C671.296 399.543 671.471 398.696 671.82 397.981C672.169 397.267 672.659 396.716 673.29 396.328C673.927 395.941 674.677 395.747 675.541 395.747C676.427 395.747 677.183 395.952 677.809 396.361C678.435 396.766 678.909 397.347 679.23 398.106C679.551 398.865 679.698 399.77 679.67 400.822H678.424V400.39C678.402 399.227 678.15 398.35 677.668 397.757C677.192 397.164 676.494 396.868 675.575 396.868C674.611 396.868 673.872 397.181 673.357 397.807C672.847 398.433 672.592 399.324 672.592 400.482C672.592 401.612 672.847 402.489 673.357 403.115C673.872 403.736 674.6 404.046 675.541 404.046C676.184 404.046 676.743 403.899 677.219 403.605C677.701 403.306 678.081 402.877 678.358 402.318L679.496 402.758C679.141 403.539 678.618 404.145 677.926 404.577C677.239 405.004 676.461 405.217 675.591 405.217ZM672.16 400.822V399.801H679.014V400.822H672.16ZM685.235 405.217C684.333 405.217 683.568 405.015 682.943 404.611C682.317 404.206 681.84 403.65 681.514 402.941C681.192 402.226 681.026 401.407 681.015 400.482C681.026 399.54 681.198 398.715 681.53 398.006C681.863 397.292 682.342 396.738 682.967 396.345C683.593 395.946 684.352 395.747 685.244 395.747C686.152 395.747 686.941 395.968 687.611 396.411C688.287 396.854 688.749 397.461 688.999 398.231L687.802 398.613C687.592 398.075 687.257 397.66 686.797 397.367C686.343 397.068 685.822 396.918 685.235 396.918C684.576 396.918 684.031 397.07 683.599 397.375C683.167 397.674 682.846 398.092 682.635 398.629C682.425 399.167 682.317 399.784 682.311 400.482C682.322 401.556 682.571 402.42 683.059 403.074C683.546 403.722 684.272 404.046 685.235 404.046C685.845 404.046 686.362 403.907 686.789 403.63C687.221 403.348 687.548 402.938 687.769 402.401L688.999 402.766C688.666 403.564 688.179 404.173 687.536 404.594C686.894 405.009 686.127 405.217 685.235 405.217ZM693.707 404.959L693.716 403.846L699.124 398.962C699.589 398.541 699.896 398.142 700.046 397.765C700.201 397.383 700.278 396.984 700.278 396.569C700.278 396.076 700.162 395.63 699.929 395.232C699.697 394.833 699.384 394.517 698.991 394.285C698.597 394.046 698.157 393.927 697.67 393.927C697.16 393.927 696.706 394.049 696.307 394.293C695.909 394.537 695.593 394.858 695.36 395.257C695.133 395.655 695.023 396.09 695.028 396.561H693.782C693.782 395.835 693.954 395.185 694.297 394.609C694.64 394.033 695.106 393.581 695.693 393.255C696.28 392.922 696.944 392.756 697.686 392.756C698.412 392.756 699.063 392.928 699.639 393.271C700.22 393.609 700.677 394.069 701.009 394.65C701.347 395.226 701.516 395.869 701.516 396.577C701.516 397.076 701.455 397.516 701.333 397.898C701.217 398.275 701.031 398.627 700.777 398.953C700.527 399.275 700.209 399.607 699.821 399.95L695.02 404.287L694.829 403.788H701.516V404.959H693.707ZM704.155 404.968L708.558 394.193H703.017V393.005H709.862V394.193L705.467 404.968H704.155Z" fill="#1A1A1A"/>
<path d="M872.015 404.968V393.005H875.645C875.773 393.005 875.989 393.008 876.293 393.014C876.604 393.019 876.9 393.041 877.182 393.08C878.091 393.207 878.849 393.545 879.458 394.094C880.068 394.642 880.525 395.34 880.829 396.187C881.134 397.034 881.286 397.968 881.286 398.987C881.286 400.006 881.134 400.939 880.829 401.786C880.525 402.633 880.068 403.331 879.458 403.88C878.849 404.428 878.091 404.766 877.182 404.893C876.905 404.926 876.609 404.948 876.293 404.959C875.978 404.965 875.762 404.968 875.645 404.968H872.015ZM873.278 403.796H875.645C875.872 403.796 876.116 403.791 876.376 403.78C876.642 403.763 876.869 403.736 877.058 403.697C877.755 403.575 878.318 403.292 878.744 402.849C879.176 402.406 879.492 401.853 879.691 401.188C879.89 400.518 879.99 399.784 879.99 398.987C879.99 398.183 879.89 397.447 879.691 396.777C879.492 396.107 879.176 395.553 878.744 395.115C878.312 394.678 877.75 394.398 877.058 394.276C876.869 394.238 876.64 394.213 876.368 394.202C876.102 394.185 875.861 394.177 875.645 394.177H873.278V403.796ZM886.974 405.217C886.099 405.217 885.341 405.023 884.698 404.635C884.061 404.248 883.566 403.702 883.211 402.999C882.857 402.296 882.68 401.47 882.68 400.523C882.68 399.543 882.854 398.696 883.203 397.981C883.552 397.267 884.042 396.716 884.673 396.328C885.31 395.941 886.061 395.747 886.925 395.747C887.811 395.747 888.567 395.952 889.193 396.361C889.818 396.766 890.292 397.347 890.613 398.106C890.934 398.865 891.081 399.77 891.053 400.822H889.807V400.39C889.785 399.227 889.533 398.35 889.051 397.757C888.575 397.164 887.877 396.868 886.958 396.868C885.994 396.868 885.255 397.181 884.74 397.807C884.23 398.433 883.976 399.324 883.976 400.482C883.976 401.612 884.23 402.489 884.74 403.115C885.255 403.736 885.983 404.046 886.925 404.046C887.567 404.046 888.126 403.899 888.603 403.605C889.085 403.306 889.464 402.877 889.741 402.318L890.879 402.758C890.524 403.539 890.001 404.145 889.309 404.577C888.622 405.004 887.844 405.217 886.974 405.217ZM883.544 400.822V399.801H890.397V400.822H883.544ZM896.619 405.217C895.716 405.217 894.952 405.015 894.326 404.611C893.7 404.206 893.224 403.65 892.897 402.941C892.576 402.226 892.41 401.407 892.398 400.482C892.41 399.54 892.581 398.715 892.914 398.006C893.246 397.292 893.725 396.738 894.351 396.345C894.977 395.946 895.735 395.747 896.627 395.747C897.535 395.747 898.324 395.968 898.994 396.411C899.67 396.854 900.133 397.461 900.382 398.231L899.186 398.613C898.975 398.075 898.64 397.66 898.18 397.367C897.726 397.068 897.206 396.918 896.619 396.918C895.96 396.918 895.414 397.07 894.982 397.375C894.55 397.674 894.229 398.092 894.018 398.629C893.808 399.167 893.7 399.784 893.694 400.482C893.705 401.556 893.955 402.42 894.442 403.074C894.929 403.722 895.655 404.046 896.619 404.046C897.228 404.046 897.746 403.907 898.172 403.63C898.604 403.348 898.931 402.938 899.152 402.401L900.382 402.766C900.049 403.564 899.562 404.173 898.92 404.594C898.277 405.009 897.51 405.217 896.619 405.217ZM905.09 404.959L905.099 403.846L910.507 398.962C910.972 398.541 911.279 398.142 911.429 397.765C911.584 397.383 911.662 396.984 911.662 396.569C911.662 396.076 911.545 395.63 911.313 395.232C911.08 394.833 910.767 394.517 910.374 394.285C909.981 394.046 909.54 393.927 909.053 393.927C908.544 393.927 908.089 394.049 907.691 394.293C907.292 394.537 906.976 394.858 906.744 395.257C906.517 395.655 906.406 396.09 906.411 396.561H905.165C905.165 395.835 905.337 395.185 905.68 394.609C906.024 394.033 906.489 393.581 907.076 393.255C907.663 392.922 908.328 392.756 909.07 392.756C909.795 392.756 910.446 392.928 911.022 393.271C911.603 393.609 912.06 394.069 912.393 394.65C912.73 395.226 912.899 395.869 912.899 396.577C912.899 397.076 912.838 397.516 912.717 397.898C912.6 398.275 912.415 398.627 912.16 398.953C911.911 399.275 911.592 399.607 911.205 399.95L906.403 404.287L906.212 403.788H912.899V404.959H905.09ZM918.545 405.217C917.797 405.217 917.136 405.067 916.56 404.768C915.989 404.469 915.541 404.051 915.214 403.514C914.893 402.971 914.732 402.337 914.732 401.612C914.732 400.87 914.912 400.21 915.272 399.634C915.632 399.053 916.18 398.613 916.917 398.314L916.9 398.795C916.286 398.568 915.818 398.197 915.496 397.682C915.175 397.167 915.015 396.597 915.015 395.971C915.015 395.306 915.167 394.736 915.471 394.26C915.776 393.778 916.191 393.407 916.718 393.147C917.249 392.886 917.858 392.756 918.545 392.756C919.232 392.756 919.841 392.886 920.373 393.147C920.904 393.407 921.323 393.778 921.627 394.26C921.932 394.736 922.084 395.306 922.084 395.971C922.084 396.597 921.929 397.164 921.619 397.674C921.314 398.183 920.846 398.557 920.215 398.795L920.173 398.314C920.91 398.607 921.461 399.045 921.827 399.626C922.198 400.208 922.383 400.87 922.383 401.612C922.383 402.337 922.22 402.971 921.893 403.514C921.566 404.051 921.115 404.469 920.539 404.768C919.963 405.067 919.298 405.217 918.545 405.217ZM918.545 404.046C919.298 404.046 919.91 403.838 920.381 403.423C920.852 403.002 921.087 402.398 921.087 401.612C921.087 400.814 920.855 400.21 920.389 399.801C919.924 399.385 919.309 399.178 918.545 399.178C917.781 399.178 917.169 399.385 916.709 399.801C916.25 400.21 916.02 400.814 916.02 401.612C916.02 402.398 916.252 403.002 916.718 403.423C917.183 403.838 917.792 404.046 918.545 404.046ZM918.545 397.998C919.21 397.998 919.75 397.829 920.165 397.491C920.58 397.148 920.788 396.641 920.788 395.971C920.788 395.301 920.58 394.8 920.165 394.467C919.75 394.13 919.21 393.961 918.545 393.961C917.881 393.961 917.341 394.13 916.925 394.467C916.515 394.8 916.31 395.301 916.31 395.971C916.31 396.641 916.515 397.148 916.925 397.491C917.341 397.829 917.881 397.998 918.545 397.998Z" fill="#1A1A1A"/>
<path d="M1084.4 404.968V393.005H1088.03C1088.16 393.005 1088.37 393.008 1088.68 393.014C1088.99 393.019 1089.28 393.041 1089.57 393.08C1090.47 393.207 1091.23 393.545 1091.84 394.094C1092.45 394.642 1092.91 395.34 1093.21 396.187C1093.52 397.034 1093.67 397.968 1093.67 398.987C1093.67 400.006 1093.52 400.939 1093.21 401.786C1092.91 402.633 1092.45 403.331 1091.84 403.88C1091.23 404.428 1090.47 404.766 1089.57 404.893C1089.29 404.926 1088.99 404.948 1088.68 404.959C1088.36 404.965 1088.14 404.968 1088.03 404.968H1084.4ZM1085.66 403.796H1088.03C1088.26 403.796 1088.5 403.791 1088.76 403.78C1089.03 403.763 1089.25 403.736 1089.44 403.697C1090.14 403.575 1090.7 403.292 1091.13 402.849C1091.56 402.406 1091.87 401.853 1092.07 401.188C1092.27 400.518 1092.37 399.784 1092.37 398.987C1092.37 398.183 1092.27 397.447 1092.07 396.777C1091.87 396.107 1091.56 395.553 1091.13 395.115C1090.7 394.678 1090.13 394.398 1089.44 394.276C1089.25 394.238 1089.02 394.213 1088.75 394.202C1088.49 394.185 1088.24 394.177 1088.03 394.177H1085.66V403.796ZM1099.36 405.217C1098.48 405.217 1097.72 405.023 1097.08 404.635C1096.44 404.248 1095.95 403.702 1095.59 402.999C1095.24 402.296 1095.06 401.47 1095.06 400.523C1095.06 399.543 1095.24 398.696 1095.59 397.981C1095.94 397.267 1096.43 396.716 1097.06 396.328C1097.69 395.941 1098.44 395.747 1099.31 395.747C1100.19 395.747 1100.95 395.952 1101.58 396.361C1102.2 396.766 1102.68 397.347 1103 398.106C1103.32 398.865 1103.46 399.77 1103.44 400.822H1102.19V400.39C1102.17 399.227 1101.92 398.35 1101.43 397.757C1100.96 397.164 1100.26 396.868 1099.34 396.868C1098.38 396.868 1097.64 397.181 1097.12 397.807C1096.61 398.433 1096.36 399.324 1096.36 400.482C1096.36 401.612 1096.61 402.489 1097.12 403.115C1097.64 403.736 1098.37 404.046 1099.31 404.046C1099.95 404.046 1100.51 403.899 1100.99 403.605C1101.47 403.306 1101.85 402.877 1102.12 402.318L1103.26 402.758C1102.91 403.539 1102.38 404.145 1101.69 404.577C1101.01 405.004 1100.23 405.217 1099.36 405.217ZM1095.93 400.822V399.801H1102.78V400.822H1095.93ZM1109 405.217C1108.1 405.217 1107.33 405.015 1106.71 404.611C1106.08 404.206 1105.61 403.65 1105.28 402.941C1104.96 402.226 1104.79 401.407 1104.78 400.482C1104.79 399.54 1104.96 398.715 1105.3 398.006C1105.63 397.292 1106.11 396.738 1106.73 396.345C1107.36 395.946 1108.12 395.747 1109.01 395.747C1109.92 395.747 1110.71 395.968 1111.38 396.411C1112.05 396.854 1112.52 397.461 1112.77 398.231L1111.57 398.613C1111.36 398.075 1111.02 397.66 1110.56 397.367C1110.11 397.068 1109.59 396.918 1109 396.918C1108.34 396.918 1107.8 397.07 1107.37 397.375C1106.93 397.674 1106.61 398.092 1106.4 398.629C1106.19 399.167 1106.08 399.784 1106.08 400.482C1106.09 401.556 1106.34 402.42 1106.83 403.074C1107.31 403.722 1108.04 404.046 1109 404.046C1109.61 404.046 1110.13 403.907 1110.56 403.63C1110.99 403.348 1111.31 402.938 1111.54 402.401L1112.77 402.766C1112.43 403.564 1111.95 404.173 1111.3 404.594C1110.66 405.009 1109.89 405.217 1109 405.217ZM1117.47 404.959L1117.48 403.846L1122.89 398.962C1123.36 398.541 1123.66 398.142 1123.81 397.765C1123.97 397.383 1124.04 396.984 1124.04 396.569C1124.04 396.076 1123.93 395.63 1123.7 395.232C1123.46 394.833 1123.15 394.517 1122.76 394.285C1122.36 394.046 1121.92 393.927 1121.44 393.927C1120.93 393.927 1120.47 394.049 1120.07 394.293C1119.68 394.537 1119.36 394.858 1119.13 395.257C1118.9 395.655 1118.79 396.09 1118.79 396.561H1117.55C1117.55 395.835 1117.72 395.185 1118.06 394.609C1118.41 394.033 1118.87 393.581 1119.46 393.255C1120.05 392.922 1120.71 392.756 1121.45 392.756C1122.18 392.756 1122.83 392.928 1123.41 393.271C1123.99 393.609 1124.44 394.069 1124.78 394.65C1125.11 395.226 1125.28 395.869 1125.28 396.577C1125.28 397.076 1125.22 397.516 1125.1 397.898C1124.98 398.275 1124.8 398.627 1124.54 398.953C1124.29 399.275 1123.98 399.607 1123.59 399.95L1118.79 404.287L1118.6 403.788H1125.28V404.959H1117.47ZM1131.22 392.764C1131.97 392.764 1132.65 392.947 1133.26 393.313C1133.88 393.673 1134.36 394.166 1134.72 394.791C1135.08 395.412 1135.26 396.109 1135.26 396.885V401.038C1135.26 401.836 1135.08 402.55 1134.72 403.182C1134.36 403.813 1133.87 404.311 1133.25 404.677C1132.63 405.037 1131.92 405.217 1131.13 405.217C1130.45 405.217 1129.82 405.067 1129.23 404.768C1128.66 404.464 1128.18 404.046 1127.8 403.514L1128.74 402.741C1128.99 403.135 1129.33 403.45 1129.75 403.688C1130.18 403.927 1130.63 404.046 1131.13 404.046C1131.69 404.046 1132.19 403.913 1132.62 403.647C1133.06 403.376 1133.4 403.021 1133.65 402.584C1133.91 402.141 1134.04 401.661 1134.04 401.146V398.538L1134.33 398.887C1133.99 399.435 1133.53 399.878 1132.96 400.216C1132.4 400.554 1131.78 400.723 1131.1 400.723C1130.37 400.723 1129.7 400.546 1129.1 400.191C1128.51 399.837 1128.04 399.36 1127.69 398.762C1127.35 398.164 1127.17 397.497 1127.17 396.76C1127.17 396.024 1127.36 395.353 1127.72 394.75C1128.09 394.141 1128.58 393.659 1129.19 393.304C1129.81 392.944 1130.48 392.764 1131.22 392.764ZM1131.22 393.944C1130.7 393.944 1130.23 394.071 1129.8 394.326C1129.37 394.575 1129.03 394.913 1128.78 395.34C1128.53 395.766 1128.4 396.24 1128.4 396.76C1128.4 397.281 1128.53 397.754 1128.78 398.181C1129.03 398.607 1129.36 398.948 1129.79 399.203C1130.22 399.452 1130.69 399.576 1131.21 399.576C1131.73 399.576 1132.2 399.452 1132.63 399.203C1133.06 398.948 1133.4 398.607 1133.65 398.181C1133.91 397.754 1134.04 397.281 1134.04 396.76C1134.04 396.245 1133.91 395.774 1133.65 395.348C1133.4 394.921 1133.07 394.581 1132.64 394.326C1132.21 394.071 1131.74 393.944 1131.22 393.944Z" fill="#1A1A1A"/>
<path d="M1297.78 404.968V393.005H1301.41C1301.54 393.005 1301.76 393.008 1302.06 393.014C1302.37 393.019 1302.67 393.041 1302.95 393.08C1303.86 393.207 1304.62 393.545 1305.22 394.094C1305.83 394.642 1306.29 395.34 1306.6 396.187C1306.9 397.034 1307.05 397.968 1307.05 398.987C1307.05 400.006 1306.9 400.939 1306.6 401.786C1306.29 402.633 1305.83 403.331 1305.22 403.88C1304.62 404.428 1303.86 404.766 1302.95 404.893C1302.67 404.926 1302.38 404.948 1302.06 404.959C1301.74 404.965 1301.53 404.968 1301.41 404.968H1297.78ZM1299.04 403.796H1301.41C1301.64 403.796 1301.88 403.791 1302.14 403.78C1302.41 403.763 1302.64 403.736 1302.82 403.697C1303.52 403.575 1304.08 403.292 1304.51 402.849C1304.94 402.406 1305.26 401.853 1305.46 401.188C1305.66 400.518 1305.76 399.784 1305.76 398.987C1305.76 398.183 1305.66 397.447 1305.46 396.777C1305.26 396.107 1304.94 395.553 1304.51 395.115C1304.08 394.678 1303.52 394.398 1302.82 394.276C1302.64 394.238 1302.41 394.213 1302.13 394.202C1301.87 394.185 1301.63 394.177 1301.41 394.177H1299.04V403.796ZM1312.74 405.217C1311.87 405.217 1311.11 405.023 1310.46 404.635C1309.83 404.248 1309.33 403.702 1308.98 402.999C1308.62 402.296 1308.45 401.47 1308.45 400.523C1308.45 399.543 1308.62 398.696 1308.97 397.981C1309.32 397.267 1309.81 396.716 1310.44 396.328C1311.08 395.941 1311.83 395.747 1312.69 395.747C1313.58 395.747 1314.33 395.952 1314.96 396.361C1315.58 396.766 1316.06 397.347 1316.38 398.106C1316.7 398.865 1316.85 399.77 1316.82 400.822H1315.57V400.39C1315.55 399.227 1315.3 398.35 1314.82 397.757C1314.34 397.164 1313.64 396.868 1312.72 396.868C1311.76 396.868 1311.02 397.181 1310.51 397.807C1310 398.433 1309.74 399.324 1309.74 400.482C1309.74 401.612 1310 402.489 1310.51 403.115C1311.02 403.736 1311.75 404.046 1312.69 404.046C1313.33 404.046 1313.89 403.899 1314.37 403.605C1314.85 403.306 1315.23 402.877 1315.51 402.318L1316.65 402.758C1316.29 403.539 1315.77 404.145 1315.08 404.577C1314.39 405.004 1313.61 405.217 1312.74 405.217ZM1309.31 400.822V399.801H1316.16V400.822H1309.31ZM1322.39 405.217C1321.48 405.217 1320.72 405.015 1320.09 404.611C1319.47 404.206 1318.99 403.65 1318.66 402.941C1318.34 402.226 1318.18 401.407 1318.17 400.482C1318.18 399.54 1318.35 398.715 1318.68 398.006C1319.01 397.292 1319.49 396.738 1320.12 396.345C1320.74 395.946 1321.5 395.747 1322.39 395.747C1323.3 395.747 1324.09 395.968 1324.76 396.411C1325.44 396.854 1325.9 397.461 1326.15 398.231L1324.95 398.613C1324.74 398.075 1324.41 397.66 1323.95 397.367C1323.49 397.068 1322.97 396.918 1322.39 396.918C1321.73 396.918 1321.18 397.07 1320.75 397.375C1320.32 397.674 1320 398.092 1319.78 398.629C1319.57 399.167 1319.47 399.784 1319.46 400.482C1319.47 401.556 1319.72 402.42 1320.21 403.074C1320.7 403.722 1321.42 404.046 1322.39 404.046C1322.99 404.046 1323.51 403.907 1323.94 403.63C1324.37 403.348 1324.7 402.938 1324.92 402.401L1326.15 402.766C1325.82 403.564 1325.33 404.173 1324.69 404.594C1324.04 405.009 1323.28 405.217 1322.39 405.217ZM1334.4 405.209C1333.81 405.209 1333.27 405.103 1332.77 404.893C1332.27 404.683 1331.84 404.383 1331.48 403.996C1331.12 403.603 1330.86 403.135 1330.69 402.592L1331.85 402.243C1332.05 402.836 1332.38 403.284 1332.83 403.589C1333.29 403.893 1333.81 404.04 1334.39 404.029C1334.92 404.018 1335.38 403.899 1335.76 403.672C1336.15 403.445 1336.44 403.129 1336.65 402.725C1336.85 402.321 1336.95 401.853 1336.95 401.321C1336.95 400.507 1336.72 399.853 1336.24 399.36C1335.77 398.862 1335.15 398.613 1334.37 398.613C1334.15 398.613 1333.93 398.643 1333.69 398.704C1333.45 398.759 1333.23 398.84 1333.03 398.945L1332.41 397.973L1337.06 393.678L1337.26 394.177H1331.16V393.005H1338.08V394.193L1334.02 398.064L1334.01 397.583C1334.84 397.477 1335.57 397.572 1336.2 397.865C1336.83 398.159 1337.32 398.607 1337.68 399.211C1338.04 399.809 1338.22 400.512 1338.22 401.321C1338.22 402.085 1338.05 402.761 1337.72 403.348C1337.39 403.929 1336.94 404.386 1336.36 404.719C1335.79 405.045 1335.14 405.209 1334.4 405.209ZM1344.28 405.217C1343.54 405.217 1342.88 405.045 1342.28 404.702C1341.7 404.359 1341.23 403.893 1340.89 403.306C1340.54 402.714 1340.37 402.049 1340.37 401.313V396.66C1340.37 395.924 1340.54 395.262 1340.89 394.675C1341.23 394.082 1341.7 393.614 1342.28 393.271C1342.88 392.928 1343.54 392.756 1344.28 392.756C1345.01 392.756 1345.68 392.928 1346.26 393.271C1346.86 393.614 1347.32 394.082 1347.67 394.675C1348.01 395.262 1348.18 395.924 1348.18 396.66V401.313C1348.18 402.049 1348.01 402.714 1347.67 403.306C1347.32 403.893 1346.86 404.359 1346.26 404.702C1345.68 405.045 1345.01 405.217 1344.28 405.217ZM1344.28 404.037C1344.77 404.037 1345.22 403.918 1345.62 403.68C1346.03 403.436 1346.35 403.112 1346.59 402.708C1346.82 402.304 1346.94 401.858 1346.94 401.371V396.602C1346.94 396.109 1346.82 395.661 1346.59 395.257C1346.35 394.852 1346.03 394.531 1345.62 394.293C1345.22 394.049 1344.77 393.927 1344.28 393.927C1343.78 393.927 1343.34 394.049 1342.93 394.293C1342.53 394.531 1342.21 394.852 1341.97 395.257C1341.73 395.661 1341.61 396.109 1341.61 396.602V401.371C1341.61 401.858 1341.73 402.304 1341.97 402.708C1342.21 403.112 1342.53 403.436 1342.93 403.68C1343.34 403.918 1343.78 404.037 1344.28 404.037Z" fill="#1A1A1A"/>
<path d="M1510.16 404.968V393.005H1513.8C1513.92 393.005 1514.14 393.008 1514.44 393.014C1514.75 393.019 1515.05 393.041 1515.33 393.08C1516.24 393.207 1517 393.545 1517.61 394.094C1518.22 394.642 1518.67 395.34 1518.98 396.187C1519.28 397.034 1519.44 397.968 1519.44 398.987C1519.44 400.006 1519.28 400.939 1518.98 401.786C1518.67 402.633 1518.22 403.331 1517.61 403.88C1517 404.428 1516.24 404.766 1515.33 404.893C1515.06 404.926 1514.76 404.948 1514.44 404.959C1514.13 404.965 1513.91 404.968 1513.8 404.968H1510.16ZM1511.43 403.796H1513.8C1514.02 403.796 1514.27 403.791 1514.53 403.78C1514.79 403.763 1515.02 403.736 1515.21 403.697C1515.91 403.575 1516.47 403.292 1516.89 402.849C1517.33 402.406 1517.64 401.853 1517.84 401.188C1518.04 400.518 1518.14 399.784 1518.14 398.987C1518.14 398.183 1518.04 397.447 1517.84 396.777C1517.64 396.107 1517.33 395.553 1516.89 395.115C1516.46 394.678 1515.9 394.398 1515.21 394.276C1515.02 394.238 1514.79 394.213 1514.52 394.202C1514.25 394.185 1514.01 394.177 1513.8 394.177H1511.43V403.796ZM1525.12 405.217C1524.25 405.217 1523.49 405.023 1522.85 404.635C1522.21 404.248 1521.72 403.702 1521.36 402.999C1521.01 402.296 1520.83 401.47 1520.83 400.523C1520.83 399.543 1521 398.696 1521.35 397.981C1521.7 397.267 1522.19 396.716 1522.82 396.328C1523.46 395.941 1524.21 395.747 1525.07 395.747C1525.96 395.747 1526.72 395.952 1527.34 396.361C1527.97 396.766 1528.44 397.347 1528.76 398.106C1529.08 398.865 1529.23 399.77 1529.2 400.822H1527.96V400.39C1527.93 399.227 1527.68 398.35 1527.2 397.757C1526.72 397.164 1526.03 396.868 1525.11 396.868C1524.14 396.868 1523.4 397.181 1522.89 397.807C1522.38 398.433 1522.13 399.324 1522.13 400.482C1522.13 401.612 1522.38 402.489 1522.89 403.115C1523.4 403.736 1524.13 404.046 1525.07 404.046C1525.72 404.046 1526.28 403.899 1526.75 403.605C1527.23 403.306 1527.61 402.877 1527.89 402.318L1529.03 402.758C1528.67 403.539 1528.15 404.145 1527.46 404.577C1526.77 405.004 1525.99 405.217 1525.12 405.217ZM1521.69 400.822V399.801H1528.55V400.822H1521.69ZM1534.77 405.217C1533.87 405.217 1533.1 405.015 1532.48 404.611C1531.85 404.206 1531.37 403.65 1531.05 402.941C1530.73 402.226 1530.56 401.407 1530.55 400.482C1530.56 399.54 1530.73 398.715 1531.06 398.006C1531.4 397.292 1531.87 396.738 1532.5 396.345C1533.13 395.946 1533.89 395.747 1534.78 395.747C1535.68 395.747 1536.47 395.968 1537.14 396.411C1537.82 396.854 1538.28 397.461 1538.53 398.231L1537.34 398.613C1537.12 398.075 1536.79 397.66 1536.33 397.367C1535.88 397.068 1535.36 396.918 1534.77 396.918C1534.11 396.918 1533.56 397.07 1533.13 397.375C1532.7 397.674 1532.38 398.092 1532.17 398.629C1531.96 399.167 1531.85 399.784 1531.84 400.482C1531.86 401.556 1532.1 402.42 1532.59 403.074C1533.08 403.722 1533.8 404.046 1534.77 404.046C1535.38 404.046 1535.9 403.907 1536.32 403.63C1536.75 403.348 1537.08 402.938 1537.3 402.401L1538.53 402.766C1538.2 403.564 1537.71 404.173 1537.07 404.594C1536.43 405.009 1535.66 405.217 1534.77 405.217ZM1546.79 405.209C1546.19 405.209 1545.65 405.103 1545.15 404.893C1544.65 404.683 1544.22 404.383 1543.86 403.996C1543.5 403.603 1543.24 403.135 1543.07 402.592L1544.24 402.243C1544.44 402.836 1544.76 403.284 1545.22 403.589C1545.68 403.893 1546.19 404.04 1546.77 404.029C1547.3 404.018 1547.76 403.899 1548.14 403.672C1548.53 403.445 1548.83 403.129 1549.03 402.725C1549.24 402.321 1549.34 401.853 1549.34 401.321C1549.34 400.507 1549.1 399.853 1548.62 399.36C1548.15 398.862 1547.53 398.613 1546.75 398.613C1546.54 398.613 1546.31 398.643 1546.07 398.704C1545.83 398.759 1545.61 398.84 1545.41 398.945L1544.79 397.973L1549.45 393.678L1549.65 394.177H1543.55V393.005H1550.46V394.193L1546.41 398.064L1546.39 397.583C1547.22 397.477 1547.95 397.572 1548.58 397.865C1549.21 398.159 1549.71 398.607 1550.06 399.211C1550.42 399.809 1550.6 400.512 1550.6 401.321C1550.6 402.085 1550.43 402.761 1550.1 403.348C1549.78 403.929 1549.32 404.386 1548.75 404.719C1548.17 405.045 1547.52 405.209 1546.79 405.209ZM1554.84 404.968V394.368L1552.59 395.722V394.351L1554.84 393.005H1556.08V404.968H1554.84Z" fill="#1A1A1A"/>
<path d="M59.2171 116.098V107.166L57.3201 108.307V107.152L59.2171 106.018H60.2601V116.098H59.2171ZM66.2052 116.308C65.5845 116.308 65.0245 116.163 64.5252 115.874C64.0305 115.584 63.6385 115.192 63.3492 114.698C63.0598 114.198 62.9152 113.638 62.9152 113.018V109.098C62.9152 108.477 63.0598 107.919 63.3492 107.425C63.6385 106.925 64.0305 106.531 64.5252 106.242C65.0245 105.952 65.5845 105.808 66.2052 105.808C66.8258 105.808 67.3835 105.952 67.8782 106.242C68.3775 106.531 68.7718 106.925 69.0612 107.425C69.3505 107.919 69.4952 108.477 69.4952 109.098V113.018C69.4952 113.638 69.3505 114.198 69.0612 114.698C68.7718 115.192 68.3775 115.584 67.8782 115.874C67.3835 116.163 66.8258 116.308 66.2052 116.308ZM66.2052 115.314C66.6205 115.314 66.9985 115.213 67.3392 115.013C67.6798 114.807 67.9505 114.534 68.1512 114.194C68.3518 113.853 68.4522 113.477 68.4522 113.067V109.049C68.4522 108.633 68.3518 108.255 68.1512 107.915C67.9505 107.574 67.6798 107.303 67.3392 107.103C66.9985 106.897 66.6205 106.795 66.2052 106.795C65.7898 106.795 65.4118 106.897 65.0712 107.103C64.7305 107.303 64.4598 107.574 64.2592 107.915C64.0585 108.255 63.9582 108.633 63.9582 109.049V113.067C63.9582 113.477 64.0585 113.853 64.2592 114.194C64.4598 114.534 64.7305 114.807 65.0712 115.013C65.4118 115.213 65.7898 115.314 66.2052 115.314ZM74.7501 116.308C74.1294 116.308 73.5694 116.163 73.0701 115.874C72.5754 115.584 72.1834 115.192 71.8941 114.698C71.6048 114.198 71.4601 113.638 71.4601 113.018V109.098C71.4601 108.477 71.6048 107.919 71.8941 107.425C72.1834 106.925 72.5754 106.531 73.0701 106.242C73.5694 105.952 74.1294 105.808 74.7501 105.808C75.3708 105.808 75.9284 105.952 76.4231 106.242C76.9224 106.531 77.3168 106.925 77.6061 107.425C77.8954 107.919 78.0401 108.477 78.0401 109.098V113.018C78.0401 113.638 77.8954 114.198 77.6061 114.698C77.3168 115.192 76.9224 115.584 76.4231 115.874C75.9284 116.163 75.3708 116.308 74.7501 116.308ZM74.7501 115.314C75.1654 115.314 75.5434 115.213 75.8841 115.013C76.2248 114.807 76.4954 114.534 76.6961 114.194C76.8968 113.853 76.9971 113.477 76.9971 113.067V109.049C76.9971 108.633 76.8968 108.255 76.6961 107.915C76.4954 107.574 76.2248 107.303 75.8841 107.103C75.5434 106.897 75.1654 106.795 74.7501 106.795C74.3348 106.795 73.9568 106.897 73.6161 107.103C73.2754 107.303 73.0048 107.574 72.8041 107.915C72.6034 108.255 72.5031 108.633 72.5031 109.049V113.067C72.5031 113.477 72.6034 113.853 72.8041 114.194C73.0048 114.534 73.2754 114.807 73.6161 115.013C73.9568 115.213 74.3348 115.314 74.7501 115.314ZM89.021 116.098L89.028 111.135C89.028 110.551 88.8647 110.094 88.538 109.763C88.216 109.427 87.8054 109.259 87.306 109.259C87.0214 109.259 86.7437 109.324 86.473 109.455C86.2024 109.585 85.9784 109.795 85.801 110.085C85.6284 110.374 85.542 110.752 85.542 111.219L84.933 111.044C84.919 110.502 85.024 110.029 85.248 109.623C85.4767 109.217 85.7894 108.902 86.186 108.678C86.5874 108.449 87.04 108.335 87.544 108.335C88.3047 108.335 88.9137 108.57 89.371 109.042C89.8284 109.508 90.057 110.141 90.057 110.939L90.05 116.098H89.021ZM79.998 116.098V108.538H80.922V110.4H81.034V116.098H79.998ZM84.52 116.098L84.527 111.205C84.527 110.603 84.366 110.129 84.044 109.784C83.7267 109.434 83.3067 109.259 82.784 109.259C82.2614 109.259 81.839 109.438 81.517 109.798C81.195 110.152 81.034 110.626 81.034 111.219L80.418 110.883C80.418 110.397 80.5324 109.963 80.761 109.581C80.9897 109.193 81.3024 108.89 81.699 108.671C82.0957 108.447 82.546 108.335 83.05 108.335C83.5307 108.335 83.9577 108.437 84.331 108.643C84.709 108.848 85.0054 109.147 85.22 109.539C85.4347 109.931 85.542 110.407 85.542 110.967L85.535 116.098H84.52ZM100.888 116.098L100.895 111.135C100.895 110.551 100.732 110.094 100.405 109.763C100.083 109.427 99.6725 109.259 99.1732 109.259C98.8885 109.259 98.6109 109.324 98.3402 109.455C98.0695 109.585 97.8455 109.795 97.6682 110.085C97.4955 110.374 97.4092 110.752 97.4092 111.219L96.8002 111.044C96.7862 110.502 96.8912 110.029 97.1152 109.623C97.3439 109.217 97.6565 108.902 98.0532 108.678C98.4545 108.449 98.9072 108.335 99.4112 108.335C100.172 108.335 100.781 108.57 101.238 109.042C101.696 109.508 101.924 110.141 101.924 110.939L101.917 116.098H100.888ZM91.8652 116.098V108.538H92.7892V110.4H92.9012V116.098H91.8652ZM96.3872 116.098L96.3942 111.205C96.3942 110.603 96.2332 110.129 95.9112 109.784C95.5939 109.434 95.1739 109.259 94.6512 109.259C94.1285 109.259 93.7062 109.438 93.3842 109.798C93.0622 110.152 92.9012 110.626 92.9012 111.219L92.2852 110.883C92.2852 110.397 92.3995 109.963 92.6282 109.581C92.8569 109.193 93.1695 108.89 93.5662 108.671C93.9629 108.447 94.4132 108.335 94.9172 108.335C95.3979 108.335 95.8249 108.437 96.1982 108.643C96.5762 108.848 96.8725 109.147 97.0872 109.539C97.3019 109.931 97.4092 110.407 97.4092 110.967L97.4022 116.098H96.3872Z" fill="#1A1A1A"/>
<path d="M65.4366 179.479L69.1466 170.4H64.4776V169.399H70.2456V170.4L66.5426 179.479H65.4366ZM74.8999 179.689C74.3773 179.689 73.8943 179.581 73.4509 179.367C73.0076 179.152 72.6296 178.856 72.3169 178.478C72.0043 178.1 71.7803 177.666 71.6449 177.176L72.6319 176.91C72.7206 177.274 72.8816 177.589 73.1149 177.855C73.3483 178.116 73.6213 178.319 73.9339 178.464C74.2513 178.608 74.5826 178.681 74.9279 178.681C75.3759 178.681 75.7773 178.573 76.1319 178.359C76.4913 178.139 76.7759 177.85 76.9859 177.491C77.1959 177.131 77.3009 176.737 77.3009 176.308C77.3009 175.864 77.1913 175.465 76.9719 175.111C76.7526 174.751 76.4633 174.467 76.1039 174.257C75.7446 174.047 75.3526 173.942 74.9279 173.942C74.4519 173.942 74.0413 174.047 73.6959 174.257C73.3506 174.462 73.0753 174.721 72.8699 175.034L71.9319 174.642L72.2399 169.399H77.6229V170.386H72.6949L73.2059 169.903L72.9329 174.376L72.6739 174.033C72.9633 173.701 73.3133 173.442 73.7239 173.256C74.1346 173.069 74.5663 172.976 75.0189 172.976C75.6396 172.976 76.1996 173.125 76.6989 173.424C77.1983 173.718 77.5949 174.117 77.8889 174.621C78.1829 175.125 78.3299 175.687 78.3299 176.308C78.3299 176.924 78.1736 177.488 77.8609 178.002C77.5483 178.51 77.1329 178.919 76.6149 179.227C76.0969 179.535 75.5253 179.689 74.8999 179.689ZM89.021 179.479L89.028 174.516C89.028 173.932 88.8647 173.475 88.538 173.144C88.216 172.808 87.8054 172.64 87.306 172.64C87.0214 172.64 86.7437 172.705 86.473 172.836C86.2024 172.966 85.9784 173.176 85.801 173.466C85.6284 173.755 85.542 174.133 85.542 174.6L84.933 174.425C84.919 173.883 85.024 173.41 85.248 173.004C85.4767 172.598 85.7894 172.283 86.186 172.059C86.5874 171.83 87.04 171.716 87.544 171.716C88.3047 171.716 88.9137 171.951 89.371 172.423C89.8284 172.889 90.057 173.522 90.057 174.32L90.05 179.479H89.021ZM79.998 179.479V171.919H80.922V173.781H81.034V179.479H79.998ZM84.52 179.479L84.527 174.586C84.527 173.984 84.366 173.51 84.044 173.165C83.7267 172.815 83.3067 172.64 82.784 172.64C82.2614 172.64 81.839 172.819 81.517 173.179C81.195 173.533 81.034 174.007 81.034 174.6L80.418 174.264C80.418 173.778 80.5324 173.344 80.761 172.962C80.9897 172.574 81.3024 172.271 81.699 172.052C82.0957 171.828 82.546 171.716 83.05 171.716C83.5307 171.716 83.9577 171.818 84.331 172.024C84.709 172.229 85.0054 172.528 85.22 172.92C85.4347 173.312 85.542 173.788 85.542 174.348L85.535 179.479H84.52ZM100.888 179.479L100.895 174.516C100.895 173.932 100.732 173.475 100.405 173.144C100.083 172.808 99.6725 172.64 99.1732 172.64C98.8885 172.64 98.6109 172.705 98.3402 172.836C98.0695 172.966 97.8455 173.176 97.6682 173.466C97.4955 173.755 97.4092 174.133 97.4092 174.6L96.8002 174.425C96.7862 173.883 96.8912 173.41 97.1152 173.004C97.3439 172.598 97.6565 172.283 98.0532 172.059C98.4545 171.83 98.9072 171.716 99.4112 171.716C100.172 171.716 100.781 171.951 101.238 172.423C101.696 172.889 101.924 173.522 101.924 174.32L101.917 179.479H100.888ZM91.8652 179.479V171.919H92.7892V173.781H92.9012V179.479H91.8652ZM96.3872 179.479L96.3942 174.586C96.3942 173.984 96.2332 173.51 95.9112 173.165C95.5939 172.815 95.1739 172.64 94.6512 172.64C94.1285 172.64 93.7062 172.819 93.3842 173.179C93.0622 173.533 92.9012 174.007 92.9012 174.6L92.2852 174.264C92.2852 173.778 92.3995 173.344 92.6282 172.962C92.8569 172.574 93.1695 172.271 93.5662 172.052C93.9629 171.828 94.4132 171.716 94.9172 171.716C95.3979 171.716 95.8249 171.818 96.1982 172.024C96.5762 172.229 96.8725 172.528 97.0872 172.92C97.3019 173.312 97.4092 173.788 97.4092 174.348L97.4022 179.479H96.3872Z" fill="#1A1A1A"/>
<path d="M66.355 243.07C65.8324 243.07 65.3494 242.963 64.906 242.748C64.4627 242.534 64.0847 242.237 63.772 241.859C63.4594 241.481 63.2354 241.047 63.1 240.557L64.087 240.291C64.1757 240.655 64.3367 240.97 64.57 241.236C64.8034 241.498 65.0764 241.701 65.389 241.845C65.7064 241.99 66.0377 242.062 66.383 242.062C66.831 242.062 67.2324 241.955 67.587 241.74C67.9464 241.521 68.231 241.232 68.441 240.872C68.651 240.513 68.756 240.119 68.756 239.689C68.756 239.246 68.6464 238.847 68.427 238.492C68.2077 238.133 67.9184 237.848 67.559 237.638C67.1997 237.428 66.8077 237.323 66.383 237.323C65.907 237.323 65.4964 237.428 65.151 237.638C64.8057 237.844 64.5304 238.103 64.325 238.415L63.387 238.023L63.695 232.78H69.078V233.767H64.15L64.661 233.284L64.388 237.757L64.129 237.414C64.4184 237.083 64.7684 236.824 65.179 236.637C65.5897 236.451 66.0214 236.357 66.474 236.357C67.0947 236.357 67.6547 236.507 68.154 236.805C68.6534 237.099 69.05 237.498 69.344 238.002C69.638 238.506 69.785 239.069 69.785 239.689C69.785 240.305 69.6287 240.87 69.316 241.383C69.0034 241.892 68.588 242.3 68.07 242.608C67.552 242.916 66.9804 243.07 66.355 243.07ZM74.7501 243.07C74.1294 243.07 73.5694 242.926 73.0701 242.636C72.5754 242.347 72.1834 241.955 71.8941 241.46C71.6048 240.961 71.4601 240.401 71.4601 239.78V235.86C71.4601 235.24 71.6048 234.682 71.8941 234.187C72.1834 233.688 72.5754 233.294 73.0701 233.004C73.5694 232.715 74.1294 232.57 74.7501 232.57C75.3708 232.57 75.9284 232.715 76.4231 233.004C76.9224 233.294 77.3168 233.688 77.6061 234.187C77.8954 234.682 78.0401 235.24 78.0401 235.86V239.78C78.0401 240.401 77.8954 240.961 77.6061 241.46C77.3168 241.955 76.9224 242.347 76.4231 242.636C75.9284 242.926 75.3708 243.07 74.7501 243.07ZM74.7501 242.076C75.1654 242.076 75.5434 241.976 75.8841 241.775C76.2248 241.57 76.4954 241.297 76.6961 240.956C76.8968 240.616 76.9971 240.24 76.9971 239.829V235.811C76.9971 235.396 76.8968 235.018 76.6961 234.677C76.4954 234.337 76.2248 234.066 75.8841 233.865C75.5434 233.66 75.1654 233.557 74.7501 233.557C74.3348 233.557 73.9568 233.66 73.6161 233.865C73.2754 234.066 73.0048 234.337 72.8041 234.677C72.6034 235.018 72.5031 235.396 72.5031 235.811V239.829C72.5031 240.24 72.6034 240.616 72.8041 240.956C73.0048 241.297 73.2754 241.57 73.6161 241.775C73.9568 241.976 74.3348 242.076 74.7501 242.076ZM89.021 242.86L89.028 237.897C89.028 237.314 88.8647 236.857 88.538 236.525C88.216 236.189 87.8054 236.021 87.306 236.021C87.0214 236.021 86.7437 236.087 86.473 236.217C86.2024 236.348 85.9784 236.558 85.801 236.847C85.6284 237.137 85.542 237.515 85.542 237.981L84.933 237.806C84.919 237.265 85.024 236.791 85.248 236.385C85.4767 235.979 85.7894 235.664 86.186 235.44C86.5874 235.212 87.04 235.097 87.544 235.097C88.3047 235.097 88.9137 235.333 89.371 235.804C89.8284 236.271 90.057 236.903 90.057 237.701L90.05 242.86H89.021ZM79.998 242.86V235.3H80.922V237.162H81.034V242.86H79.998ZM84.52 242.86L84.527 237.967C84.527 237.365 84.366 236.892 84.044 236.546C83.7267 236.196 83.3067 236.021 82.784 236.021C82.2614 236.021 81.839 236.201 81.517 236.56C81.195 236.915 81.034 237.389 81.034 237.981L80.418 237.645C80.418 237.16 80.5324 236.726 80.761 236.343C80.9897 235.956 81.3024 235.653 81.699 235.433C82.0957 235.209 82.546 235.097 83.05 235.097C83.5307 235.097 83.9577 235.2 84.331 235.405C84.709 235.611 85.0054 235.909 85.22 236.301C85.4347 236.693 85.542 237.169 85.542 237.729L85.535 242.86H84.52ZM100.888 242.86L100.895 237.897C100.895 237.314 100.732 236.857 100.405 236.525C100.083 236.189 99.6725 236.021 99.1732 236.021C98.8885 236.021 98.6109 236.087 98.3402 236.217C98.0695 236.348 97.8455 236.558 97.6682 236.847C97.4955 237.137 97.4092 237.515 97.4092 237.981L96.8002 237.806C96.7862 237.265 96.8912 236.791 97.1152 236.385C97.3439 235.979 97.6565 235.664 98.0532 235.44C98.4545 235.212 98.9072 235.097 99.4112 235.097C100.172 235.097 100.781 235.333 101.238 235.804C101.696 236.271 101.924 236.903 101.924 237.701L101.917 242.86H100.888ZM91.8652 242.86V235.3H92.7892V237.162H92.9012V242.86H91.8652ZM96.3872 242.86L96.3942 237.967C96.3942 237.365 96.2332 236.892 95.9112 236.546C95.5939 236.196 95.1739 236.021 94.6512 236.021C94.1285 236.021 93.7062 236.201 93.3842 236.56C93.0622 236.915 92.9012 237.389 92.9012 237.981L92.2852 237.645C92.2852 237.16 92.3995 236.726 92.6282 236.343C92.8569 235.956 93.1695 235.653 93.5662 235.433C93.9629 235.209 94.4132 235.097 94.9172 235.097C95.3979 235.097 95.8249 235.2 96.1982 235.405C96.5762 235.611 96.8725 235.909 97.0872 236.301C97.3019 236.693 97.4092 237.169 97.4092 237.729L97.4022 242.86H96.3872Z" fill="#1A1A1A"/>
<path d="M63.6606 306.234L63.6676 305.296L68.2246 301.18C68.6166 300.826 68.8756 300.49 69.0016 300.172C69.1322 299.85 69.1976 299.514 69.1976 299.164C69.1976 298.749 69.0996 298.373 68.9036 298.037C68.7076 297.701 68.4439 297.435 68.1126 297.239C67.7812 297.039 67.4102 296.938 66.9996 296.938C66.5702 296.938 66.1876 297.041 65.8516 297.246C65.5156 297.452 65.2496 297.722 65.0536 298.058C64.8622 298.394 64.7689 298.761 64.7736 299.157H63.7236C63.7236 298.546 63.8682 297.998 64.1576 297.512C64.4469 297.027 64.8389 296.647 65.3336 296.371C65.8282 296.091 66.3882 295.951 67.0136 295.951C67.6249 295.951 68.1732 296.096 68.6586 296.385C69.1486 296.67 69.5336 297.057 69.8136 297.547C70.0982 298.033 70.2406 298.574 70.2406 299.171C70.2406 299.591 70.1892 299.962 70.0866 300.284C69.9886 300.602 69.8322 300.898 69.6176 301.173C69.4076 301.444 69.1392 301.724 68.8126 302.013L64.7666 305.667L64.6056 305.247H70.2406V306.234H63.6606ZM74.8999 306.451C74.3773 306.451 73.8943 306.344 73.4509 306.129C73.0076 305.915 72.6296 305.618 72.3169 305.24C72.0043 304.862 71.7803 304.428 71.6449 303.938L72.6319 303.672C72.7206 304.036 72.8816 304.351 73.1149 304.617C73.3483 304.879 73.6213 305.082 73.9339 305.226C74.2513 305.371 74.5826 305.443 74.9279 305.443C75.3759 305.443 75.7773 305.336 76.1319 305.121C76.4913 304.902 76.7759 304.613 76.9859 304.253C77.1959 303.894 77.3009 303.5 77.3009 303.07C77.3009 302.627 77.1913 302.228 76.9719 301.873C76.7526 301.514 76.4633 301.229 76.1039 301.019C75.7446 300.809 75.3526 300.704 74.9279 300.704C74.4519 300.704 74.0413 300.809 73.6959 301.019C73.3506 301.225 73.0753 301.484 72.8699 301.796L71.9319 301.404L72.2399 296.161H77.6229V297.148H72.6949L73.2059 296.665L72.9329 301.138L72.6739 300.795C72.9633 300.464 73.3133 300.205 73.7239 300.018C74.1346 299.832 74.5663 299.738 75.0189 299.738C75.6396 299.738 76.1996 299.888 76.6989 300.186C77.1983 300.48 77.5949 300.879 77.8889 301.383C78.1829 301.887 78.3299 302.45 78.3299 303.07C78.3299 303.686 78.1736 304.251 77.8609 304.764C77.5483 305.273 77.1329 305.681 76.6149 305.989C76.0969 306.297 75.5253 306.451 74.8999 306.451ZM89.021 306.241L89.028 301.278C89.028 300.695 88.8647 300.238 88.538 299.906C88.216 299.57 87.8054 299.402 87.306 299.402C87.0214 299.402 86.7437 299.468 86.473 299.598C86.2024 299.729 85.9784 299.939 85.801 300.228C85.6284 300.518 85.542 300.896 85.542 301.362L84.933 301.187C84.919 300.646 85.024 300.172 85.248 299.766C85.4767 299.36 85.7894 299.045 86.186 298.821C86.5874 298.593 87.04 298.478 87.544 298.478C88.3047 298.478 88.9137 298.714 89.371 299.185C89.8284 299.652 90.057 300.284 90.057 301.082L90.05 306.241H89.021ZM79.998 306.241V298.681H80.922V300.543H81.034V306.241H79.998ZM84.52 306.241L84.527 301.348C84.527 300.746 84.366 300.273 84.044 299.927C83.7267 299.577 83.3067 299.402 82.784 299.402C82.2614 299.402 81.839 299.582 81.517 299.941C81.195 300.296 81.034 300.77 81.034 301.362L80.418 301.026C80.418 300.541 80.5324 300.107 80.761 299.724C80.9897 299.337 81.3024 299.034 81.699 298.814C82.0957 298.59 82.546 298.478 83.05 298.478C83.5307 298.478 83.9577 298.581 84.331 298.786C84.709 298.992 85.0054 299.29 85.22 299.682C85.4347 300.074 85.542 300.55 85.542 301.11L85.535 306.241H84.52ZM100.888 306.241L100.895 301.278C100.895 300.695 100.732 300.238 100.405 299.906C100.083 299.57 99.6725 299.402 99.1732 299.402C98.8885 299.402 98.6109 299.468 98.3402 299.598C98.0695 299.729 97.8455 299.939 97.6682 300.228C97.4955 300.518 97.4092 300.896 97.4092 301.362L96.8002 301.187C96.7862 300.646 96.8912 300.172 97.1152 299.766C97.3439 299.36 97.6565 299.045 98.0532 298.821C98.4545 298.593 98.9072 298.478 99.4112 298.478C100.172 298.478 100.781 298.714 101.238 299.185C101.696 299.652 101.924 300.284 101.924 301.082L101.917 306.241H100.888ZM91.8652 306.241V298.681H92.7892V300.543H92.9012V306.241H91.8652ZM96.3872 306.241L96.3942 301.348C96.3942 300.746 96.2332 300.273 95.9112 299.927C95.5939 299.577 95.1739 299.402 94.6512 299.402C94.1285 299.402 93.7062 299.582 93.3842 299.941C93.0622 300.296 92.9012 300.77 92.9012 301.362L92.2852 301.026C92.2852 300.541 92.3995 300.107 92.6282 299.724C92.8569 299.337 93.1695 299.034 93.5662 298.814C93.9629 298.59 94.4132 298.478 94.9172 298.478C95.3979 298.478 95.8249 298.581 96.1982 298.786C96.5762 298.992 96.8725 299.29 97.0872 299.682C97.3019 300.074 97.4092 300.55 97.4092 301.11L97.4022 306.241H96.3872Z" fill="#1A1A1A"/>
<path d="M74.7501 369.832C74.1294 369.832 73.5694 369.687 73.0701 369.398C72.5754 369.109 72.1834 368.717 71.8941 368.222C71.6048 367.723 71.4601 367.163 71.4601 366.542V362.622C71.4601 362.001 71.6048 361.444 71.8941 360.949C72.1834 360.45 72.5754 360.055 73.0701 359.766C73.5694 359.477 74.1294 359.332 74.7501 359.332C75.3708 359.332 75.9284 359.477 76.4231 359.766C76.9224 360.055 77.3168 360.45 77.6061 360.949C77.8954 361.444 78.0401 362.001 78.0401 362.622V366.542C78.0401 367.163 77.8954 367.723 77.6061 368.222C77.3168 368.717 76.9224 369.109 76.4231 369.398C75.9284 369.687 75.3708 369.832 74.7501 369.832ZM74.7501 368.838C75.1654 368.838 75.5434 368.738 75.8841 368.537C76.2248 368.332 76.4954 368.059 76.6961 367.718C76.8968 367.377 76.9971 367.002 76.9971 366.591V362.573C76.9971 362.158 76.8968 361.78 76.6961 361.439C76.4954 361.098 76.2248 360.828 75.8841 360.627C75.5434 360.422 75.1654 360.319 74.7501 360.319C74.3348 360.319 73.9568 360.422 73.6161 360.627C73.2754 360.828 73.0048 361.098 72.8041 361.439C72.6034 361.78 72.5031 362.158 72.5031 362.573V366.591C72.5031 367.002 72.6034 367.377 72.8041 367.718C73.0048 368.059 73.2754 368.332 73.6161 368.537C73.9568 368.738 74.3348 368.838 74.7501 368.838ZM89.021 369.622L89.028 364.659C89.028 364.076 88.8647 363.618 88.538 363.287C88.216 362.951 87.8054 362.783 87.306 362.783C87.0214 362.783 86.7437 362.848 86.473 362.979C86.2024 363.11 85.9784 363.32 85.801 363.609C85.6284 363.898 85.542 364.276 85.542 364.743L84.933 364.568C84.919 364.027 85.024 363.553 85.248 363.147C85.4767 362.741 85.7894 362.426 86.186 362.202C86.5874 361.973 87.04 361.859 87.544 361.859C88.3047 361.859 88.9137 362.095 89.371 362.566C89.8284 363.033 90.057 363.665 90.057 364.463L90.05 369.622H89.021ZM79.998 369.622V362.062H80.922V363.924H81.034V369.622H79.998ZM84.52 369.622L84.527 364.729C84.527 364.127 84.366 363.653 84.044 363.308C83.7267 362.958 83.3067 362.783 82.784 362.783C82.2614 362.783 81.839 362.963 81.517 363.322C81.195 363.677 81.034 364.15 81.034 364.743L80.418 364.407C80.418 363.922 80.5324 363.488 80.761 363.105C80.9897 362.718 81.3024 362.414 81.699 362.195C82.0957 361.971 82.546 361.859 83.05 361.859C83.5307 361.859 83.9577 361.962 84.331 362.167C84.709 362.372 85.0054 362.671 85.22 363.063C85.4347 363.455 85.542 363.931 85.542 364.491L85.535 369.622H84.52ZM100.888 369.622L100.895 364.659C100.895 364.076 100.732 363.618 100.405 363.287C100.083 362.951 99.6725 362.783 99.1732 362.783C98.8885 362.783 98.6109 362.848 98.3402 362.979C98.0695 363.11 97.8455 363.32 97.6682 363.609C97.4955 363.898 97.4092 364.276 97.4092 364.743L96.8002 364.568C96.7862 364.027 96.8912 363.553 97.1152 363.147C97.3439 362.741 97.6565 362.426 98.0532 362.202C98.4545 361.973 98.9072 361.859 99.4112 361.859C100.172 361.859 100.781 362.095 101.238 362.566C101.696 363.033 101.924 363.665 101.924 364.463L101.917 369.622H100.888ZM91.8652 369.622V362.062H92.7892V363.924H92.9012V369.622H91.8652ZM96.3872 369.622L96.3942 364.729C96.3942 364.127 96.2332 363.653 95.9112 363.308C95.5939 362.958 95.1739 362.783 94.6512 362.783C94.1285 362.783 93.7062 362.963 93.3842 363.322C93.0622 363.677 92.9012 364.15 92.9012 364.743L92.2852 364.407C92.2852 363.922 92.3995 363.488 92.6282 363.105C92.8569 362.718 93.1695 362.414 93.5662 362.195C93.9629 361.971 94.4132 361.859 94.9172 361.859C95.3979 361.859 95.8249 361.962 96.1982 362.167C96.5762 362.372 96.8725 362.671 97.0872 363.063C97.3019 363.455 97.4092 363.931 97.4092 364.491L97.4022 369.622H96.3872Z" fill="#1A1A1A"/>
<path d="M76.9902 56.4939C75.8382 56.4939 74.8515 56.2432 74.0302 55.7419C73.2088 55.2352 72.5768 54.5312 72.1342 53.6299C71.6968 52.7286 71.4782 51.6832 71.4782 50.4939C71.4782 49.3046 71.6968 48.2592 72.1342 47.3579C72.5768 46.4566 73.2088 45.7552 74.0302 45.2539C74.8515 44.7472 75.8382 44.4939 76.9902 44.4939C78.3182 44.4939 79.4248 44.8272 80.3102 45.4939C81.1955 46.1552 81.8168 47.0486 82.1742 48.1739L80.2302 48.7099C80.0062 47.9579 79.6248 47.3712 79.0862 46.9499C78.5475 46.5232 77.8488 46.3099 76.9902 46.3099C76.2168 46.3099 75.5715 46.4832 75.0542 46.8299C74.5422 47.1766 74.1555 47.6646 73.8942 48.2939C73.6382 48.9179 73.5075 49.6512 73.5022 50.4939C73.5022 51.3366 73.6302 52.0726 73.8862 52.7019C74.1475 53.3259 74.5368 53.8112 75.0542 54.1579C75.5715 54.5046 76.2168 54.6779 76.9902 54.6779C77.8488 54.6779 78.5475 54.4646 79.0862 54.0379C79.6248 53.6112 80.0062 53.0246 80.2302 52.2779L82.1742 52.8139C81.8168 53.9392 81.1955 54.8352 80.3102 55.5019C79.4248 56.1632 78.3182 56.4939 76.9902 56.4939ZM84.3676 56.2539V44.4939H86.2956V56.2539H84.3676ZM89.1289 46.3019V44.5339H91.0569V46.3019H89.1289ZM89.1289 56.2539V47.6139H91.0569V56.2539H89.1289ZM97.6581 56.4939C96.7835 56.4939 96.0155 56.3046 95.3541 55.9259C94.6928 55.5472 94.1755 55.0219 93.8021 54.3499C93.4341 53.6779 93.2501 52.9046 93.2501 52.0299C93.2501 51.0859 93.4315 50.2672 93.7941 49.5739C94.1568 48.8752 94.6608 48.3339 95.3061 47.9499C95.9515 47.5659 96.6981 47.3739 97.5461 47.3739C98.4421 47.3739 99.2021 47.5846 99.8261 48.0059C100.455 48.4219 100.922 49.0112 101.226 49.7739C101.53 50.5366 101.645 51.4352 101.57 52.4699H99.6581V51.7659C99.6528 50.8272 99.4875 50.1419 99.1621 49.7099C98.8368 49.2779 98.3248 49.0619 97.6261 49.0619C96.8368 49.0619 96.2501 49.3072 95.8661 49.7979C95.4821 50.2832 95.2901 50.9952 95.2901 51.9339C95.2901 52.8086 95.4821 53.4859 95.8661 53.9659C96.2501 54.4459 96.8101 54.6859 97.5461 54.6859C98.0208 54.6859 98.4288 54.5819 98.7701 54.3739C99.1168 54.1606 99.3835 53.8539 99.5701 53.4539L101.474 54.0299C101.143 54.8086 100.631 55.4139 99.9381 55.8459C99.2501 56.2779 98.4901 56.4939 97.6581 56.4939ZM94.6821 52.4699V51.0139H100.626V52.4699H94.6821ZM109.374 56.2539V52.0939C109.374 51.8219 109.355 51.5206 109.318 51.1899C109.28 50.8592 109.192 50.5419 109.054 50.2379C108.92 49.9286 108.718 49.6752 108.446 49.4779C108.179 49.2806 107.816 49.1819 107.358 49.1819C107.112 49.1819 106.87 49.2219 106.63 49.3019C106.39 49.3819 106.171 49.5206 105.974 49.7179C105.782 49.9099 105.627 50.1766 105.51 50.5179C105.392 50.8539 105.334 51.2859 105.334 51.8139L104.19 51.3259C104.19 50.5899 104.331 49.9232 104.614 49.3259C104.902 48.7286 105.323 48.2539 105.878 47.9019C106.432 47.5446 107.115 47.3659 107.926 47.3659C108.566 47.3659 109.094 47.4726 109.51 47.6859C109.926 47.8992 110.256 48.1712 110.502 48.5019C110.747 48.8326 110.928 49.1846 111.046 49.5579C111.163 49.9312 111.238 50.2859 111.27 50.6219C111.307 50.9526 111.326 51.2219 111.326 51.4299V56.2539H109.374ZM103.382 56.2539V47.6139H105.102V50.2939H105.334V56.2539H103.382ZM118.754 56.2539C118.184 56.3606 117.624 56.4059 117.074 56.3899C116.53 56.3792 116.042 56.2806 115.61 56.0939C115.178 55.9019 114.85 55.6006 114.626 55.1899C114.429 54.8166 114.325 54.4352 114.314 54.0459C114.304 53.6566 114.298 53.2166 114.298 52.7259V45.2139H116.218V52.6139C116.218 52.9606 116.221 53.2646 116.226 53.5259C116.237 53.7872 116.293 54.0006 116.394 54.1659C116.586 54.4859 116.893 54.6646 117.314 54.7019C117.736 54.7392 118.216 54.7179 118.754 54.6379V56.2539ZM112.73 49.1259V47.6139H118.754V49.1259H112.73ZM124.369 56.2539V44.7339H126.321L131.665 52.8539V44.7339H133.617V56.2539H131.665L126.321 48.1339V56.2539H124.369ZM138.546 56.4939C137.922 56.4939 137.394 56.3766 136.962 56.1419C136.53 55.9019 136.202 55.5846 135.978 55.1899C135.76 54.7952 135.65 54.3606 135.65 53.8859C135.65 53.4699 135.72 53.0966 135.858 52.7659C135.997 52.4299 136.21 52.1419 136.498 51.9019C136.786 51.6566 137.16 51.4566 137.618 51.3019C137.965 51.1899 138.37 51.0886 138.834 50.9979C139.304 50.9072 139.81 50.8246 140.354 50.7499C140.904 50.6699 141.477 50.5846 142.074 50.4939L141.386 50.8859C141.392 50.2886 141.258 49.8486 140.986 49.5659C140.714 49.2832 140.256 49.1419 139.61 49.1419C139.221 49.1419 138.845 49.2326 138.482 49.4139C138.12 49.5952 137.866 49.9072 137.722 50.3499L135.962 49.7979C136.176 49.0672 136.581 48.4806 137.178 48.0379C137.781 47.5952 138.592 47.3739 139.61 47.3739C140.378 47.3739 141.053 47.4992 141.634 47.7499C142.221 48.0006 142.656 48.4112 142.938 48.9819C143.093 49.2859 143.186 49.5979 143.218 49.9179C143.25 50.2326 143.266 50.5766 143.266 50.9499V56.2539H141.578V54.3819L141.858 54.6859C141.469 55.3099 141.013 55.7686 140.49 56.0619C139.973 56.3499 139.325 56.4939 138.546 56.4939ZM138.93 54.9579C139.368 54.9579 139.741 54.8806 140.05 54.7259C140.36 54.5712 140.605 54.3819 140.786 54.1579C140.973 53.9339 141.098 53.7232 141.162 53.5259C141.264 53.2806 141.32 53.0006 141.33 52.6859C141.346 52.3659 141.354 52.1072 141.354 51.9099L141.946 52.0859C141.365 52.1766 140.866 52.2566 140.45 52.3259C140.034 52.3952 139.677 52.4619 139.378 52.5259C139.08 52.5846 138.816 52.6512 138.586 52.7259C138.362 52.8059 138.173 52.8992 138.018 53.0059C137.864 53.1126 137.744 53.2352 137.658 53.3739C137.578 53.5126 137.538 53.6752 137.538 53.8619C137.538 54.0752 137.592 54.2646 137.698 54.4299C137.805 54.5899 137.96 54.7179 138.162 54.8139C138.37 54.9099 138.626 54.9579 138.93 54.9579ZM156.002 56.2539V51.0059C156.002 50.4139 155.855 49.9526 155.562 49.6219C155.269 49.2859 154.871 49.1179 154.37 49.1179C154.061 49.1179 153.783 49.1899 153.538 49.3339C153.293 49.4726 153.098 49.6806 152.954 49.9579C152.81 50.2299 152.738 50.5552 152.738 50.9339L151.882 50.4299C151.877 49.8326 152.01 49.3072 152.282 48.8539C152.559 48.3952 152.933 48.0379 153.402 47.7819C153.871 47.5259 154.394 47.3979 154.97 47.3979C155.925 47.3979 156.655 47.6859 157.162 48.2619C157.674 48.8326 157.93 49.5846 157.93 50.5179V56.2539H156.002ZM145.61 56.2539V47.6139H147.314V50.2939H147.554V56.2539H145.61ZM150.818 56.2539V51.0299C150.818 50.4272 150.671 49.9579 150.378 49.6219C150.085 49.2859 149.685 49.1179 149.178 49.1179C148.687 49.1179 148.293 49.2859 147.994 49.6219C147.701 49.9579 147.554 50.3952 147.554 50.9339L146.69 50.3579C146.69 49.7979 146.829 49.2939 147.106 48.8459C147.383 48.3979 147.757 48.0459 148.226 47.7899C148.701 47.5286 149.231 47.3979 149.818 47.3979C150.463 47.3979 151.002 47.5366 151.434 47.8139C151.871 48.0859 152.197 48.4592 152.41 48.9339C152.629 49.4032 152.738 49.9339 152.738 50.5259V56.2539H150.818ZM164.081 56.4939C163.206 56.4939 162.438 56.3046 161.777 55.9259C161.116 55.5472 160.598 55.0219 160.225 54.3499C159.857 53.6779 159.673 52.9046 159.673 52.0299C159.673 51.0859 159.854 50.2672 160.217 49.5739C160.58 48.8752 161.084 48.3339 161.729 47.9499C162.374 47.5659 163.121 47.3739 163.969 47.3739C164.865 47.3739 165.625 47.5846 166.249 48.0059C166.878 48.4219 167.345 49.0112 167.649 49.7739C167.953 50.5366 168.068 51.4352 167.993 52.4699H166.081V51.7659C166.076 50.8272 165.91 50.1419 165.585 49.7099C165.26 49.2779 164.748 49.0619 164.049 49.0619C163.26 49.0619 162.673 49.3072 162.289 49.7979C161.905 50.2832 161.713 50.9952 161.713 51.9339C161.713 52.8086 161.905 53.4859 162.289 53.9659C162.673 54.4459 163.233 54.6859 163.969 54.6859C164.444 54.6859 164.852 54.5819 165.193 54.3739C165.54 54.1606 165.806 53.8539 165.993 53.4539L167.897 54.0299C167.566 54.8086 167.054 55.4139 166.361 55.8459C165.673 56.2779 164.913 56.4939 164.081 56.4939ZM161.105 52.4699V51.0139H167.049V52.4699H161.105Z" fill="#1A1A1A"/>
<path d="M185.613 58.5609C190.201 58.5609 193.92 54.8416 193.92 50.2536C193.92 45.6656 190.201 41.9463 185.613 41.9463C181.025 41.9463 177.305 45.6656 177.305 50.2536C177.305 54.8416 181.025 58.5609 185.613 58.5609Z" stroke="#1A1A1A" stroke-width="2.07682" stroke-linecap="round" stroke-linejoin="round"/>
<path d="M185.613 46.5605V50.2527" stroke="#1A1A1A" stroke-width="2.07682" stroke-linecap="round" stroke-linejoin="round"/>
<path d="M185.613 53.9463H185.622" stroke="#1A1A1A" stroke-width="2.76909" stroke-linecap="round" stroke-linejoin="round"/>
<path d="M1532.7 51.6382C1533.46 51.6382 1534.08 51.0184 1534.08 50.2537C1534.08 49.489 1533.46 48.8691 1532.7 48.8691C1531.93 48.8691 1531.31 49.489 1531.31 50.2537C1531.31 51.0184 1531.93 51.6382 1532.7 51.6382Z" stroke="#1A1A1A" stroke-width="2.76909" stroke-linecap="round" stroke-linejoin="round"/>
<path d="M1542.39 51.6382C1543.15 51.6382 1543.77 51.0184 1543.77 50.2537C1543.77 49.489 1543.15 48.8691 1542.39 48.8691C1541.62 48.8691 1541 49.489 1541 50.2537C1541 51.0184 1541.62 51.6382 1542.39 51.6382Z" stroke="#1A1A1A" stroke-width="2.76909" stroke-linecap="round" stroke-linejoin="round"/>
<path d="M1552.08 51.6382C1552.84 51.6382 1553.46 51.0184 1553.46 50.2537C1553.46 49.489 1552.84 48.8691 1552.08 48.8691C1551.31 48.8691 1550.69 49.489 1550.69 50.2537C1550.69 51.0184 1551.31 51.6382 1552.08 51.6382Z" stroke="#1A1A1A" stroke-width="2.76909" stroke-linecap="round" stroke-linejoin="round"/>
<path d="M135 202.554C135 199.974 135 198.684 135.422 197.666C135.984 196.309 137.062 195.231 138.419 194.669C139.437 194.247 140.727 194.247 143.307 194.247H158.622C161.202 194.247 162.493 194.247 163.51 194.669C164.867 195.231 165.946 196.309 166.508 197.666C166.929 198.684 166.929 199.974 166.929 202.554V363.162H135V202.554Z" fill="#3B8F85"/>
<path d="M179.701 170.71C179.701 168.129 179.701 166.839 180.122 165.821C180.685 164.464 181.763 163.386 183.12 162.824C184.137 162.402 185.428 162.402 188.008 162.402H203.323C205.903 162.402 207.193 162.402 208.211 162.824C209.568 163.386 210.646 164.464 211.208 165.821C211.63 166.839 211.63 168.129 211.63 170.71V363.162H179.701V170.71Z" fill="#FFA500"/>
<path d="M225.114 356.826C225.114 354.245 225.114 352.955 225.536 351.937C226.098 350.58 227.176 349.502 228.533 348.94C229.551 348.519 230.841 348.519 233.422 348.519H248.911C251.491 348.519 252.782 348.519 253.799 348.94C255.156 349.502 256.235 350.58 256.797 351.937C257.218 352.955 257.218 354.245 257.218 356.826V363.519H225.114V356.826Z" fill="#DBEAFE"/>
<path d="M352.118 228.86C352.118 226.28 352.118 224.989 352.54 223.972C353.102 222.615 354.18 221.536 355.537 220.974C356.555 220.553 357.845 220.553 360.426 220.553H375.74C378.321 220.553 379.611 220.553 380.629 220.974C381.986 221.536 383.064 222.615 383.626 223.972C384.048 224.989 384.048 226.28 384.048 228.86V363.161H352.118V228.86Z" fill="#3B8F85"/>
<path d="M396.819 143.018C396.819 140.438 396.819 139.148 397.241 138.13C397.803 136.773 398.881 135.695 400.238 135.133C401.256 134.711 402.546 134.711 405.127 134.711H420.441C423.022 134.711 424.312 134.711 425.33 135.133C426.687 135.695 427.765 136.773 428.327 138.13C428.749 139.148 428.749 140.438 428.749 143.018V363.161H396.819V143.018Z" fill="#FFA500"/>
<path d="M441.281 356.826C441.281 354.245 441.281 352.955 441.703 351.937C442.265 350.58 443.343 349.502 444.7 348.94C445.718 348.519 447.008 348.519 449.588 348.519H465.078C467.658 348.519 468.948 348.519 469.966 348.94C471.323 349.502 472.401 350.58 472.963 351.937C473.385 352.955 473.385 354.245 473.385 356.826V363.519H441.281V356.826Z" fill="#DBEAFE"/>
<path d="M569.237 309.165C569.237 306.584 569.237 305.294 569.659 304.276C570.221 302.919 571.299 301.841 572.656 301.279C573.674 300.857 574.964 300.857 577.544 300.857H592.859C595.439 300.857 596.73 300.857 597.747 301.279C599.104 301.841 600.182 302.919 600.745 304.276C601.166 305.294 601.166 306.584 601.166 309.165V363.162H569.237V309.165Z" fill="#3B8F85"/>
<path d="M613.938 220.553C613.938 217.973 613.938 216.683 614.359 215.665C614.921 214.308 616 213.23 617.357 212.668C618.374 212.246 619.665 212.246 622.245 212.246H637.56C640.14 212.246 641.43 212.246 642.448 212.668C643.805 213.23 644.883 214.308 645.445 215.665C645.867 216.683 645.867 217.973 645.867 220.553V363.162H613.938V220.553Z" fill="#FFA500"/>
<path d="M659.588 356.826C659.588 354.245 659.588 352.955 660.01 351.937C660.572 350.58 661.65 349.502 663.007 348.94C664.025 348.519 665.315 348.519 667.895 348.519H681.245C683.825 348.519 685.115 348.519 686.133 348.94C687.49 349.502 688.568 350.58 689.13 351.937C689.552 352.955 689.552 354.245 689.552 356.826V363.519H659.588V356.826Z" fill="#DBEAFE"/>
<path d="M783.162 162.403C783.162 159.823 783.162 158.532 783.584 157.515C784.146 156.158 785.224 155.079 786.581 154.517C787.599 154.096 788.889 154.096 791.47 154.096H806.784C809.365 154.096 810.655 154.096 811.673 154.517C813.03 155.079 814.108 156.158 814.67 157.515C815.092 158.532 815.092 159.823 815.092 162.403V363.162H783.162V162.403Z" fill="#3B8F85"/>
<path d="M827.863 122.251C827.863 119.67 827.863 118.38 828.285 117.362C828.847 116.005 829.925 114.927 831.282 114.365C832.3 113.943 833.59 113.943 836.171 113.943H851.485C854.066 113.943 855.356 113.943 856.374 114.365C857.731 114.927 858.809 116.005 859.371 117.362C859.792 118.38 859.792 119.67 859.792 122.251V363.162H827.863V122.251Z" fill="#FFA500"/>
<path d="M873.615 356.826C873.615 354.245 873.615 352.955 874.036 351.937C874.598 350.58 875.676 349.502 877.033 348.94C878.051 348.519 879.341 348.519 881.922 348.519H895.271C897.852 348.519 899.142 348.519 900.16 348.94C901.517 349.502 902.595 350.58 903.157 351.937C903.578 352.955 903.578 354.245 903.578 356.826V363.519H873.615V356.826Z" fill="#DBEAFE"/>
<path d="M1003.47 162.402C1003.47 159.822 1003.47 158.531 1003.9 157.514C1004.46 156.157 1005.54 155.078 1006.89 154.516C1007.91 154.095 1009.2 154.095 1011.78 154.095H1027.1C1029.68 154.095 1030.97 154.095 1031.98 154.516C1033.34 155.078 1034.42 156.157 1034.98 157.514C1035.4 158.531 1035.4 159.822 1035.4 162.402V363.161H1003.47V162.402Z" fill="#3B8F85"/>
<path d="M1048.17 209.476C1048.17 206.896 1048.17 205.606 1048.6 204.588C1049.16 203.231 1050.24 202.153 1051.59 201.591C1052.61 201.169 1053.9 201.169 1056.48 201.169H1071.8C1074.38 201.169 1075.67 201.169 1076.69 201.591C1078.04 202.153 1079.12 203.231 1079.68 204.588C1080.1 205.606 1080.1 206.896 1080.1 209.476V363.161H1048.17V209.476Z" fill="#FFA500"/>
<path d="M1092.88 197.015C1092.88 194.435 1092.88 193.145 1093.3 192.127C1093.86 190.77 1094.94 189.692 1096.29 189.13C1097.31 188.708 1098.6 188.708 1101.18 188.708H1116.5C1119.08 188.708 1120.37 188.708 1121.39 189.13C1122.74 189.692 1123.82 190.77 1124.38 192.127C1124.8 193.145 1124.8 194.435 1124.8 197.015V363.161H1092.88V197.015Z" fill="#DBEAFE"/>
<path d="M1220.59 202.554C1220.59 199.974 1220.59 198.684 1221.01 197.666C1221.58 196.309 1222.65 195.231 1224.01 194.669C1225.03 194.247 1226.32 194.247 1228.9 194.247H1244.21C1246.79 194.247 1248.08 194.247 1249.1 194.669C1250.46 195.231 1251.54 196.309 1252.1 197.666C1252.52 198.684 1252.52 199.974 1252.52 202.554V363.162H1220.59V202.554Z" fill="#3B8F85"/>
<path d="M1265.29 309.165C1265.29 306.584 1265.29 305.294 1265.71 304.276C1266.28 302.919 1267.36 301.841 1268.71 301.279C1269.73 300.857 1271.02 300.857 1273.6 300.857H1288.92C1291.5 300.857 1292.79 300.857 1293.8 301.279C1295.16 301.841 1296.24 302.919 1296.8 304.276C1297.22 305.294 1297.22 306.584 1297.22 309.165V363.162H1265.29V309.165Z" fill="#FFA500"/>
<path d="M1310.23 356.826C1310.23 354.245 1310.23 352.955 1310.65 351.937C1311.21 350.58 1312.29 349.502 1313.65 348.94C1314.67 348.519 1315.96 348.519 1318.54 348.519H1334.03C1336.61 348.519 1337.9 348.519 1338.91 348.94C1340.27 349.502 1341.35 350.58 1341.91 351.937C1342.33 352.955 1342.33 354.245 1342.33 356.826V363.519H1310.23V356.826Z" fill="#DBEAFE"/>
<path d="M1437.71 122.251C1437.71 119.67 1437.71 118.38 1438.13 117.362C1438.69 116.005 1439.77 114.927 1441.13 114.365C1442.15 113.943 1443.44 113.943 1446.02 113.943H1461.33C1463.91 113.943 1465.2 113.943 1466.22 114.365C1467.58 114.927 1468.66 116.005 1469.22 117.362C1469.64 118.38 1469.64 119.67 1469.64 122.251V363.162H1437.71V122.251Z" fill="#3B8F85"/>
<path d="M1482.41 152.711C1482.41 150.13 1482.41 148.84 1482.83 147.822C1483.4 146.465 1484.47 145.387 1485.83 144.825C1486.85 144.403 1488.14 144.403 1490.72 144.403H1506.03C1508.61 144.403 1509.9 144.403 1510.92 144.825C1512.28 145.387 1513.36 146.465 1513.92 147.822C1514.34 148.84 1514.34 150.13 1514.34 152.711V363.162H1482.41V152.711Z" fill="#FFA500"/>
<path d="M1526.4 356.826C1526.4 354.245 1526.4 352.955 1526.82 351.937C1527.38 350.58 1528.46 349.502 1529.81 348.94C1530.83 348.519 1532.12 348.519 1534.7 348.519H1550.19C1552.77 348.519 1554.06 348.519 1555.08 348.94C1556.44 349.502 1557.52 350.58 1558.08 351.937C1558.5 352.955 1558.5 354.245 1558.5 356.826V363.519H1526.4V356.826Z" fill="#DBEAFE"/>
</svg>
