<svg width="422" height="308" viewBox="0 0 422 308" fill="none" xmlns="http://www.w3.org/2000/svg">
<g clip-path="url(#clip0_29_169)">
<rect x="7.80676" y="7.75525" width="406.508" height="293.341" rx="12.0426" fill="white"/>
<rect x="37.0529" y="36.1416" width="100.813" height="13.1195" rx="6.55974" fill="#E5E8F0"/>
<rect x="37.0529" y="58.2376" width="172.625" height="10.3575" rx="5.17875" fill="#E5E8F0"/>
<line x1="37.0529" y1="92.6015" x2="594.454" y2="92.6014" stroke="#E5E8F0" stroke-width="0.624365"/>
<g clip-path="url(#clip1_29_169)">
<line x1="69.5951" y1="116.206" x2="344.933" y2="116.206" stroke="#9EA5BD" stroke-width="0.312182"/>
<line x1="69.595" y1="140.556" x2="344.933" y2="140.556" stroke="#9EA5BD" stroke-width="0.312182"/>
<line x1="69.595" y1="165.53" x2="344.933" y2="165.53" stroke="#9EA5BD" stroke-width="0.312182"/>
<line x1="69.595" y1="190.505" x2="344.933" y2="190.505" stroke="#9EA5BD" stroke-width="0.312182"/>
<line x1="69.595" y1="215.48" x2="344.933" y2="215.48" stroke="#9EA5BD" stroke-width="0.312182"/>
<line x1="69.595" y1="240.454" x2="344.933" y2="240.454" stroke="#9EA5BD" stroke-width="0.312182"/>
<rect x="27.1377" y="110.118" width="35.2677" height="7.74168" rx="3.87084" fill="#E5E8F0"/>
<rect x="27.1377" y="135.667" width="35.2677" height="7.74168" rx="3.87084" fill="#E5E8F0"/>
<rect x="28.8583" y="161.216" width="33.5473" height="7.74168" rx="3.87084" fill="#E5E8F0"/>
<rect x="28.8583" y="186.765" width="33.5473" height="7.74168" rx="3.87084" fill="#E5E8F0"/>
<rect x="32.2987" y="212.314" width="30.1065" height="7.74168" rx="3.87084" fill="#E5E8F0"/>
<rect x="51.223" y="237.863" width="11.1824" height="7.74168" rx="3.87084" fill="#E5E8F0"/>
<rect x="75.584" y="171.917" width="22.1261" height="21.2284" rx="0.936547" fill="#8FBFF6"/>
<rect x="75.5837" y="193.769" width="22.1261" height="29.3451" rx="0.936547" fill="#5598E6"/>
<rect x="75.5837" y="223.739" width="22.1261" height="21.8528" rx="0.936547" fill="#5A78E5"/>
<rect x="79.7887" y="261.201" width="13.7174" height="6.8815" rx="3.44075" fill="#E5E8F0"/>
<rect x="109.689" y="160.054" width="22.1261" height="14.3604" rx="0.936547" fill="#8FBFF6"/>
<rect x="109.689" y="175.039" width="22.1261" height="38.7106" rx="0.936547" fill="#5598E6"/>
<rect x="109.689" y="214.374" width="22.1261" height="31.2182" rx="0.936547" fill="#5A78E5"/>
<rect x="113.894" y="261.201" width="13.7174" height="6.8815" rx="3.44075" fill="#E5E8F0"/>
<rect x="143.795" y="149.439" width="22.1261" height="21.8528" rx="0.936547" fill="#8FBFF6"/>
<rect x="143.795" y="171.917" width="22.1261" height="53.071" rx="0.936547" fill="#5598E6"/>
<rect x="143.795" y="225.612" width="22.1261" height="19.9797" rx="0.936547" fill="#5A78E5"/>
<rect x="147.618" y="261.201" width="14.4795" height="6.8815" rx="3.44075" fill="#E5E8F0"/>
<rect x="177.899" y="166.297" width="22.1261" height="21.2284" rx="0.936547" fill="#8FBFF6"/>
<rect x="177.899" y="188.15" width="22.1261" height="23.1015" rx="0.936547" fill="#5598E6"/>
<rect x="177.899" y="211.876" width="22.1261" height="33.7157" rx="0.936547" fill="#5A78E5"/>
<rect x="182.486" y="261.2" width="12.9553" height="6.8815" rx="3.44075" fill="#E5E8F0"/>
<rect x="212.006" y="138.201" width="22.1261" height="25.599" rx="0.936547" fill="#8FBFF6"/>
<rect x="212.006" y="164.424" width="22.1261" height="36.2132" rx="0.936547" fill="#5598E6"/>
<rect x="212.006" y="201.262" width="22.1261" height="44.3299" rx="0.936547" fill="#5A78E5"/>
<rect x="215.067" y="261.201" width="16.0036" height="6.8815" rx="3.44075" fill="#E5E8F0"/>
<rect x="246.11" y="134.455" width="22.1261" height="35.5888" rx="0.936547" fill="#8FBFF6"/>
<rect x="246.11" y="170.668" width="22.1261" height="36.2132" rx="0.936547" fill="#5598E6"/>
<rect x="246.11" y="207.506" width="22.1261" height="38.0863" rx="0.936547" fill="#5A78E5"/>
<rect x="250.314" y="261.201" width="13.7174" height="6.8815" rx="3.44075" fill="#E5E8F0"/>
<rect x="280.215" y="166.297" width="22.1261" height="31.8426" rx="0.936547" fill="#8FBFF6"/>
<rect x="280.214" y="198.764" width="22.1261" height="12.4873" rx="0.936547" fill="#5598E6"/>
<rect x="280.214" y="211.876" width="22.1261" height="33.7157" rx="0.936547" fill="#5A78E5"/>
<rect x="283.657" y="261.201" width="15.2416" height="6.8815" rx="3.44075" fill="#E5E8F0"/>
<rect x="314.32" y="183.155" width="22.1261" height="14.3604" rx="0.936547" fill="#8FBFF6"/>
<rect x="314.32" y="198.14" width="22.1261" height="19.9797" rx="0.936547" fill="#5598E6"/>
<rect x="314.32" y="218.744" width="22.1261" height="26.8477" rx="0.936547" fill="#5A78E5"/>
<rect x="318.144" y="261.201" width="14.4795" height="6.8815" rx="3.44075" fill="#E5E8F0"/>
<circle cx="362.949" cy="113.559" r="2.49746" fill="#8FBFF6"/>
<rect x="370.608" y="110.118" width="22.3649" height="6.8815" rx="3.44075" fill="#E5E8F0"/>
<circle cx="362.949" cy="125.435" r="2.49746" fill="#5598E6"/>
<rect x="370.608" y="121.994" width="18.0639" height="6.8815" rx="3.44075" fill="#E5E8F0"/>
<circle cx="362.949" cy="137.311" r="2.49746" fill="#5A78E5"/>
<rect x="370.608" y="133.871" width="24.9454" height="6.8815" rx="3.44075" fill="#E5E8F0"/>
</g>
</g>
<rect x="4.36601" y="4.3145" width="413.39" height="300.223" rx="15.4834" stroke="url(#paint0_linear_29_169)" stroke-opacity="0.32" stroke-width="6.8815"/>
<defs>
<linearGradient id="paint0_linear_29_169" x1="222.131" y1="301.096" x2="222.131" y2="37.9099" gradientUnits="userSpaceOnUse">
<stop stop-color="#5F73F9" stop-opacity="0.46"/>
<stop offset="1" stop-color="#ABB5F8" stop-opacity="0"/>
</linearGradient>
<clipPath id="clip0_29_169">
<rect x="7.80676" y="7.75525" width="406.508" height="293.341" rx="12.0426" fill="white"/>
</clipPath>
<clipPath id="clip1_29_169">
<rect width="368.416" height="157.964" fill="white" transform="translate(27.1377 110.118)"/>
</clipPath>
</defs>
</svg>
