<svg width="1622" height="505" viewBox="0 0 1622 505" fill="none" xmlns="http://www.w3.org/2000/svg">
<rect x="0.293701" y="0.384766" width="1621.41" height="503.975" rx="16.6146" fill="white"/>
<path d="M50.9161 52.9688V37.0188H57.5066C57.6617 37.0188 57.861 37.0262 58.1047 37.0409C58.3484 37.0483 58.5736 37.0705 58.7804 37.1074C59.7034 37.2477 60.464 37.5541 61.0621 38.0267C61.6676 38.4993 62.1144 39.0974 62.4023 39.8211C62.6977 40.5374 62.8454 41.3349 62.8454 42.2136C62.8454 43.5132 62.5168 44.6319 61.8596 45.5697C61.2024 46.5001 60.1945 47.0761 58.8358 47.2976L57.6949 47.3973H53.5855V52.9688H50.9161ZM60.0763 52.9688L56.9306 46.478L59.6443 45.8799L63.1002 52.9688H60.0763ZM53.5855 44.9051H57.3958C57.5435 44.9051 57.7097 44.8978 57.8943 44.883C58.0789 44.8682 58.2487 44.8387 58.4038 44.7944C58.8468 44.6836 59.1939 44.4879 59.445 44.2073C59.7034 43.9267 59.8843 43.6092 59.9877 43.2548C60.0985 42.9003 60.1538 42.5533 60.1538 42.2136C60.1538 41.8739 60.0985 41.5269 59.9877 41.1724C59.8843 40.8106 59.7034 40.4894 59.445 40.2088C59.1939 39.9282 58.8468 39.7325 58.4038 39.6217C58.2487 39.5774 58.0789 39.5516 57.8943 39.5442C57.7097 39.5294 57.5435 39.522 57.3958 39.522H53.5855V44.9051ZM69.1624 53.301C68.2984 53.301 67.5674 53.1386 66.9693 52.8137C66.3711 52.4814 65.917 52.042 65.6069 51.4956C65.3041 50.9492 65.1527 50.3473 65.1527 49.6901C65.1527 49.1142 65.2487 48.5973 65.4407 48.1394C65.6327 47.6742 65.9281 47.2755 66.3268 46.9432C66.7256 46.6035 67.2425 46.3266 67.8775 46.1125C68.3575 45.9574 68.9187 45.8171 69.5611 45.6916C70.211 45.566 70.9125 45.4516 71.6657 45.3482C72.4262 45.2374 73.22 45.1193 74.0471 44.9938L73.0945 45.5365C73.1019 44.7095 72.9173 44.1003 72.5407 43.7089C72.1641 43.3175 71.529 43.1219 70.6356 43.1219C70.0965 43.1219 69.5759 43.2474 69.0738 43.4984C68.5717 43.7495 68.2209 44.1815 68.0215 44.7944L65.5847 44.0301C65.8801 43.0185 66.4413 42.2062 67.2683 41.5933C68.1028 40.9804 69.2252 40.674 70.6356 40.674C71.6989 40.674 72.633 40.8475 73.4379 41.1946C74.2501 41.5416 74.852 42.1102 75.2433 42.9003C75.4575 43.3212 75.5867 43.7532 75.631 44.1963C75.6753 44.6319 75.6975 45.1082 75.6975 45.6251V52.9688H73.3603V50.3769L73.748 50.7978C73.209 51.6617 72.5776 52.2968 71.854 52.7029C71.1377 53.1017 70.2405 53.301 69.1624 53.301ZM69.6941 51.1744C70.2996 51.1744 70.8165 51.0673 71.2448 50.8532C71.673 50.639 72.0127 50.3769 72.2638 50.0667C72.5222 49.7566 72.6958 49.4649 72.7844 49.1917C72.9247 48.852 73.0022 48.4644 73.017 48.0287C73.0391 47.5856 73.0502 47.2275 73.0502 46.9543L73.8699 47.198C73.065 47.3235 72.3745 47.4343 71.7986 47.5302C71.2226 47.6262 70.7279 47.7185 70.3143 47.8072C69.9008 47.8884 69.5353 47.9807 69.2178 48.0841C68.9076 48.1948 68.6455 48.3241 68.4314 48.4717C68.2172 48.6194 68.0511 48.7893 67.9329 48.9813C67.8222 49.1732 67.7668 49.3985 67.7668 49.6569C67.7668 49.9523 67.8406 50.2144 67.9883 50.4433C68.136 50.6649 68.3501 50.8421 68.6307 50.975C68.9187 51.1079 69.2732 51.1744 69.6941 51.1744ZM79.0796 39.1897V36.7419H81.749V39.1897H79.0796ZM79.0796 52.9688V41.0063H81.749V52.9688H79.0796ZM93.6178 52.9688V47.209C93.6178 46.8324 93.592 46.4152 93.5403 45.9574C93.4886 45.4996 93.3668 45.0602 93.1748 44.6393C92.9902 44.211 92.7096 43.8603 92.333 43.5871C91.9638 43.3138 91.4616 43.1772 90.8266 43.1772C90.4869 43.1772 90.1509 43.2326 89.8186 43.3434C89.4863 43.4541 89.1836 43.6461 88.9104 43.9193C88.6445 44.1852 88.4304 44.5544 88.2679 45.027C88.1055 45.4922 88.0243 46.0903 88.0243 46.8214L86.4403 46.1457C86.4403 45.1267 86.636 44.2036 87.0274 43.3766C87.4261 42.5496 88.0095 41.8924 88.7774 41.405C89.5454 40.9103 90.4906 40.6629 91.613 40.6629C92.4991 40.6629 93.2302 40.8106 93.8061 41.1059C94.3821 41.4013 94.8399 41.7779 95.1796 42.2357C95.5193 42.6936 95.7703 43.1809 95.9328 43.6978C96.0952 44.2147 96.1986 44.7058 96.2429 45.171C96.2946 45.6288 96.3205 46.0017 96.3205 46.2897V52.9688H93.6178ZM85.3216 52.9688V41.0063H87.703V44.7168H88.0243V52.9688H85.3216Z" fill="#1A1A1A"/>
<path d="M114.98 52.7747C119.568 52.7747 123.287 49.0554 123.287 44.4674C123.287 39.8795 119.568 36.1602 114.98 36.1602C110.392 36.1602 106.673 39.8795 106.673 44.4674C106.673 49.0554 110.392 52.7747 114.98 52.7747Z" stroke="#1A1A1A" stroke-width="2.07682" stroke-linecap="round" stroke-linejoin="round"/>
<path d="M114.98 40.7744V44.4665" stroke="#1A1A1A" stroke-width="2.07682" stroke-linecap="round" stroke-linejoin="round"/>
<path d="M114.98 48.1602H114.989" stroke="#1A1A1A" stroke-width="2.76909" stroke-linecap="round" stroke-linejoin="round"/>
<rect x="1429.36" y="23.161" width="138.615" height="42.6155" rx="10.3841" stroke="#E2E8F0" stroke-width="1.38455"/>
<path d="M1441.3 49.4688V39.3887H1442.76V49.4688H1441.3ZM1453.92 49.4688L1453.93 44.7577C1453.93 44.2117 1453.79 43.7871 1453.51 43.4837C1453.23 43.1757 1452.86 43.0217 1452.4 43.0217C1452.12 43.0217 1451.87 43.0871 1451.63 43.2177C1451.4 43.3437 1451.22 43.5351 1451.07 43.7917C1450.93 44.0437 1450.86 44.3611 1450.86 44.7437L1450.16 44.3867C1450.15 43.8547 1450.26 43.3881 1450.49 42.9867C1450.73 42.5854 1451.05 42.2751 1451.46 42.0557C1451.86 41.8317 1452.32 41.7198 1452.82 41.7198C1453.64 41.7198 1454.27 41.9647 1454.72 42.4547C1455.17 42.9447 1455.39 43.5957 1455.39 44.4077L1455.38 49.4688H1453.92ZM1444.86 49.4688V41.9087H1446.16V44.0927H1446.33V49.4688H1444.86ZM1449.39 49.4688L1449.4 44.7857C1449.4 44.2351 1449.26 43.8034 1448.98 43.4907C1448.7 43.1781 1448.33 43.0217 1447.87 43.0217C1447.4 43.0217 1447.03 43.1804 1446.75 43.4977C1446.47 43.8151 1446.33 44.2304 1446.33 44.7437L1445.63 44.2957C1445.63 43.8011 1445.75 43.3601 1445.98 42.9727C1446.22 42.5854 1446.54 42.2797 1446.95 42.0557C1447.36 41.8317 1447.82 41.7198 1448.33 41.7198C1448.87 41.7198 1449.32 41.8341 1449.7 42.0627C1450.08 42.2867 1450.37 42.6017 1450.56 43.0077C1450.76 43.4137 1450.86 43.8851 1450.86 44.4217L1450.86 49.4688H1449.39ZM1460.76 49.6788C1460.04 49.6788 1459.43 49.5038 1458.94 49.1537C1458.45 48.7991 1458.08 48.3207 1457.83 47.7188C1457.57 47.1167 1457.45 46.4377 1457.45 45.6817C1457.45 44.9257 1457.57 44.2467 1457.82 43.6447C1458.07 43.0427 1458.44 42.5691 1458.92 42.2237C1459.41 41.8737 1460.02 41.6987 1460.73 41.6987C1461.44 41.6987 1462.05 41.8737 1462.56 42.2237C1463.08 42.5691 1463.48 43.0427 1463.76 43.6447C1464.04 44.2421 1464.18 44.9211 1464.18 45.6817C1464.18 46.4377 1464.04 47.1191 1463.76 47.7257C1463.49 48.3277 1463.09 48.8037 1462.58 49.1537C1462.07 49.5038 1461.46 49.6788 1460.76 49.6788ZM1457.2 52.8288V41.9087H1458.5V47.3477H1458.67V52.8288H1457.2ZM1460.56 48.3557C1461.02 48.3557 1461.41 48.2367 1461.71 47.9987C1462.02 47.7607 1462.25 47.4411 1462.4 47.0397C1462.55 46.6337 1462.63 46.1811 1462.63 45.6817C1462.63 45.1871 1462.55 44.7391 1462.4 44.3377C1462.25 43.9364 1462.02 43.6167 1461.7 43.3787C1461.39 43.1407 1460.99 43.0217 1460.51 43.0217C1460.05 43.0217 1459.67 43.1337 1459.37 43.3577C1459.08 43.5817 1458.86 43.8944 1458.71 44.2957C1458.57 44.6971 1458.5 45.1591 1458.5 45.6817C1458.5 46.2044 1458.57 46.6664 1458.71 47.0677C1458.85 47.4691 1459.08 47.7841 1459.38 48.0127C1459.68 48.2414 1460.08 48.3557 1460.56 48.3557ZM1465.73 49.4688V41.9087H1467.03V43.7427L1466.85 43.5047C1466.94 43.2621 1467.06 43.0404 1467.21 42.8397C1467.36 42.6344 1467.53 42.4664 1467.73 42.3357C1467.92 42.1957 1468.13 42.0884 1468.37 42.0137C1468.6 41.9344 1468.85 41.8877 1469.09 41.8737C1469.34 41.8551 1469.58 41.8667 1469.81 41.9087V43.2807C1469.56 43.2154 1469.29 43.1967 1468.98 43.2247C1468.68 43.2527 1468.41 43.3484 1468.16 43.5117C1467.92 43.6657 1467.73 43.8524 1467.59 44.0717C1467.45 44.2911 1467.36 44.5361 1467.3 44.8067C1467.23 45.0727 1467.2 45.3551 1467.2 45.6537V49.4688H1465.73ZM1474.36 49.6788C1473.61 49.6788 1472.95 49.5154 1472.38 49.1887C1471.81 48.8574 1471.37 48.3977 1471.05 47.8097C1470.74 47.2171 1470.58 46.5311 1470.58 45.7517C1470.58 44.9257 1470.74 44.2094 1471.05 43.6027C1471.36 42.9961 1471.79 42.5271 1472.35 42.1957C1472.9 41.8644 1473.55 41.6987 1474.29 41.6987C1475.06 41.6987 1475.71 41.8784 1476.25 42.2378C1476.8 42.5924 1477.2 43.0987 1477.47 43.7567C1477.74 44.4147 1477.84 45.1964 1477.79 46.1017H1476.32V45.5697C1476.32 44.6924 1476.15 44.0437 1475.82 43.6237C1475.5 43.2037 1475.01 42.9937 1474.34 42.9937C1473.61 42.9937 1473.06 43.2247 1472.69 43.6867C1472.32 44.1487 1472.14 44.8161 1472.14 45.6887C1472.14 46.5194 1472.32 47.1634 1472.69 47.6208C1473.06 48.0734 1473.59 48.2997 1474.29 48.2997C1474.74 48.2997 1475.14 48.1971 1475.47 47.9917C1475.81 47.7817 1476.07 47.4831 1476.25 47.0957L1477.69 47.5507C1477.4 48.2274 1476.95 48.7524 1476.35 49.1257C1475.76 49.4944 1475.09 49.6788 1474.36 49.6788ZM1471.66 46.1017V44.9607H1477.06V46.1017H1471.66ZM1482.25 49.6718C1481.33 49.6718 1480.58 49.4688 1480 49.0627C1479.42 48.6567 1479.07 48.0851 1478.94 47.3477L1480.44 47.1167C1480.53 47.5087 1480.74 47.8191 1481.08 48.0477C1481.42 48.2717 1481.84 48.3837 1482.35 48.3837C1482.8 48.3837 1483.16 48.2904 1483.42 48.1037C1483.68 47.9171 1483.81 47.6604 1483.81 47.3337C1483.81 47.1424 1483.76 46.9884 1483.67 46.8717C1483.58 46.7504 1483.39 46.6361 1483.1 46.5287C1482.81 46.4214 1482.37 46.2884 1481.78 46.1297C1481.13 45.9617 1480.62 45.7821 1480.23 45.5907C1479.86 45.3947 1479.58 45.1684 1479.42 44.9117C1479.26 44.6504 1479.18 44.3354 1479.18 43.9667C1479.18 43.5094 1479.3 43.1104 1479.55 42.7697C1479.79 42.4291 1480.13 42.1654 1480.57 41.9787C1481.01 41.7921 1481.53 41.6987 1482.12 41.6987C1482.7 41.6987 1483.22 41.7897 1483.67 41.9717C1484.12 42.1537 1484.49 42.4127 1484.77 42.7487C1485.05 43.0801 1485.22 43.4697 1485.27 43.9177L1483.78 44.1907C1483.72 43.8267 1483.55 43.5397 1483.26 43.3297C1482.97 43.1197 1482.6 43.0054 1482.14 42.9867C1481.69 42.9681 1481.33 43.0427 1481.06 43.2107C1480.78 43.3741 1480.65 43.6004 1480.65 43.8897C1480.65 44.0577 1480.7 44.2001 1480.8 44.3167C1480.91 44.4334 1481.11 44.5454 1481.42 44.6527C1481.72 44.7601 1482.17 44.8884 1482.76 45.0377C1483.39 45.2011 1483.9 45.3831 1484.27 45.5837C1484.65 45.7797 1484.91 46.0154 1485.07 46.2907C1485.23 46.5614 1485.32 46.8904 1485.32 47.2777C1485.32 48.0244 1485.04 48.6101 1484.5 49.0347C1483.95 49.4594 1483.21 49.6718 1482.25 49.6718ZM1489.75 49.6718C1488.84 49.6718 1488.09 49.4688 1487.51 49.0627C1486.93 48.6567 1486.57 48.0851 1486.44 47.3477L1487.94 47.1167C1488.04 47.5087 1488.25 47.8191 1488.59 48.0477C1488.93 48.2717 1489.35 48.3837 1489.85 48.3837C1490.31 48.3837 1490.67 48.2904 1490.92 48.1037C1491.19 47.9171 1491.32 47.6604 1491.32 47.3337C1491.32 47.1424 1491.27 46.9884 1491.18 46.8717C1491.09 46.7504 1490.9 46.6361 1490.61 46.5287C1490.32 46.4214 1489.88 46.2884 1489.29 46.1297C1488.64 45.9617 1488.12 45.7821 1487.74 45.5907C1487.36 45.3947 1487.09 45.1684 1486.93 44.9117C1486.77 44.6504 1486.69 44.3354 1486.69 43.9667C1486.69 43.5094 1486.81 43.1104 1487.05 42.7697C1487.3 42.4291 1487.64 42.1654 1488.07 41.9787C1488.52 41.7921 1489.04 41.6987 1489.63 41.6987C1490.21 41.6987 1490.72 41.7897 1491.18 41.9717C1491.63 42.1537 1491.99 42.4127 1492.27 42.7487C1492.55 43.0801 1492.72 43.4697 1492.78 43.9177L1491.28 44.1907C1491.23 43.8267 1491.06 43.5397 1490.77 43.3297C1490.48 43.1197 1490.1 43.0054 1489.64 42.9867C1489.2 42.9681 1488.84 43.0427 1488.56 43.2107C1488.29 43.3741 1488.15 43.6004 1488.15 43.8897C1488.15 44.0577 1488.2 44.2001 1488.31 44.3167C1488.41 44.4334 1488.62 44.5454 1488.92 44.6527C1489.23 44.7601 1489.67 44.8884 1490.27 45.0377C1490.9 45.2011 1491.4 45.3831 1491.78 45.5837C1492.15 45.7797 1492.42 46.0154 1492.58 46.2907C1492.74 46.5614 1492.82 46.8904 1492.82 47.2777C1492.82 48.0244 1492.55 48.6101 1492 49.0347C1491.46 49.4594 1490.71 49.6718 1489.75 49.6718ZM1494.51 40.6697V39.2487H1495.97V40.6697H1494.51ZM1494.51 49.4688V41.9087H1495.97V49.4688H1494.51ZM1501.36 49.6788C1500.6 49.6788 1499.95 49.5084 1499.39 49.1677C1498.84 48.8271 1498.41 48.3581 1498.1 47.7607C1497.8 47.1587 1497.65 46.4657 1497.65 45.6817C1497.65 44.8931 1497.81 44.2001 1498.12 43.6027C1498.42 43.0007 1498.86 42.5341 1499.41 42.2027C1499.97 41.8667 1500.62 41.6987 1501.36 41.6987C1502.11 41.6987 1502.77 41.8691 1503.32 42.2097C1503.88 42.5504 1504.31 43.0194 1504.61 43.6167C1504.92 44.2141 1505.07 44.9024 1505.07 45.6817C1505.07 46.4704 1504.91 47.1657 1504.61 47.7677C1504.3 48.3651 1503.87 48.8341 1503.32 49.1747C1502.76 49.5107 1502.11 49.6788 1501.36 49.6788ZM1501.36 48.2997C1502.08 48.2997 1502.62 48.0571 1502.97 47.5717C1503.33 47.0817 1503.51 46.4517 1503.51 45.6817C1503.51 44.8931 1503.33 44.2631 1502.97 43.7917C1502.61 43.3157 1502.07 43.0777 1501.36 43.0777C1500.87 43.0777 1500.46 43.1897 1500.15 43.4137C1499.83 43.6331 1499.59 43.9387 1499.44 44.3307C1499.29 44.7181 1499.21 45.1684 1499.21 45.6817C1499.21 46.4751 1499.39 47.1097 1499.75 47.5857C1500.12 48.0617 1500.65 48.2997 1501.36 48.2997ZM1511.91 49.4688V45.7517C1511.91 45.4577 1511.89 45.1567 1511.84 44.8487C1511.79 44.5361 1511.7 44.2467 1511.56 43.9807C1511.42 43.7147 1511.23 43.5001 1510.97 43.3367C1510.73 43.1734 1510.4 43.0917 1510 43.0917C1509.74 43.0917 1509.49 43.1361 1509.26 43.2247C1509.03 43.3087 1508.82 43.4464 1508.64 43.6377C1508.47 43.8291 1508.33 44.0811 1508.23 44.3937C1508.13 44.7064 1508.08 45.0867 1508.08 45.5347L1507.17 45.1917C1507.17 44.5057 1507.3 43.9014 1507.56 43.3787C1507.81 42.8514 1508.18 42.4407 1508.66 42.1467C1509.14 41.8527 1509.73 41.7057 1510.41 41.7057C1510.93 41.7057 1511.37 41.7897 1511.72 41.9577C1512.08 42.1257 1512.36 42.3474 1512.58 42.6227C1512.81 42.8934 1512.98 43.1897 1513.1 43.5117C1513.21 43.8337 1513.29 44.1487 1513.33 44.4567C1513.38 44.7647 1513.4 45.0354 1513.4 45.2687V49.4688H1511.91ZM1506.6 49.4688V41.9087H1507.91V44.0927H1508.08V49.4688H1506.6ZM1518.11 49.6718C1517.19 49.6718 1516.44 49.4688 1515.86 49.0627C1515.28 48.6567 1514.93 48.0851 1514.8 47.3477L1516.3 47.1167C1516.39 47.5087 1516.61 47.8191 1516.94 48.0477C1517.28 48.2717 1517.7 48.3837 1518.21 48.3837C1518.67 48.3837 1519.02 48.2904 1519.28 48.1037C1519.54 47.9171 1519.67 47.6604 1519.67 47.3337C1519.67 47.1424 1519.62 46.9884 1519.53 46.8717C1519.44 46.7504 1519.25 46.6361 1518.96 46.5287C1518.68 46.4214 1518.23 46.2884 1517.64 46.1297C1516.99 45.9617 1516.48 45.7821 1516.09 45.5907C1515.72 45.3947 1515.45 45.1684 1515.28 44.9117C1515.12 44.6504 1515.04 44.3354 1515.04 43.9667C1515.04 43.5094 1515.17 43.1104 1515.41 42.7697C1515.65 42.4291 1515.99 42.1654 1516.43 41.9787C1516.87 41.7921 1517.39 41.6987 1517.98 41.6987C1518.56 41.6987 1519.08 41.7897 1519.53 41.9717C1519.98 42.1537 1520.35 42.4127 1520.63 42.7487C1520.91 43.0801 1521.08 43.4697 1521.13 43.9177L1519.64 44.1907C1519.59 43.8267 1519.41 43.5397 1519.13 43.3297C1518.84 43.1197 1518.46 43.0054 1518 42.9867C1517.56 42.9681 1517.2 43.0427 1516.92 43.2107C1516.65 43.3741 1516.51 43.6004 1516.51 43.8897C1516.51 44.0577 1516.56 44.2001 1516.66 44.3167C1516.77 44.4334 1516.97 44.5454 1517.28 44.6527C1517.58 44.7601 1518.03 44.8884 1518.62 45.0377C1519.26 45.2011 1519.76 45.3831 1520.13 45.5837C1520.51 45.7797 1520.77 46.0154 1520.93 46.2907C1521.09 46.5614 1521.18 46.8904 1521.18 47.2777C1521.18 48.0244 1520.9 48.6101 1520.36 49.0347C1519.82 49.4594 1519.07 49.6718 1518.11 49.6718Z" fill="#1A1A1A"/>
<path d="M1540.98 41.7002L1546.52 47.2384L1552.05 41.7002" stroke="#1A1A1A" stroke-width="2.76909" stroke-linecap="round" stroke-linejoin="round"/>
<path d="M65.4425 128.629C64.6948 128.629 64.033 128.48 63.457 128.181C62.8866 127.881 62.438 127.463 62.1113 126.926C61.79 126.383 61.6294 125.749 61.6294 125.024C61.6294 124.282 61.8094 123.623 62.1694 123.047C62.5294 122.465 63.0777 122.025 63.8143 121.726L63.7976 122.208C63.1829 121.981 62.7149 121.609 62.3937 121.094C62.0725 120.579 61.9119 120.009 61.9119 119.383C61.9119 118.719 62.0642 118.148 62.3688 117.672C62.6734 117.19 63.0888 116.819 63.6149 116.559C64.1465 116.298 64.7557 116.168 65.4425 116.168C66.1292 116.168 66.7384 116.298 67.2701 116.559C67.8018 116.819 68.2199 117.19 68.5245 117.672C68.8291 118.148 68.9814 118.719 68.9814 119.383C68.9814 120.009 68.8263 120.577 68.5162 121.086C68.2116 121.596 67.7436 121.969 67.1122 122.208L67.0707 121.726C67.8073 122.019 68.3583 122.457 68.7239 123.038C69.0949 123.62 69.2804 124.282 69.2804 125.024C69.2804 125.749 69.1171 126.383 68.7903 126.926C68.4636 127.463 68.0122 127.881 67.4362 128.181C66.8603 128.48 66.1957 128.629 65.4425 128.629ZM65.4425 127.458C66.1957 127.458 66.8076 127.25 67.2784 126.835C67.7491 126.414 67.9845 125.81 67.9845 125.024C67.9845 124.226 67.7519 123.623 67.2867 123.213C66.8215 122.797 66.2068 122.59 65.4425 122.59C64.6782 122.59 64.0662 122.797 63.6066 123.213C63.1469 123.623 62.9171 124.226 62.9171 125.024C62.9171 125.81 63.1497 126.414 63.6149 126.835C64.0801 127.25 64.6893 127.458 65.4425 127.458ZM65.4425 121.41C66.1071 121.41 66.647 121.241 67.0624 120.903C67.4778 120.56 67.6855 120.053 67.6855 119.383C67.6855 118.713 67.4778 118.212 67.0624 117.879C66.647 117.542 66.1071 117.373 65.4425 117.373C64.7779 117.373 64.2379 117.542 63.8226 117.879C63.4127 118.212 63.2078 118.713 63.2078 119.383C63.2078 120.053 63.4127 120.56 63.8226 120.903C64.2379 121.241 64.7779 121.41 65.4425 121.41ZM82.1331 128.38L82.1414 122.49C82.1414 121.798 81.9476 121.255 81.5599 120.862C81.1778 120.463 80.6904 120.264 80.0978 120.264C79.76 120.264 79.4305 120.341 79.1093 120.496C78.788 120.651 78.5222 120.901 78.3118 121.244C78.1069 121.587 78.0044 122.036 78.0044 122.59L77.2817 122.382C77.265 121.74 77.3897 121.177 77.6555 120.696C77.9269 120.214 78.2979 119.84 78.7687 119.574C79.2449 119.303 79.7822 119.167 80.3803 119.167C81.283 119.167 82.0057 119.447 82.5485 120.006C83.0912 120.56 83.3626 121.31 83.3626 122.257L83.3543 128.38H82.1331ZM71.425 128.38V119.408H72.5216V121.618H72.6545V128.38H71.425ZM76.7915 128.38L76.7998 122.573C76.7998 121.859 76.6088 121.297 76.2266 120.887C75.85 120.471 75.3516 120.264 74.7313 120.264C74.111 120.264 73.6098 120.477 73.2277 120.903C72.8456 121.324 72.6545 121.886 72.6545 122.59L71.9235 122.191C71.9235 121.615 72.0591 121.1 72.3305 120.646C72.6019 120.186 72.973 119.826 73.4437 119.566C73.9144 119.3 74.4489 119.167 75.047 119.167C75.6174 119.167 76.1242 119.289 76.5672 119.533C77.0158 119.776 77.3675 120.131 77.6223 120.596C77.877 121.061 78.0044 121.626 78.0044 122.291L77.9961 128.38H76.7915ZM96.2166 128.38L96.2249 122.49C96.2249 121.798 96.031 121.255 95.6434 120.862C95.2612 120.463 94.7739 120.264 94.1813 120.264C93.8434 120.264 93.5139 120.341 93.1927 120.496C92.8715 120.651 92.6057 120.901 92.3952 121.244C92.1903 121.587 92.0878 122.036 92.0878 122.59L91.3651 122.382C91.3485 121.74 91.4731 121.177 91.7389 120.696C92.0103 120.214 92.3814 119.84 92.8521 119.574C93.3284 119.303 93.8656 119.167 94.4637 119.167C95.3664 119.167 96.0892 119.447 96.6319 120.006C97.1747 120.56 97.446 121.31 97.446 122.257L97.4377 128.38H96.2166ZM85.5085 128.38V119.408H86.605V121.618H86.7379V128.38H85.5085ZM90.875 128.38L90.8833 122.573C90.8833 121.859 90.6922 121.297 90.3101 120.887C89.9335 120.471 89.435 120.264 88.8148 120.264C88.1945 120.264 87.6933 120.477 87.3111 120.903C86.929 121.324 86.7379 121.886 86.7379 122.59L86.0069 122.191C86.0069 121.615 86.1426 121.1 86.414 120.646C86.6853 120.186 87.0564 119.826 87.5271 119.566C87.9979 119.3 88.5323 119.167 89.1304 119.167C89.7009 119.167 90.2076 119.289 90.6507 119.533C91.0993 119.776 91.4509 120.131 91.7057 120.596C91.9605 121.061 92.0878 121.626 92.0878 122.291L92.0795 128.38H90.875Z" fill="#1A1A1A"/>
<path d="M65.176 203.913C64.4283 203.913 63.7472 203.733 63.1324 203.373C62.5232 203.008 62.0359 202.515 61.6703 201.895C61.3103 201.269 61.1304 200.565 61.1304 199.785V195.639C61.1304 194.836 61.3103 194.122 61.6703 193.496C62.0303 192.865 62.5204 192.369 63.1407 192.009C63.7665 191.643 64.4754 191.461 65.2674 191.461C65.9486 191.461 66.5799 191.61 67.1614 191.909C67.7485 192.208 68.2275 192.626 68.5986 193.164L67.6599 193.936C67.4051 193.537 67.0673 193.219 66.6464 192.981C66.2255 192.743 65.7658 192.624 65.2674 192.624C64.708 192.624 64.2096 192.759 63.7721 193.031C63.3346 193.302 62.9912 193.659 62.742 194.102C62.4928 194.54 62.3681 195.016 62.3681 195.531V198.14L62.0608 197.791C62.4097 197.243 62.8666 196.799 63.4315 196.462C64.0019 196.124 64.6222 195.955 65.2923 195.955C66.0344 195.955 66.7018 196.132 67.2944 196.487C67.8869 196.835 68.3577 197.309 68.7066 197.907C69.0555 198.505 69.23 199.175 69.23 199.917C69.23 200.654 69.0444 201.324 68.6734 201.928C68.3079 202.532 67.8177 203.013 67.203 203.373C66.5938 203.733 65.9181 203.913 65.176 203.913ZM65.176 202.725C65.6966 202.725 66.1701 202.601 66.5966 202.352C67.0285 202.102 67.3691 201.764 67.6183 201.338C67.8731 200.912 68.0005 200.438 68.0005 199.917C68.0005 199.397 67.8731 198.923 67.6183 198.497C67.3691 198.065 67.0313 197.724 66.6049 197.475C66.1784 197.22 65.7049 197.093 65.1843 197.093C64.6637 197.093 64.1902 197.22 63.7638 197.475C63.3373 197.724 62.9967 198.065 62.742 198.497C62.4928 198.923 62.3681 199.397 62.3681 199.917C62.3681 200.433 62.4928 200.903 62.742 201.33C62.9912 201.756 63.329 202.097 63.7555 202.352C64.1819 202.601 64.6554 202.725 65.176 202.725ZM82.1331 203.664L82.1414 197.774C82.1414 197.082 81.9476 196.539 81.5599 196.146C81.1778 195.747 80.6904 195.548 80.0978 195.548C79.76 195.548 79.4305 195.625 79.1093 195.78C78.788 195.936 78.5222 196.185 78.3118 196.528C78.1069 196.871 78.0044 197.32 78.0044 197.874L77.2817 197.666C77.265 197.024 77.3897 196.462 77.6555 195.98C77.9269 195.498 78.2979 195.124 78.7687 194.858C79.245 194.587 79.7822 194.451 80.3803 194.451C81.283 194.451 82.0057 194.731 82.5485 195.29C83.0912 195.844 83.3626 196.595 83.3626 197.542L83.3543 203.664H82.1331ZM71.425 203.664V194.692H72.5216V196.902H72.6545V203.664H71.425ZM76.7915 203.664L76.7998 197.857C76.7998 197.143 76.6088 196.581 76.2266 196.171C75.85 195.756 75.3516 195.548 74.7313 195.548C74.111 195.548 73.6098 195.761 73.2277 196.188C72.8456 196.608 72.6545 197.171 72.6545 197.874L71.9235 197.475C71.9235 196.899 72.0592 196.384 72.3305 195.93C72.6019 195.47 72.973 195.11 73.4437 194.85C73.9144 194.584 74.4489 194.451 75.047 194.451C75.6174 194.451 76.1242 194.573 76.5672 194.817C77.0158 195.06 77.3675 195.415 77.6223 195.88C77.877 196.345 78.0044 196.91 78.0044 197.575L77.9961 203.664H76.7915ZM96.2166 203.664L96.2249 197.774C96.2249 197.082 96.031 196.539 95.6434 196.146C95.2612 195.747 94.7739 195.548 94.1813 195.548C93.8434 195.548 93.5139 195.625 93.1927 195.78C92.8715 195.936 92.6057 196.185 92.3952 196.528C92.1903 196.871 92.0878 197.32 92.0878 197.874L91.3651 197.666C91.3485 197.024 91.4731 196.462 91.7389 195.98C92.0103 195.498 92.3814 195.124 92.8521 194.858C93.3284 194.587 93.8656 194.451 94.4637 194.451C95.3664 194.451 96.0892 194.731 96.6319 195.29C97.1747 195.844 97.446 196.595 97.446 197.542L97.4377 203.664H96.2166ZM85.5085 203.664V194.692H86.605V196.902H86.7379V203.664H85.5085ZM90.875 203.664L90.8833 197.857C90.8833 197.143 90.6922 196.581 90.3101 196.171C89.9335 195.756 89.435 195.548 88.8148 195.548C88.1945 195.548 87.6933 195.761 87.3111 196.188C86.929 196.608 86.7379 197.171 86.7379 197.874L86.0069 197.475C86.0069 196.899 86.1426 196.384 86.414 195.93C86.6853 195.47 87.0564 195.11 87.5271 194.85C87.9979 194.584 88.5323 194.451 89.1304 194.451C89.7009 194.451 90.2076 194.573 90.6507 194.817C91.0993 195.06 91.4509 195.415 91.7057 195.88C91.9605 196.345 92.0878 196.91 92.0878 197.575L92.0795 203.664H90.875Z" fill="#1A1A1A"/>
<path d="M66.9002 278.948V276.631H61.301V275.467L65.3052 266.986H66.6759L62.6717 275.467H66.9002V271.978H68.1296V275.467H69.4339V276.631H68.1296V278.948H66.9002ZM82.1331 278.948L82.1414 273.058C82.1414 272.366 81.9476 271.823 81.5599 271.43C81.1778 271.031 80.6904 270.832 80.0978 270.832C79.76 270.832 79.4305 270.91 79.1093 271.065C78.788 271.22 78.5222 271.469 78.3118 271.812C78.1069 272.156 78.0044 272.604 78.0044 273.158L77.2817 272.95C77.265 272.308 77.3897 271.746 77.6555 271.264C77.9269 270.782 78.2979 270.408 78.7687 270.143C79.2449 269.871 79.7822 269.735 80.3803 269.735C81.283 269.735 82.0057 270.015 82.5485 270.575C83.0912 271.128 83.3626 271.879 83.3626 272.826L83.3543 278.948H82.1331ZM71.425 278.948V269.976H72.5216V272.186H72.6545V278.948H71.425ZM76.7915 278.948L76.7998 273.141C76.7998 272.427 76.6088 271.865 76.2266 271.455C75.85 271.04 75.3516 270.832 74.7313 270.832C74.111 270.832 73.6098 271.045 73.2277 271.472C72.8456 271.893 72.6545 272.455 72.6545 273.158L71.9235 272.759C71.9235 272.183 72.0592 271.668 72.3305 271.214C72.6019 270.754 72.973 270.395 73.4437 270.134C73.9144 269.868 74.4489 269.735 75.047 269.735C75.6174 269.735 76.1242 269.857 76.5672 270.101C77.0158 270.345 77.3675 270.699 77.6223 271.164C77.877 271.63 78.0044 272.194 78.0044 272.859L77.9961 278.948H76.7915ZM96.2166 278.948L96.2249 273.058C96.2249 272.366 96.031 271.823 95.6434 271.43C95.2612 271.031 94.7739 270.832 94.1813 270.832C93.8434 270.832 93.5139 270.91 93.1927 271.065C92.8715 271.22 92.6057 271.469 92.3952 271.812C92.1903 272.156 92.0878 272.604 92.0878 273.158L91.3651 272.95C91.3485 272.308 91.4731 271.746 91.7389 271.264C92.0103 270.782 92.3814 270.408 92.8521 270.143C93.3284 269.871 93.8656 269.735 94.4637 269.735C95.3664 269.735 96.0892 270.015 96.6319 270.575C97.1747 271.128 97.446 271.879 97.446 272.826L97.4377 278.948H96.2166ZM85.5085 278.948V269.976H86.605V272.186H86.7379V278.948H85.5085ZM90.875 278.948L90.8833 273.141C90.8833 272.427 90.6922 271.865 90.3101 271.455C89.9335 271.04 89.435 270.832 88.8148 270.832C88.1945 270.832 87.6933 271.045 87.3111 271.472C86.929 271.893 86.7379 272.455 86.7379 273.158L86.0069 272.759C86.0069 272.183 86.1426 271.668 86.414 271.214C86.6853 270.754 87.0564 270.395 87.5271 270.134C87.9979 269.868 88.5323 269.735 89.1304 269.735C89.7009 269.735 90.2076 269.857 90.6507 270.101C91.0993 270.345 91.4509 270.699 91.7057 271.164C91.9605 271.63 92.0878 272.194 92.0878 272.859L92.0795 278.948H90.875Z" fill="#1A1A1A"/>
<path d="M61.6256 354.225L61.6339 353.112L67.0419 348.227C67.5071 347.806 67.8145 347.408 67.964 347.031C68.1191 346.649 68.1966 346.25 68.1966 345.835C68.1966 345.342 68.0803 344.896 67.8477 344.497C67.6151 344.099 67.3022 343.783 66.909 343.55C66.5158 343.312 66.0755 343.193 65.5881 343.193C65.0786 343.193 64.6245 343.315 64.2257 343.559C63.827 343.802 63.5113 344.123 63.2787 344.522C63.0516 344.921 62.9409 345.356 62.9464 345.826H61.7003C61.7003 345.101 61.872 344.45 62.2154 343.874C62.5587 343.298 63.0239 342.847 63.611 342.52C64.198 342.188 64.8626 342.022 65.6047 342.022C66.3302 342.022 66.981 342.193 67.557 342.537C68.1385 342.875 68.5954 343.334 68.9277 343.916C69.2655 344.492 69.4344 345.134 69.4344 345.843C69.4344 346.341 69.3735 346.782 69.2516 347.164C69.1353 347.54 68.9498 347.892 68.695 348.219C68.4458 348.54 68.1274 348.872 67.7397 349.216L62.9381 353.552L62.747 353.054H69.4344V354.225H61.6256ZM82.1331 354.233L82.1414 348.344C82.1414 347.651 81.9476 347.109 81.5599 346.715C81.1778 346.317 80.6904 346.117 80.0978 346.117C79.76 346.117 79.4305 346.195 79.1093 346.35C78.7881 346.505 78.5222 346.754 78.3118 347.097C78.1069 347.441 78.0044 347.889 78.0044 348.443L77.2817 348.236C77.265 347.593 77.3897 347.031 77.6555 346.549C77.9269 346.067 78.2979 345.694 78.7687 345.428C79.245 345.156 79.7822 345.021 80.3803 345.021C81.283 345.021 82.0057 345.3 82.5485 345.86C83.0912 346.413 83.3626 347.164 83.3626 348.111L83.3543 354.233H82.1331ZM71.425 354.233V345.262H72.5216V347.471H72.6545V354.233H71.425ZM76.7915 354.233L76.7998 348.427C76.7998 347.712 76.6088 347.15 76.2266 346.74C75.85 346.325 75.3516 346.117 74.7313 346.117C74.1111 346.117 73.6098 346.33 73.2277 346.757C72.8456 347.178 72.6545 347.74 72.6545 348.443L71.9235 348.044C71.9235 347.469 72.0592 346.953 72.3305 346.499C72.6019 346.04 72.973 345.68 73.4437 345.419C73.9144 345.154 74.4489 345.021 75.047 345.021C75.6174 345.021 76.1242 345.142 76.5672 345.386C77.0158 345.63 77.3675 345.984 77.6223 346.449C77.877 346.915 78.0044 347.48 78.0044 348.144L77.9961 354.233H76.7915ZM96.2166 354.233L96.2249 348.344C96.2249 347.651 96.031 347.109 95.6434 346.715C95.2612 346.317 94.7739 346.117 94.1813 346.117C93.8434 346.117 93.5139 346.195 93.1927 346.35C92.8715 346.505 92.6057 346.754 92.3952 347.097C92.1903 347.441 92.0878 347.889 92.0878 348.443L91.3651 348.236C91.3485 347.593 91.4731 347.031 91.7389 346.549C92.0103 346.067 92.3814 345.694 92.8521 345.428C93.3284 345.156 93.8656 345.021 94.4637 345.021C95.3664 345.021 96.0892 345.3 96.6319 345.86C97.1747 346.413 97.446 347.164 97.446 348.111L97.4377 354.233H96.2166ZM85.5085 354.233V345.262H86.605V347.471H86.7379V354.233H85.5085ZM90.875 354.233L90.8833 348.427C90.8833 347.712 90.6922 347.15 90.3101 346.74C89.9335 346.325 89.435 346.117 88.8148 346.117C88.1945 346.117 87.6933 346.33 87.3111 346.757C86.929 347.178 86.7379 347.74 86.7379 348.443L86.0069 348.044C86.0069 347.469 86.1426 346.953 86.414 346.499C86.6853 346.04 87.0564 345.68 87.5271 345.419C87.9979 345.154 88.5323 345.021 89.1304 345.021C89.7009 345.021 90.2076 345.142 90.6507 345.386C91.0993 345.63 91.4509 345.984 91.7057 346.449C91.9605 346.915 92.0878 347.48 92.0878 348.144L92.0795 354.233H90.875Z" fill="#1A1A1A"/>
<path d="M93.3639 429.767C92.6273 429.767 91.9627 429.595 91.3702 429.252C90.7831 428.908 90.3179 428.443 89.9745 427.856C89.6312 427.264 89.4595 426.599 89.4595 425.862V421.21C89.4595 420.474 89.6312 419.812 89.9745 419.225C90.3179 418.632 90.7831 418.164 91.3702 417.821C91.9627 417.478 92.6273 417.306 93.3639 417.306C94.1005 417.306 94.7623 417.478 95.3494 417.821C95.9419 418.164 96.4099 418.632 96.7533 419.225C97.0967 419.812 97.2683 420.474 97.2683 421.21V425.862C97.2683 426.599 97.0967 427.264 96.7533 427.856C96.4099 428.443 95.9419 428.908 95.3494 429.252C94.7623 429.595 94.1005 429.767 93.3639 429.767ZM93.3639 428.587C93.8568 428.587 94.3054 428.468 94.7097 428.23C95.114 427.986 95.4352 427.662 95.6733 427.258C95.9115 426.854 96.0305 426.408 96.0305 425.921V421.152C96.0305 420.659 95.9115 420.211 95.6733 419.806C95.4352 419.402 95.114 419.081 94.7097 418.843C94.3054 418.599 93.8568 418.477 93.3639 418.477C92.871 418.477 92.4224 418.599 92.0181 418.843C91.6138 419.081 91.2926 419.402 91.0545 419.806C90.8163 420.211 90.6973 420.659 90.6973 421.152V425.921C90.6973 426.408 90.8163 426.854 91.0545 427.258C91.2926 427.662 91.6138 427.986 92.0181 428.23C92.4224 428.468 92.871 428.587 93.3639 428.587Z" fill="#1A1A1A"/>
<path d="M148.672 464.478V452.515H152.302C152.43 452.515 152.646 452.518 152.95 452.523C153.26 452.529 153.557 452.551 153.839 452.59C154.747 452.717 155.506 453.055 156.115 453.603C156.725 454.152 157.181 454.849 157.486 455.697C157.791 456.544 157.943 457.477 157.943 458.496C157.943 459.515 157.791 460.449 157.486 461.296C157.181 462.143 156.725 462.841 156.115 463.389C155.506 463.938 154.747 464.275 153.839 464.403C153.562 464.436 153.266 464.458 152.95 464.469C152.635 464.475 152.419 464.478 152.302 464.478H148.672ZM149.935 463.306H152.302C152.529 463.306 152.773 463.301 153.033 463.29C153.299 463.273 153.526 463.245 153.715 463.207C154.412 463.085 154.974 462.802 155.401 462.359C155.833 461.916 156.149 461.362 156.348 460.698C156.547 460.028 156.647 459.294 156.647 458.496C156.647 457.693 156.547 456.957 156.348 456.287C156.149 455.616 155.833 455.063 155.401 454.625C154.969 454.188 154.407 453.908 153.715 453.786C153.526 453.747 153.296 453.722 153.025 453.711C152.759 453.695 152.518 453.686 152.302 453.686H149.935V463.306ZM163.631 464.727C162.756 464.727 161.998 464.533 161.355 464.145C160.718 463.758 160.223 463.212 159.868 462.509C159.514 461.805 159.336 460.98 159.336 460.033C159.336 459.053 159.511 458.206 159.86 457.491C160.209 456.777 160.699 456.226 161.33 455.838C161.967 455.45 162.718 455.256 163.581 455.256C164.468 455.256 165.224 455.461 165.849 455.871C166.475 456.275 166.949 456.857 167.27 457.616C167.591 458.374 167.738 459.28 167.71 460.332H166.464V459.9C166.442 458.737 166.19 457.859 165.708 457.267C165.232 456.674 164.534 456.378 163.615 456.378C162.651 456.378 161.912 456.691 161.397 457.317C160.887 457.942 160.632 458.834 160.632 459.992C160.632 461.121 160.887 461.999 161.397 462.625C161.912 463.245 162.64 463.555 163.581 463.555C164.224 463.555 164.783 463.409 165.26 463.115C165.741 462.816 166.121 462.387 166.398 461.828L167.536 462.268C167.181 463.049 166.658 463.655 165.966 464.087C165.279 464.514 164.501 464.727 163.631 464.727ZM160.2 460.332V459.31H167.054V460.332H160.2ZM173.275 464.727C172.373 464.727 171.608 464.525 170.983 464.12C170.357 463.716 169.881 463.159 169.554 462.451C169.233 461.736 169.066 460.916 169.055 459.992C169.066 459.05 169.238 458.225 169.57 457.516C169.903 456.802 170.382 456.248 171.008 455.855C171.633 455.456 172.392 455.256 173.284 455.256C174.192 455.256 174.981 455.478 175.651 455.921C176.327 456.364 176.789 456.971 177.039 457.74L175.842 458.122C175.632 457.585 175.297 457.17 174.837 456.876C174.383 456.577 173.862 456.428 173.275 456.428C172.616 456.428 172.071 456.58 171.639 456.885C171.207 457.184 170.886 457.602 170.675 458.139C170.465 458.676 170.357 459.294 170.351 459.992C170.362 461.066 170.612 461.93 171.099 462.583C171.586 463.231 172.312 463.555 173.275 463.555C173.885 463.555 174.402 463.417 174.829 463.14C175.261 462.858 175.588 462.448 175.809 461.911L177.039 462.276C176.706 463.074 176.219 463.683 175.577 464.104C174.934 464.519 174.167 464.727 173.275 464.727ZM181.747 464.469L181.756 463.356L187.164 458.471C187.629 458.05 187.936 457.652 188.086 457.275C188.241 456.893 188.318 456.494 188.318 456.079C188.318 455.586 188.202 455.14 187.969 454.741C187.737 454.343 187.424 454.027 187.031 453.794C186.638 453.556 186.197 453.437 185.71 453.437C185.2 453.437 184.746 453.559 184.347 453.803C183.949 454.046 183.633 454.368 183.4 454.766C183.173 455.165 183.063 455.6 183.068 456.071H181.822C181.822 455.345 181.994 454.694 182.337 454.118C182.68 453.542 183.146 453.091 183.733 452.764C184.32 452.432 184.984 452.266 185.726 452.266C186.452 452.266 187.103 452.438 187.679 452.781C188.26 453.119 188.717 453.578 189.049 454.16C189.387 454.736 189.556 455.378 189.556 456.087C189.556 456.586 189.495 457.026 189.373 457.408C189.257 457.785 189.072 458.136 188.817 458.463C188.568 458.784 188.249 459.117 187.861 459.46L183.06 463.796L182.869 463.298H189.556V464.469H181.747ZM196.497 464.478V462.16H190.898V460.997L194.902 452.515H196.273L192.269 460.997H196.497V457.508H197.727V460.997H199.031V462.16H197.727V464.478H196.497Z" fill="#1A1A1A"/>
<path d="M344.976 464.478V452.515H348.606C348.733 452.515 348.949 452.518 349.254 452.523C349.564 452.529 349.86 452.551 350.143 452.59C351.051 452.717 351.81 453.055 352.419 453.603C353.028 454.152 353.485 454.849 353.79 455.697C354.094 456.544 354.247 457.477 354.247 458.496C354.247 459.515 354.094 460.449 353.79 461.296C353.485 462.143 353.028 462.841 352.419 463.389C351.81 463.938 351.051 464.275 350.143 464.403C349.866 464.436 349.57 464.458 349.254 464.469C348.938 464.475 348.722 464.478 348.606 464.478H344.976ZM346.238 463.306H348.606C348.833 463.306 349.077 463.301 349.337 463.29C349.603 463.273 349.83 463.245 350.018 463.207C350.716 463.085 351.278 462.802 351.705 462.359C352.137 461.916 352.452 461.362 352.652 460.698C352.851 460.028 352.951 459.294 352.951 458.496C352.951 457.693 352.851 456.957 352.652 456.287C352.452 455.616 352.137 455.063 351.705 454.625C351.273 454.188 350.71 453.908 350.018 453.786C349.83 453.747 349.6 453.722 349.329 453.711C349.063 453.695 348.822 453.686 348.606 453.686H346.238V463.306ZM359.935 464.727C359.06 464.727 358.301 464.533 357.659 464.145C357.022 463.758 356.526 463.212 356.172 462.509C355.817 461.805 355.64 460.98 355.64 460.033C355.64 459.053 355.815 458.206 356.163 457.491C356.512 456.777 357.002 456.226 357.634 455.838C358.271 455.45 359.021 455.256 359.885 455.256C360.771 455.256 361.527 455.461 362.153 455.871C362.779 456.275 363.252 456.857 363.574 457.616C363.895 458.374 364.042 459.28 364.014 460.332H362.768V459.9C362.746 458.737 362.494 457.859 362.012 457.267C361.536 456.674 360.838 456.378 359.918 456.378C358.955 456.378 358.215 456.691 357.7 457.317C357.191 457.942 356.936 458.834 356.936 459.992C356.936 461.121 357.191 461.999 357.7 462.625C358.215 463.245 358.944 463.555 359.885 463.555C360.528 463.555 361.087 463.409 361.563 463.115C362.045 462.816 362.424 462.387 362.701 461.828L363.839 462.268C363.485 463.049 362.962 463.655 362.269 464.087C361.583 464.514 360.804 464.727 359.935 464.727ZM356.504 460.332V459.31H363.358V460.332H356.504ZM369.579 464.727C368.676 464.727 367.912 464.525 367.286 464.12C366.66 463.716 366.184 463.159 365.857 462.451C365.536 461.736 365.37 460.916 365.359 459.992C365.37 459.05 365.542 458.225 365.874 457.516C366.206 456.802 366.685 456.248 367.311 455.855C367.937 455.456 368.696 455.256 369.587 455.256C370.496 455.256 371.285 455.478 371.955 455.921C372.631 456.364 373.093 456.971 373.342 457.74L372.146 458.122C371.936 457.585 371.601 457.17 371.141 456.876C370.687 456.577 370.166 456.428 369.579 456.428C368.92 456.428 368.375 456.58 367.943 456.885C367.511 457.184 367.189 457.602 366.979 458.139C366.768 458.676 366.66 459.294 366.655 459.992C366.666 461.066 366.915 461.93 367.403 462.583C367.89 463.231 368.615 463.555 369.579 463.555C370.188 463.555 370.706 463.417 371.133 463.14C371.565 462.858 371.891 462.448 372.113 461.911L373.342 462.276C373.01 463.074 372.523 463.683 371.88 464.104C371.238 464.519 370.471 464.727 369.579 464.727ZM378.051 464.469L378.059 463.356L383.467 458.471C383.932 458.05 384.24 457.652 384.389 457.275C384.544 456.893 384.622 456.494 384.622 456.079C384.622 455.586 384.506 455.14 384.273 454.741C384.04 454.343 383.728 454.027 383.334 453.794C382.941 453.556 382.501 453.437 382.014 453.437C381.504 453.437 381.05 453.559 380.651 453.803C380.252 454.046 379.937 454.368 379.704 454.766C379.477 455.165 379.366 455.6 379.372 456.071H378.126C378.126 455.345 378.297 454.694 378.641 454.118C378.984 453.542 379.449 453.091 380.036 452.764C380.623 452.432 381.288 452.266 382.03 452.266C382.756 452.266 383.406 452.438 383.982 452.781C384.564 453.119 385.021 453.578 385.353 454.16C385.691 454.736 385.86 455.378 385.86 456.087C385.86 456.586 385.799 457.026 385.677 457.408C385.561 457.785 385.375 458.136 385.12 458.463C384.871 458.784 384.553 459.117 384.165 459.46L379.363 463.796L379.172 463.298H385.86V464.469H378.051ZM391.389 464.727C390.769 464.727 390.196 464.599 389.67 464.345C389.144 464.09 388.695 463.738 388.324 463.29C387.953 462.841 387.687 462.326 387.526 461.744L388.698 461.429C388.803 461.861 388.994 462.235 389.271 462.55C389.548 462.86 389.872 463.101 390.243 463.273C390.62 463.445 391.013 463.531 391.423 463.531C391.954 463.531 392.43 463.403 392.851 463.148C393.278 462.888 393.616 462.545 393.865 462.118C394.114 461.692 394.239 461.224 394.239 460.714C394.239 460.188 394.109 459.715 393.848 459.294C393.588 458.867 393.245 458.53 392.818 458.28C392.392 458.031 391.927 457.906 391.423 457.906C390.858 457.906 390.37 458.031 389.96 458.28C389.551 458.524 389.224 458.831 388.98 459.202L387.867 458.737L388.233 452.515H394.621V453.686H388.773L389.379 453.113L389.055 458.422L388.748 458.014C389.091 457.621 389.506 457.314 389.994 457.092C390.481 456.871 390.993 456.76 391.531 456.76C392.267 456.76 392.932 456.937 393.524 457.292C394.117 457.641 394.588 458.114 394.937 458.712C395.285 459.31 395.46 459.978 395.46 460.714C395.46 461.445 395.274 462.116 394.903 462.725C394.532 463.328 394.039 463.813 393.425 464.178C392.81 464.544 392.131 464.727 391.389 464.727Z" fill="#1A1A1A"/>
<path d="M541.279 464.478V452.515H544.91C545.037 452.515 545.253 452.518 545.558 452.523C545.868 452.529 546.164 452.551 546.446 452.59C547.355 452.717 548.113 453.055 548.723 453.603C549.332 454.152 549.789 454.849 550.093 455.697C550.398 456.544 550.55 457.477 550.55 458.496C550.55 459.515 550.398 460.449 550.093 461.296C549.789 462.143 549.332 462.841 548.723 463.389C548.113 463.938 547.355 464.275 546.446 464.403C546.169 464.436 545.873 464.458 545.558 464.469C545.242 464.475 545.026 464.478 544.91 464.478H541.279ZM542.542 463.306H544.91C545.137 463.306 545.38 463.301 545.641 463.29C545.906 463.273 546.133 463.245 546.322 463.207C547.02 463.085 547.582 462.802 548.008 462.359C548.44 461.916 548.756 461.362 548.955 460.698C549.155 460.028 549.254 459.294 549.254 458.496C549.254 457.693 549.155 456.957 548.955 456.287C548.756 455.616 548.44 455.063 548.008 454.625C547.576 454.188 547.014 453.908 546.322 453.786C546.133 453.747 545.904 453.722 545.632 453.711C545.366 453.695 545.126 453.686 544.91 453.686H542.542V463.306ZM556.239 464.727C555.364 464.727 554.605 464.533 553.962 464.145C553.326 463.758 552.83 463.212 552.475 462.509C552.121 461.805 551.944 460.98 551.944 460.033C551.944 459.053 552.118 458.206 552.467 457.491C552.816 456.777 553.306 456.226 553.937 455.838C554.574 455.45 555.325 455.256 556.189 455.256C557.075 455.256 557.831 455.461 558.457 455.871C559.082 456.275 559.556 456.857 559.877 457.616C560.198 458.374 560.345 459.28 560.317 460.332H559.071V459.9C559.049 458.737 558.797 457.859 558.315 457.267C557.839 456.674 557.141 456.378 556.222 456.378C555.258 456.378 554.519 456.691 554.004 457.317C553.494 457.942 553.24 458.834 553.24 459.992C553.24 461.121 553.494 461.999 554.004 462.625C554.519 463.245 555.247 463.555 556.189 463.555C556.831 463.555 557.391 463.409 557.867 463.115C558.349 462.816 558.728 462.387 559.005 461.828L560.143 462.268C559.789 463.049 559.265 463.655 558.573 464.087C557.886 464.514 557.108 464.727 556.239 464.727ZM552.808 460.332V459.31H559.661V460.332H552.808ZM565.883 464.727C564.98 464.727 564.216 464.525 563.59 464.12C562.964 463.716 562.488 463.159 562.161 462.451C561.84 461.736 561.674 460.916 561.663 459.992C561.674 459.05 561.845 458.225 562.178 457.516C562.51 456.802 562.989 456.248 563.615 455.855C564.241 455.456 564.999 455.256 565.891 455.256C566.799 455.256 567.588 455.478 568.259 455.921C568.934 456.364 569.397 456.971 569.646 457.74L568.45 458.122C568.239 457.585 567.904 457.17 567.444 456.876C566.99 456.577 566.47 456.428 565.883 456.428C565.224 456.428 564.678 456.58 564.246 456.885C563.814 457.184 563.493 457.602 563.283 458.139C563.072 458.676 562.964 459.294 562.959 459.992C562.97 461.066 563.219 461.93 563.706 462.583C564.194 463.231 564.919 463.555 565.883 463.555C566.492 463.555 567.01 463.417 567.436 463.14C567.868 462.858 568.195 462.448 568.416 461.911L569.646 462.276C569.314 463.074 568.826 463.683 568.184 464.104C567.541 464.519 566.774 464.727 565.883 464.727ZM574.355 464.469L574.363 463.356L579.771 458.471C580.236 458.05 580.543 457.652 580.693 457.275C580.848 456.893 580.926 456.494 580.926 456.079C580.926 455.586 580.809 455.14 580.577 454.741C580.344 454.343 580.031 454.027 579.638 453.794C579.245 453.556 578.805 453.437 578.317 453.437C577.808 453.437 577.354 453.559 576.955 453.803C576.556 454.046 576.24 454.368 576.008 454.766C575.781 455.165 575.67 455.6 575.675 456.071H574.429C574.429 455.345 574.601 454.694 574.944 454.118C575.288 453.542 575.753 453.091 576.34 452.764C576.927 452.432 577.592 452.266 578.334 452.266C579.059 452.266 579.71 452.438 580.286 452.781C580.867 453.119 581.324 453.578 581.657 454.16C581.995 454.736 582.163 455.378 582.163 456.087C582.163 456.586 582.102 457.026 581.981 457.408C581.864 457.785 581.679 458.136 581.424 458.463C581.175 458.784 580.856 459.117 580.469 459.46L575.667 463.796L575.476 463.298H582.163V464.469H574.355ZM588.208 464.727C587.46 464.727 586.779 464.547 586.164 464.187C585.555 463.821 585.068 463.328 584.702 462.708C584.342 462.082 584.162 461.379 584.162 460.598V456.453C584.162 455.65 584.342 454.935 584.702 454.309C585.062 453.678 585.552 453.182 586.173 452.822C586.799 452.457 587.507 452.274 588.299 452.274C588.981 452.274 589.612 452.424 590.193 452.723C590.78 453.022 591.26 453.44 591.631 453.977L590.692 454.75C590.437 454.351 590.099 454.033 589.678 453.794C589.257 453.556 588.798 453.437 588.299 453.437C587.74 453.437 587.242 453.573 586.804 453.844C586.367 454.116 586.023 454.473 585.774 454.916C585.525 455.353 585.4 455.83 585.4 456.345V458.953L585.093 458.604C585.442 458.056 585.899 457.613 586.463 457.275C587.034 456.937 587.654 456.768 588.324 456.768C589.066 456.768 589.734 456.946 590.326 457.3C590.919 457.649 591.39 458.122 591.739 458.721C592.088 459.319 592.262 459.989 592.262 460.731C592.262 461.468 592.076 462.138 591.705 462.741C591.34 463.345 590.85 463.827 590.235 464.187C589.626 464.547 588.95 464.727 588.208 464.727ZM588.208 463.539C588.729 463.539 589.202 463.414 589.629 463.165C590.061 462.916 590.401 462.578 590.65 462.151C590.905 461.725 591.032 461.252 591.032 460.731C591.032 460.21 590.905 459.737 590.65 459.31C590.401 458.878 590.063 458.538 589.637 458.289C589.21 458.034 588.737 457.906 588.216 457.906C587.696 457.906 587.222 458.034 586.796 458.289C586.369 458.538 586.029 458.878 585.774 459.31C585.525 459.737 585.4 460.21 585.4 460.731C585.4 461.246 585.525 461.717 585.774 462.143C586.023 462.57 586.361 462.91 586.787 463.165C587.214 463.414 587.687 463.539 588.208 463.539Z" fill="#1A1A1A"/>
<path d="M738.583 464.478V452.515H742.213C742.341 452.515 742.557 452.518 742.861 452.523C743.171 452.529 743.468 452.551 743.75 452.59C744.658 452.717 745.417 453.055 746.026 453.603C746.635 454.152 747.092 454.849 747.397 455.697C747.702 456.544 747.854 457.477 747.854 458.496C747.854 459.515 747.702 460.449 747.397 461.296C747.092 462.143 746.635 462.841 746.026 463.389C745.417 463.938 744.658 464.275 743.75 464.403C743.473 464.436 743.177 464.458 742.861 464.469C742.545 464.475 742.329 464.478 742.213 464.478H738.583ZM739.846 463.306H742.213C742.44 463.306 742.684 463.301 742.944 463.29C743.21 463.273 743.437 463.245 743.625 463.207C744.323 463.085 744.885 462.802 745.312 462.359C745.744 461.916 746.059 461.362 746.259 460.698C746.458 460.028 746.558 459.294 746.558 458.496C746.558 457.693 746.458 456.957 746.259 456.287C746.059 455.616 745.744 455.063 745.312 454.625C744.88 454.188 744.318 453.908 743.625 453.786C743.437 453.747 743.207 453.722 742.936 453.711C742.67 453.695 742.429 453.686 742.213 453.686H739.846V463.306ZM753.542 464.727C752.667 464.727 751.908 464.533 751.266 464.145C750.629 463.758 750.133 463.212 749.779 462.509C749.425 461.805 749.247 460.98 749.247 460.033C749.247 459.053 749.422 458.206 749.771 457.491C750.12 456.777 750.61 456.226 751.241 455.838C751.878 455.45 752.628 455.256 753.492 455.256C754.378 455.256 755.134 455.461 755.76 455.871C756.386 456.275 756.86 456.857 757.181 457.616C757.502 458.374 757.649 459.28 757.621 460.332H756.375V459.9C756.353 458.737 756.101 457.859 755.619 457.267C755.143 456.674 754.445 456.378 753.526 456.378C752.562 456.378 751.823 456.691 751.308 457.317C750.798 457.942 750.543 458.834 750.543 459.992C750.543 461.121 750.798 461.999 751.308 462.625C751.823 463.245 752.551 463.555 753.492 463.555C754.135 463.555 754.694 463.409 755.17 463.115C755.652 462.816 756.032 462.387 756.309 461.828L757.447 462.268C757.092 463.049 756.569 463.655 755.877 464.087C755.19 464.514 754.412 464.727 753.542 464.727ZM750.111 460.332V459.31H756.965V460.332H750.111ZM763.186 464.727C762.284 464.727 761.519 464.525 760.894 464.12C760.268 463.716 759.791 463.159 759.465 462.451C759.143 461.736 758.977 460.916 758.966 459.992C758.977 459.05 759.149 458.225 759.481 457.516C759.814 456.802 760.293 456.248 760.918 455.855C761.544 455.456 762.303 455.256 763.195 455.256C764.103 455.256 764.892 455.478 765.562 455.921C766.238 456.364 766.7 456.971 766.95 457.74L765.753 458.122C765.543 457.585 765.208 457.17 764.748 456.876C764.294 456.577 763.773 456.428 763.186 456.428C762.527 456.428 761.982 456.58 761.55 456.885C761.118 457.184 760.797 457.602 760.586 458.139C760.376 458.676 760.268 459.294 760.262 459.992C760.273 461.066 760.522 461.93 761.01 462.583C761.497 463.231 762.223 463.555 763.186 463.555C763.796 463.555 764.313 463.417 764.74 463.14C765.172 462.858 765.499 462.448 765.72 461.911L766.95 462.276C766.617 463.074 766.13 463.683 765.487 464.104C764.845 464.519 764.078 464.727 763.186 464.727ZM771.658 464.469L771.667 463.356L777.075 458.471C777.54 458.05 777.847 457.652 777.997 457.275C778.152 456.893 778.229 456.494 778.229 456.079C778.229 455.586 778.113 455.14 777.88 454.741C777.648 454.343 777.335 454.027 776.942 453.794C776.548 453.556 776.108 453.437 775.621 453.437C775.111 453.437 774.657 453.559 774.258 453.803C773.86 454.046 773.544 454.368 773.311 454.766C773.084 455.165 772.974 455.6 772.979 456.071H771.733C771.733 455.345 771.905 454.694 772.248 454.118C772.591 453.542 773.057 453.091 773.644 452.764C774.231 452.432 774.895 452.266 775.637 452.266C776.363 452.266 777.014 452.438 777.59 452.781C778.171 453.119 778.628 453.578 778.96 454.16C779.298 454.736 779.467 455.378 779.467 456.087C779.467 456.586 779.406 457.026 779.284 457.408C779.168 457.785 778.982 458.136 778.728 458.463C778.478 458.784 778.16 459.117 777.772 459.46L772.971 463.796L772.78 463.298H779.467V464.469H771.658ZM782.106 464.478L786.508 453.703H780.968V452.515H787.813V453.703L783.418 464.478H782.106Z" fill="#1A1A1A"/>
<path d="M933.887 464.478V452.515H937.517C937.644 452.515 937.86 452.518 938.165 452.523C938.475 452.529 938.771 452.551 939.054 452.59C939.962 452.717 940.721 453.055 941.33 453.603C941.939 454.152 942.396 454.849 942.701 455.697C943.005 456.544 943.157 457.477 943.157 458.496C943.157 459.515 943.005 460.449 942.701 461.296C942.396 462.143 941.939 462.841 941.33 463.389C940.721 463.938 939.962 464.275 939.054 464.403C938.777 464.436 938.48 464.458 938.165 464.469C937.849 464.475 937.633 464.478 937.517 464.478H933.887ZM935.149 463.306H937.517C937.744 463.306 937.988 463.301 938.248 463.29C938.514 463.273 938.741 463.245 938.929 463.207C939.627 463.085 940.189 462.802 940.615 462.359C941.047 461.916 941.363 461.362 941.562 460.698C941.762 460.028 941.862 459.294 941.862 458.496C941.862 457.693 941.762 456.957 941.562 456.287C941.363 455.616 941.047 455.063 940.615 454.625C940.183 454.188 939.621 453.908 938.929 453.786C938.741 453.747 938.511 453.722 938.24 453.711C937.974 453.695 937.733 453.686 937.517 453.686H935.149V463.306ZM948.846 464.727C947.971 464.727 947.212 464.533 946.57 464.145C945.933 463.758 945.437 463.212 945.083 462.509C944.728 461.805 944.551 460.98 944.551 460.033C944.551 459.053 944.725 458.206 945.074 457.491C945.423 456.777 945.913 456.226 946.545 455.838C947.182 455.45 947.932 455.256 948.796 455.256C949.682 455.256 950.438 455.461 951.064 455.871C951.69 456.275 952.163 456.857 952.484 457.616C952.806 458.374 952.952 459.28 952.925 460.332H951.679V459.9C951.656 458.737 951.405 457.859 950.923 457.267C950.446 456.674 949.749 456.378 948.829 456.378C947.866 456.378 947.126 456.691 946.611 457.317C946.102 457.942 945.847 458.834 945.847 459.992C945.847 461.121 946.102 461.999 946.611 462.625C947.126 463.245 947.855 463.555 948.796 463.555C949.438 463.555 949.998 463.409 950.474 463.115C950.956 462.816 951.335 462.387 951.612 461.828L952.75 462.268C952.396 463.049 951.872 463.655 951.18 464.087C950.493 464.514 949.715 464.727 948.846 464.727ZM945.415 460.332V459.31H952.268V460.332H945.415ZM958.49 464.727C957.587 464.727 956.823 464.525 956.197 464.12C955.571 463.716 955.095 463.159 954.768 462.451C954.447 461.736 954.281 460.916 954.27 459.992C954.281 459.05 954.453 458.225 954.785 457.516C955.117 456.802 955.596 456.248 956.222 455.855C956.848 455.456 957.607 455.256 958.498 455.256C959.407 455.256 960.196 455.478 960.866 455.921C961.542 456.364 962.004 456.971 962.253 457.74L961.057 458.122C960.846 457.585 960.511 457.17 960.052 456.876C959.598 456.577 959.077 456.428 958.49 456.428C957.831 456.428 957.285 456.58 956.853 456.885C956.421 457.184 956.1 457.602 955.89 458.139C955.679 458.676 955.571 459.294 955.566 459.992C955.577 461.066 955.826 461.93 956.313 462.583C956.801 463.231 957.526 463.555 958.49 463.555C959.099 463.555 959.617 463.417 960.043 463.14C960.475 462.858 960.802 462.448 961.024 461.911L962.253 462.276C961.921 463.074 961.434 463.683 960.791 464.104C960.149 464.519 959.382 464.727 958.49 464.727ZM966.962 464.469L966.97 463.356L972.378 458.471C972.843 458.05 973.151 457.652 973.3 457.275C973.455 456.893 973.533 456.494 973.533 456.079C973.533 455.586 973.417 455.14 973.184 454.741C972.951 454.343 972.638 454.027 972.245 453.794C971.852 453.556 971.412 453.437 970.924 453.437C970.415 453.437 969.961 453.559 969.562 453.803C969.163 454.046 968.848 454.368 968.615 454.766C968.388 455.165 968.277 455.6 968.283 456.071H967.037C967.037 455.345 967.208 454.694 967.552 454.118C967.895 453.542 968.36 453.091 968.947 452.764C969.534 452.432 970.199 452.266 970.941 452.266C971.667 452.266 972.317 452.438 972.893 452.781C973.475 453.119 973.932 453.578 974.264 454.16C974.602 454.736 974.771 455.378 974.771 456.087C974.771 456.586 974.71 457.026 974.588 457.408C974.472 457.785 974.286 458.136 974.031 458.463C973.782 458.784 973.464 459.117 973.076 459.46L968.274 463.796L968.083 463.298H974.771V464.469H966.962ZM980.417 464.727C979.669 464.727 979.007 464.577 978.431 464.278C977.861 463.979 977.412 463.561 977.085 463.024C976.764 462.481 976.603 461.847 976.603 461.121C976.603 460.379 976.783 459.72 977.143 459.144C977.503 458.563 978.052 458.122 978.788 457.823L978.772 458.305C978.157 458.078 977.689 457.707 977.368 457.192C977.047 456.677 976.886 456.107 976.886 455.481C976.886 454.816 977.038 454.246 977.343 453.769C977.647 453.288 978.063 452.917 978.589 452.656C979.121 452.396 979.73 452.266 980.417 452.266C981.103 452.266 981.712 452.396 982.244 452.656C982.776 452.917 983.194 453.288 983.499 453.769C983.803 454.246 983.955 454.816 983.955 455.481C983.955 456.107 983.8 456.674 983.49 457.184C983.186 457.693 982.718 458.067 982.086 458.305L982.045 457.823C982.781 458.117 983.332 458.554 983.698 459.136C984.069 459.717 984.254 460.379 984.254 461.121C984.254 461.847 984.091 462.481 983.764 463.024C983.438 463.561 982.986 463.979 982.41 464.278C981.834 464.577 981.17 464.727 980.417 464.727ZM980.417 463.555C981.17 463.555 981.782 463.348 982.252 462.932C982.723 462.511 982.959 461.908 982.959 461.121C982.959 460.324 982.726 459.72 982.261 459.31C981.796 458.895 981.181 458.687 980.417 458.687C979.652 458.687 979.04 458.895 978.581 459.31C978.121 459.72 977.891 460.324 977.891 461.121C977.891 461.908 978.124 462.511 978.589 462.932C979.054 463.348 979.663 463.555 980.417 463.555ZM980.417 457.508C981.081 457.508 981.621 457.339 982.036 457.001C982.452 456.658 982.659 456.151 982.659 455.481C982.659 454.811 982.452 454.309 982.036 453.977C981.621 453.639 981.081 453.47 980.417 453.47C979.752 453.47 979.212 453.639 978.797 453.977C978.387 454.309 978.182 454.811 978.182 455.481C978.182 456.151 978.387 456.658 978.797 457.001C979.212 457.339 979.752 457.508 980.417 457.508Z" fill="#1A1A1A"/>
<path d="M1130.19 464.478V452.515H1133.82C1133.95 452.515 1134.16 452.518 1134.47 452.523C1134.78 452.529 1135.07 452.551 1135.36 452.59C1136.27 452.717 1137.02 453.055 1137.63 453.603C1138.24 454.152 1138.7 454.849 1139 455.697C1139.31 456.544 1139.46 457.477 1139.46 458.496C1139.46 459.515 1139.31 460.449 1139 461.296C1138.7 462.143 1138.24 462.841 1137.63 463.389C1137.02 463.938 1136.27 464.275 1135.36 464.403C1135.08 464.436 1134.78 464.458 1134.47 464.469C1134.15 464.475 1133.94 464.478 1133.82 464.478H1130.19ZM1131.45 463.306H1133.82C1134.05 463.306 1134.29 463.301 1134.55 463.29C1134.82 463.273 1135.04 463.245 1135.23 463.207C1135.93 463.085 1136.49 462.802 1136.92 462.359C1137.35 461.916 1137.67 461.362 1137.87 460.698C1138.07 460.028 1138.17 459.294 1138.17 458.496C1138.17 457.693 1138.07 456.957 1137.87 456.287C1137.67 455.616 1137.35 455.063 1136.92 454.625C1136.49 454.188 1135.92 453.908 1135.23 453.786C1135.04 453.747 1134.81 453.722 1134.54 453.711C1134.28 453.695 1134.04 453.686 1133.82 453.686H1131.45V463.306ZM1145.15 464.727C1144.27 464.727 1143.52 464.533 1142.87 464.145C1142.24 463.758 1141.74 463.212 1141.39 462.509C1141.03 461.805 1140.85 460.98 1140.85 460.033C1140.85 459.053 1141.03 458.206 1141.38 457.491C1141.73 456.777 1142.22 456.226 1142.85 455.838C1143.49 455.45 1144.24 455.256 1145.1 455.256C1145.99 455.256 1146.74 455.461 1147.37 455.871C1147.99 456.275 1148.47 456.857 1148.79 457.616C1149.11 458.374 1149.26 459.28 1149.23 460.332H1147.98V459.9C1147.96 458.737 1147.71 457.859 1147.23 457.267C1146.75 456.674 1146.05 456.378 1145.13 456.378C1144.17 456.378 1143.43 456.691 1142.91 457.317C1142.41 457.942 1142.15 458.834 1142.15 459.992C1142.15 461.121 1142.41 461.999 1142.91 462.625C1143.43 463.245 1144.16 463.555 1145.1 463.555C1145.74 463.555 1146.3 463.409 1146.78 463.115C1147.26 462.816 1147.64 462.387 1147.92 461.828L1149.05 462.268C1148.7 463.049 1148.18 463.655 1147.48 464.087C1146.8 464.514 1146.02 464.727 1145.15 464.727ZM1141.72 460.332V459.31H1148.57V460.332H1141.72ZM1154.79 464.727C1153.89 464.727 1153.13 464.525 1152.5 464.12C1151.88 463.716 1151.4 463.159 1151.07 462.451C1150.75 461.736 1150.58 460.916 1150.57 459.992C1150.58 459.05 1150.76 458.225 1151.09 457.516C1151.42 456.802 1151.9 456.248 1152.53 455.855C1153.15 455.456 1153.91 455.256 1154.8 455.256C1155.71 455.256 1156.5 455.478 1157.17 455.921C1157.85 456.364 1158.31 456.971 1158.56 457.74L1157.36 458.122C1157.15 457.585 1156.82 457.17 1156.36 456.876C1155.9 456.577 1155.38 456.428 1154.79 456.428C1154.13 456.428 1153.59 456.58 1153.16 456.885C1152.73 457.184 1152.4 457.602 1152.19 458.139C1151.98 458.676 1151.88 459.294 1151.87 459.992C1151.88 461.066 1152.13 461.93 1152.62 462.583C1153.1 463.231 1153.83 463.555 1154.79 463.555C1155.4 463.555 1155.92 463.417 1156.35 463.14C1156.78 462.858 1157.11 462.448 1157.33 461.911L1158.56 462.276C1158.22 463.074 1157.74 463.683 1157.09 464.104C1156.45 464.519 1155.69 464.727 1154.79 464.727ZM1163.27 464.469L1163.27 463.356L1168.68 458.471C1169.15 458.05 1169.45 457.652 1169.6 457.275C1169.76 456.893 1169.84 456.494 1169.84 456.079C1169.84 455.586 1169.72 455.14 1169.49 454.741C1169.26 454.343 1168.94 454.027 1168.55 453.794C1168.16 453.556 1167.72 453.437 1167.23 453.437C1166.72 453.437 1166.26 453.559 1165.87 453.803C1165.47 454.046 1165.15 454.368 1164.92 454.766C1164.69 455.165 1164.58 455.6 1164.59 456.071H1163.34C1163.34 455.345 1163.51 454.694 1163.86 454.118C1164.2 453.542 1164.66 453.091 1165.25 452.764C1165.84 452.432 1166.5 452.266 1167.24 452.266C1167.97 452.266 1168.62 452.438 1169.2 452.781C1169.78 453.119 1170.24 453.578 1170.57 454.16C1170.91 454.736 1171.07 455.378 1171.07 456.087C1171.07 456.586 1171.01 457.026 1170.89 457.408C1170.78 457.785 1170.59 458.136 1170.33 458.463C1170.09 458.784 1169.77 459.117 1169.38 459.46L1164.58 463.796L1164.39 463.298H1171.07V464.469H1163.27ZM1177.01 452.274C1177.76 452.274 1178.45 452.457 1179.05 452.822C1179.67 453.182 1180.16 453.675 1180.52 454.301C1180.88 454.921 1181.06 455.619 1181.06 456.395V460.548C1181.06 461.346 1180.88 462.06 1180.52 462.691C1180.16 463.323 1179.66 463.821 1179.04 464.187C1178.42 464.547 1177.71 464.727 1176.92 464.727C1176.24 464.727 1175.61 464.577 1175.03 464.278C1174.45 463.974 1173.97 463.555 1173.6 463.024L1174.53 462.251C1174.78 462.644 1175.12 462.96 1175.54 463.198C1175.97 463.436 1176.43 463.555 1176.92 463.555C1177.48 463.555 1177.98 463.423 1178.41 463.157C1178.85 462.885 1179.2 462.531 1179.44 462.093C1179.7 461.65 1179.83 461.171 1179.83 460.656V458.048L1180.13 458.397C1179.78 458.945 1179.33 459.388 1178.76 459.726C1178.19 460.064 1177.57 460.233 1176.89 460.233C1176.16 460.233 1175.49 460.055 1174.89 459.701C1174.3 459.346 1173.83 458.87 1173.48 458.272C1173.14 457.674 1172.97 457.007 1172.97 456.27C1172.97 455.533 1173.15 454.863 1173.51 454.26C1173.88 453.65 1174.37 453.169 1174.98 452.814C1175.6 452.454 1176.27 452.274 1177.01 452.274ZM1177.01 453.454C1176.49 453.454 1176.02 453.581 1175.59 453.836C1175.16 454.085 1174.82 454.423 1174.57 454.849C1174.32 455.276 1174.19 455.749 1174.19 456.27C1174.19 456.791 1174.32 457.264 1174.57 457.69C1174.82 458.117 1175.16 458.458 1175.58 458.712C1176.01 458.962 1176.48 459.086 1177 459.086C1177.52 459.086 1178 458.962 1178.42 458.712C1178.86 458.458 1179.2 458.117 1179.44 457.69C1179.7 457.264 1179.83 456.791 1179.83 456.27C1179.83 455.755 1179.7 455.284 1179.44 454.858C1179.2 454.431 1178.86 454.091 1178.43 453.836C1178.01 453.581 1177.53 453.454 1177.01 453.454Z" fill="#1A1A1A"/>
<path d="M1327.49 464.478V452.515H1331.12C1331.25 452.515 1331.47 452.518 1331.77 452.523C1332.08 452.529 1332.38 452.551 1332.66 452.59C1333.57 452.717 1334.33 453.055 1334.94 453.603C1335.55 454.152 1336 454.849 1336.31 455.697C1336.61 456.544 1336.76 457.477 1336.76 458.496C1336.76 459.515 1336.61 460.449 1336.31 461.296C1336 462.143 1335.55 462.841 1334.94 463.389C1334.33 463.938 1333.57 464.275 1332.66 464.403C1332.38 464.436 1332.09 464.458 1331.77 464.469C1331.46 464.475 1331.24 464.478 1331.12 464.478H1327.49ZM1328.76 463.306H1331.12C1331.35 463.306 1331.59 463.301 1331.86 463.29C1332.12 463.273 1332.35 463.245 1332.54 463.207C1333.23 463.085 1333.8 462.802 1334.22 462.359C1334.65 461.916 1334.97 461.362 1335.17 460.698C1335.37 460.028 1335.47 459.294 1335.47 458.496C1335.47 457.693 1335.37 456.957 1335.17 456.287C1334.97 455.616 1334.65 455.063 1334.22 454.625C1333.79 454.188 1333.23 453.908 1332.54 453.786C1332.35 453.747 1332.12 453.722 1331.85 453.711C1331.58 453.695 1331.34 453.686 1331.12 453.686H1328.76V463.306ZM1342.45 464.727C1341.58 464.727 1340.82 464.533 1340.18 464.145C1339.54 463.758 1339.04 463.212 1338.69 462.509C1338.34 461.805 1338.16 460.98 1338.16 460.033C1338.16 459.053 1338.33 458.206 1338.68 457.491C1339.03 456.777 1339.52 456.226 1340.15 455.838C1340.79 455.45 1341.54 455.256 1342.4 455.256C1343.29 455.256 1344.05 455.461 1344.67 455.871C1345.3 456.275 1345.77 456.857 1346.09 457.616C1346.41 458.374 1346.56 459.28 1346.53 460.332H1345.29V459.9C1345.26 458.737 1345.01 457.859 1344.53 457.267C1344.05 456.674 1343.36 456.378 1342.44 456.378C1341.47 456.378 1340.73 456.691 1340.22 457.317C1339.71 457.942 1339.45 458.834 1339.45 459.992C1339.45 461.121 1339.71 461.999 1340.22 462.625C1340.73 463.245 1341.46 463.555 1342.4 463.555C1343.05 463.555 1343.61 463.409 1344.08 463.115C1344.56 462.816 1344.94 462.387 1345.22 461.828L1346.36 462.268C1346 463.049 1345.48 463.655 1344.79 464.087C1344.1 464.514 1343.32 464.727 1342.45 464.727ZM1339.02 460.332V459.31H1345.88V460.332H1339.02ZM1352.1 464.727C1351.19 464.727 1350.43 464.525 1349.8 464.12C1349.18 463.716 1348.7 463.159 1348.38 462.451C1348.05 461.736 1347.89 460.916 1347.88 459.992C1347.89 459.05 1348.06 458.225 1348.39 457.516C1348.72 456.802 1349.2 456.248 1349.83 455.855C1350.46 455.456 1351.21 455.256 1352.11 455.256C1353.01 455.256 1353.8 455.478 1354.47 455.921C1355.15 456.364 1355.61 456.971 1355.86 457.74L1354.66 458.122C1354.45 457.585 1354.12 457.17 1353.66 456.876C1353.2 456.577 1352.68 456.428 1352.1 456.428C1351.44 456.428 1350.89 456.58 1350.46 456.885C1350.03 457.184 1349.71 457.602 1349.5 458.139C1349.29 458.676 1349.18 459.294 1349.17 459.992C1349.18 461.066 1349.43 461.93 1349.92 462.583C1350.41 463.231 1351.13 463.555 1352.1 463.555C1352.71 463.555 1353.22 463.417 1353.65 463.14C1354.08 462.858 1354.41 462.448 1354.63 461.911L1355.86 462.276C1355.53 463.074 1355.04 463.683 1354.4 464.104C1353.76 464.519 1352.99 464.727 1352.1 464.727ZM1364.12 464.718C1363.52 464.718 1362.98 464.613 1362.48 464.403C1361.98 464.192 1361.55 463.893 1361.19 463.506C1360.83 463.112 1360.57 462.644 1360.4 462.102L1361.57 461.753C1361.77 462.345 1362.09 462.794 1362.55 463.099C1363.01 463.403 1363.52 463.55 1364.1 463.539C1364.63 463.528 1365.09 463.409 1365.47 463.182C1365.86 462.955 1366.15 462.639 1366.36 462.235C1366.56 461.83 1366.67 461.362 1366.67 460.831C1366.67 460.017 1366.43 459.363 1365.95 458.87C1365.48 458.372 1364.86 458.122 1364.08 458.122C1363.87 458.122 1363.64 458.153 1363.4 458.214C1363.16 458.269 1362.94 458.35 1362.74 458.455L1362.12 457.483L1366.77 453.188L1366.97 453.686H1360.88V452.515H1367.79V453.703L1363.73 457.574L1363.72 457.092C1364.55 456.987 1365.28 457.081 1365.91 457.375C1366.54 457.668 1367.03 458.117 1367.39 458.721C1367.75 459.319 1367.93 460.022 1367.93 460.831C1367.93 461.595 1367.76 462.271 1367.43 462.858C1367.1 463.439 1366.65 463.896 1366.08 464.228C1365.5 464.555 1364.85 464.718 1364.12 464.718ZM1373.99 464.727C1373.25 464.727 1372.59 464.555 1372 464.212C1371.41 463.868 1370.94 463.403 1370.6 462.816C1370.26 462.223 1370.08 461.559 1370.08 460.822V456.17C1370.08 455.434 1370.26 454.772 1370.6 454.185C1370.94 453.592 1371.41 453.124 1372 452.781C1372.59 452.438 1373.25 452.266 1373.99 452.266C1374.73 452.266 1375.39 452.438 1375.97 452.781C1376.57 453.124 1377.04 453.592 1377.38 454.185C1377.72 454.772 1377.89 455.434 1377.89 456.17V460.822C1377.89 461.559 1377.72 462.223 1377.38 462.816C1377.04 463.403 1376.57 463.868 1375.97 464.212C1375.39 464.555 1374.73 464.727 1373.99 464.727ZM1373.99 463.547C1374.48 463.547 1374.93 463.428 1375.34 463.19C1375.74 462.946 1376.06 462.622 1376.3 462.218C1376.54 461.814 1376.66 461.368 1376.66 460.88V456.112C1376.66 455.619 1376.54 455.171 1376.3 454.766C1376.06 454.362 1375.74 454.041 1375.34 453.803C1374.93 453.559 1374.48 453.437 1373.99 453.437C1373.5 453.437 1373.05 453.559 1372.64 453.803C1372.24 454.041 1371.92 454.362 1371.68 454.766C1371.44 455.171 1371.32 455.619 1371.32 456.112V460.88C1371.32 461.368 1371.44 461.814 1371.68 462.218C1371.92 462.622 1372.24 462.946 1372.64 463.19C1373.05 463.428 1373.5 463.547 1373.99 463.547Z" fill="#1A1A1A"/>
<path d="M1523.8 464.478V452.515H1527.43C1527.56 452.515 1527.77 452.518 1528.08 452.523C1528.39 452.529 1528.68 452.551 1528.96 452.59C1529.87 452.717 1530.63 453.055 1531.24 453.603C1531.85 454.152 1532.31 454.849 1532.61 455.697C1532.92 456.544 1533.07 457.477 1533.07 458.496C1533.07 459.515 1532.92 460.449 1532.61 461.296C1532.31 462.143 1531.85 462.841 1531.24 463.389C1530.63 463.938 1529.87 464.275 1528.96 464.403C1528.69 464.436 1528.39 464.458 1528.08 464.469C1527.76 464.475 1527.54 464.478 1527.43 464.478H1523.8ZM1525.06 463.306H1527.43C1527.65 463.306 1527.9 463.301 1528.16 463.29C1528.42 463.273 1528.65 463.245 1528.84 463.207C1529.54 463.085 1530.1 462.802 1530.53 462.359C1530.96 461.916 1531.27 461.362 1531.47 460.698C1531.67 460.028 1531.77 459.294 1531.77 458.496C1531.77 457.693 1531.67 456.957 1531.47 456.287C1531.27 455.616 1530.96 455.063 1530.53 454.625C1530.09 454.188 1529.53 453.908 1528.84 453.786C1528.65 453.747 1528.42 453.722 1528.15 453.711C1527.88 453.695 1527.64 453.686 1527.43 453.686H1525.06V463.306ZM1538.76 464.727C1537.88 464.727 1537.12 464.533 1536.48 464.145C1535.84 463.758 1535.35 463.212 1534.99 462.509C1534.64 461.805 1534.46 460.98 1534.46 460.033C1534.46 459.053 1534.64 458.206 1534.99 457.491C1535.33 456.777 1535.82 456.226 1536.46 455.838C1537.09 455.45 1537.84 455.256 1538.71 455.256C1539.59 455.256 1540.35 455.461 1540.97 455.871C1541.6 456.275 1542.07 456.857 1542.4 457.616C1542.72 458.374 1542.86 459.28 1542.84 460.332H1541.59V459.9C1541.57 458.737 1541.32 457.859 1540.83 457.267C1540.36 456.674 1539.66 456.378 1538.74 456.378C1537.78 456.378 1537.04 456.691 1536.52 457.317C1536.01 457.942 1535.76 458.834 1535.76 459.992C1535.76 461.121 1536.01 461.999 1536.52 462.625C1537.04 463.245 1537.77 463.555 1538.71 463.555C1539.35 463.555 1539.91 463.409 1540.38 463.115C1540.87 462.816 1541.25 462.387 1541.52 461.828L1542.66 462.268C1542.31 463.049 1541.78 463.655 1541.09 464.087C1540.4 464.514 1539.63 464.727 1538.76 464.727ZM1535.33 460.332V459.31H1542.18V460.332H1535.33ZM1548.4 464.727C1547.5 464.727 1546.73 464.525 1546.11 464.12C1545.48 463.716 1545.01 463.159 1544.68 462.451C1544.36 461.736 1544.19 460.916 1544.18 459.992C1544.19 459.05 1544.36 458.225 1544.7 457.516C1545.03 456.802 1545.51 456.248 1546.13 455.855C1546.76 455.456 1547.52 455.256 1548.41 455.256C1549.32 455.256 1550.11 455.478 1550.78 455.921C1551.45 456.364 1551.91 456.971 1552.16 457.74L1550.97 458.122C1550.76 457.585 1550.42 457.17 1549.96 456.876C1549.51 456.577 1548.99 456.428 1548.4 456.428C1547.74 456.428 1547.2 456.58 1546.76 456.885C1546.33 457.184 1546.01 457.602 1545.8 458.139C1545.59 458.676 1545.48 459.294 1545.48 459.992C1545.49 461.066 1545.74 461.93 1546.22 462.583C1546.71 463.231 1547.44 463.555 1548.4 463.555C1549.01 463.555 1549.53 463.417 1549.95 463.14C1550.39 462.858 1550.71 462.448 1550.93 461.911L1552.16 462.276C1551.83 463.074 1551.34 463.683 1550.7 464.104C1550.06 464.519 1549.29 464.727 1548.4 464.727ZM1560.42 464.718C1559.83 464.718 1559.28 464.613 1558.78 464.403C1558.28 464.192 1557.86 463.893 1557.5 463.506C1557.14 463.112 1556.87 462.644 1556.71 462.102L1557.87 461.753C1558.07 462.345 1558.4 462.794 1558.85 463.099C1559.31 463.403 1559.83 463.55 1560.4 463.539C1560.93 463.528 1561.39 463.409 1561.77 463.182C1562.16 462.955 1562.46 462.639 1562.66 462.235C1562.87 461.83 1562.97 461.362 1562.97 460.831C1562.97 460.017 1562.73 459.363 1562.26 458.87C1561.79 458.372 1561.16 458.122 1560.39 458.122C1560.17 458.122 1559.94 458.153 1559.71 458.214C1559.47 458.269 1559.25 458.35 1559.04 458.455L1558.43 457.483L1563.08 453.188L1563.28 453.686H1557.18V452.515H1564.09V453.703L1560.04 457.574L1560.02 457.092C1560.85 456.987 1561.58 457.081 1562.21 457.375C1562.85 457.668 1563.34 458.117 1563.69 458.721C1564.05 459.319 1564.23 460.022 1564.23 460.831C1564.23 461.595 1564.07 462.271 1563.73 462.858C1563.41 463.439 1562.96 463.896 1562.38 464.228C1561.8 464.555 1561.15 464.718 1560.42 464.718ZM1568.47 464.478V453.877L1566.22 455.232V453.861L1568.47 452.515H1569.71V464.478H1568.47Z" fill="#1A1A1A"/>
<line x1="1571.94" y1="423.364" x2="131.844" y2="423.364" stroke="#F1F5F9" stroke-width="1.38455" stroke-linecap="round"/>
<line x1="1571.94" y1="348.599" x2="131.844" y2="348.599" stroke="#F1F5F9" stroke-width="1.38455" stroke-linecap="round"/>
<line x1="1571.94" y1="272.449" x2="131.844" y2="272.449" stroke="#F1F5F9" stroke-width="1.38455" stroke-linecap="round"/>
<line x1="1571.94" y1="197.683" x2="131.844" y2="197.683" stroke="#F1F5F9" stroke-width="1.38455" stroke-linecap="round"/>
<line x1="1571.94" y1="121.533" x2="131.844" y2="121.533" stroke="#F1F5F9" stroke-width="1.38455" stroke-linecap="round"/>
<path d="M131.152 273.788C158.755 273.788 167.956 242.68 194.536 242.68C227.728 242.68 331.908 296.677 366.287 296.677C395.935 296.677 409.895 267.259 453.185 267.259C509.254 267.259 524.748 178.298 559.507 178.298C598.356 178.298 621.869 321.599 659.695 321.599C697.522 321.599 724.789 226.065 761.928 226.065C795.9 226.065 830.424 272.448 858.027 272.448C904.032 272.448 1015.47 151.992 1044.09 151.992C1084.61 151.992 1089.07 226.065 1153.48 226.065C1208.69 226.065 1236.13 272.448 1265.94 272.448C1299.67 272.448 1393.73 194.221 1428.34 194.221C1468.08 194.221 1510.2 239.911 1569.57 239.911V423.363L131.152 423.363V273.788Z" fill="url(#paint0_linear_53_5356)"/>
<path d="M1569.57 239.911C1510.2 239.911 1468.08 194.221 1428.34 194.221C1393.73 194.221 1299.67 272.448 1265.94 272.448C1236.13 272.448 1208.69 226.066 1153.48 226.066C1089.07 226.066 1084.61 151.993 1044.09 151.993C1015.47 151.993 904.032 272.448 858.027 272.448C830.424 272.448 795.9 226.066 761.928 226.066C724.789 226.066 697.522 321.6 659.695 321.6C621.869 321.6 598.356 178.299 559.507 178.299C524.748 178.299 509.254 267.26 453.185 267.26C409.895 267.26 395.935 296.678 366.287 296.678C331.908 296.678 227.728 242.68 194.536 242.68C167.956 242.68 158.755 273.789 131.152 273.789" stroke="#3B8F85" stroke-width="2.76909" stroke-linecap="round"/>
<line x1="765.688" y1="121.533" x2="765.688" y2="421.98" stroke="#CBD5E1" stroke-width="1.38455" stroke-linecap="round" stroke-dasharray="5.54 5.54"/>
<line x1="765.688" y1="228.143" x2="765.688" y2="421.98" stroke="#1A1A1A" stroke-width="1.38455" stroke-linecap="round"/>
<g filter="url(#filter0_d_53_5356)">
<ellipse cx="764.995" cy="227.452" rx="14.3126" ry="9.69183" fill="white"/>
</g>
<ellipse cx="764.995" cy="227.451" rx="6.13397" ry="4.15364" fill="#3B8F85"/>
<g filter="url(#filter1_bd_53_5356)">
<rect x="791.576" y="190.067" width="167.662" height="76.1501" rx="16.6146" fill="#0F172A" fill-opacity="0.7"/>
<rect x="790.883" y="189.375" width="169.046" height="77.5346" rx="17.3068" stroke="#0F172A" stroke-opacity="0.2" stroke-width="1.38455"/>
<path d="M809.297 216.873V206.804H810.816V215.565H815.379V216.873H809.297ZM820.175 217.025C819.467 217.025 818.849 216.863 818.321 216.539C817.793 216.214 817.384 215.76 817.092 215.177C816.8 214.593 816.654 213.912 816.654 213.131C816.654 212.348 816.8 211.663 817.092 211.076C817.384 210.49 817.793 210.034 818.321 209.709C818.849 209.385 819.467 209.223 820.175 209.223C820.883 209.223 821.501 209.385 822.028 209.709C822.556 210.034 822.966 210.49 823.258 211.076C823.549 211.663 823.695 212.348 823.695 213.131C823.695 213.912 823.549 214.593 823.258 215.177C822.966 215.76 822.556 216.214 822.028 216.539C821.501 216.863 820.883 217.025 820.175 217.025ZM820.18 215.791C820.639 215.791 821.019 215.67 821.32 215.428C821.622 215.185 821.845 214.862 821.989 214.459C822.137 214.056 822.21 213.612 822.21 213.127C822.21 212.645 822.137 212.202 821.989 211.799C821.845 211.393 821.622 211.066 821.32 210.821C821.019 210.575 820.639 210.452 820.18 210.452C819.718 210.452 819.334 210.575 819.029 210.821C818.728 211.066 818.503 211.393 818.356 211.799C818.211 212.202 818.139 212.645 818.139 213.127C818.139 213.612 818.211 214.056 818.356 214.459C818.503 214.862 818.728 215.185 819.029 215.428C819.334 215.67 819.718 215.791 820.18 215.791ZM825.336 216.873V209.321H826.757V210.521H826.836C826.973 210.114 827.216 209.795 827.563 209.562C827.914 209.326 828.311 209.208 828.753 209.208C828.845 209.208 828.953 209.211 829.078 209.218C829.206 209.224 829.306 209.232 829.378 209.242V210.648C829.319 210.632 829.214 210.614 829.063 210.594C828.912 210.571 828.761 210.56 828.611 210.56C828.263 210.56 827.953 210.634 827.681 210.781C827.413 210.925 827.2 211.127 827.042 211.386C826.885 211.642 826.806 211.933 826.806 212.261V216.873H825.336ZM833.634 217.025C832.89 217.025 832.249 216.866 831.712 216.549C831.178 216.227 830.765 215.777 830.473 215.196C830.184 214.613 830.04 213.93 830.04 213.146C830.04 212.373 830.184 211.691 830.473 211.101C830.765 210.511 831.171 210.05 831.692 209.719C832.217 209.388 832.83 209.223 833.531 209.223C833.957 209.223 834.37 209.293 834.77 209.434C835.17 209.575 835.529 209.796 835.847 210.098C836.165 210.399 836.416 210.791 836.599 211.273C836.783 211.751 836.874 212.333 836.874 213.018V213.54H830.871V212.438H835.434C835.434 212.051 835.355 211.709 835.198 211.411C835.04 211.109 834.819 210.871 834.534 210.698C834.252 210.524 833.921 210.437 833.541 210.437C833.128 210.437 832.767 210.539 832.459 210.742C832.154 210.942 831.918 211.204 831.751 211.529C831.587 211.85 831.505 212.199 831.505 212.576V213.436C831.505 213.941 831.594 214.37 831.771 214.724C831.951 215.078 832.202 215.349 832.523 215.536C832.844 215.719 833.22 215.811 833.649 215.811C833.928 215.811 834.182 215.772 834.411 215.693C834.641 215.611 834.839 215.49 835.006 215.329C835.173 215.169 835.301 214.97 835.39 214.734L836.781 214.985C836.67 215.395 836.47 215.754 836.181 216.062C835.896 216.367 835.537 216.604 835.104 216.775C834.675 216.942 834.185 217.025 833.634 217.025ZM838.506 216.873V209.321H839.917V210.55H840.01C840.167 210.134 840.425 209.809 840.782 209.577C841.139 209.341 841.567 209.223 842.065 209.223C842.57 209.223 842.993 209.341 843.334 209.577C843.678 209.813 843.932 210.137 844.096 210.55H844.175C844.355 210.147 844.642 209.826 845.035 209.586C845.428 209.344 845.897 209.223 846.441 209.223C847.126 209.223 847.685 209.437 848.118 209.867C848.554 210.296 848.772 210.943 848.772 211.809V216.873H847.302V211.946C847.302 211.435 847.162 211.065 846.884 210.835C846.605 210.606 846.272 210.491 845.886 210.491C845.407 210.491 845.035 210.639 844.769 210.934C844.504 211.225 844.371 211.601 844.371 212.06V216.873H842.906V211.853C842.906 211.443 842.778 211.114 842.523 210.865C842.267 210.616 841.934 210.491 841.524 210.491C841.246 210.491 840.988 210.565 840.752 210.712C840.52 210.857 840.331 211.058 840.187 211.317C840.046 211.576 839.976 211.876 839.976 212.217V216.873H838.506ZM856.043 206.804V216.873H854.524V206.804H856.043ZM858.138 219.705V209.321H859.574V210.545H859.697C859.782 210.388 859.905 210.206 860.065 209.999C860.226 209.793 860.449 209.613 860.734 209.459C861.019 209.301 861.396 209.223 861.865 209.223C862.475 209.223 863.019 209.377 863.497 209.685C863.976 209.993 864.351 210.437 864.623 211.017C864.898 211.597 865.036 212.296 865.036 213.112C865.036 213.928 864.9 214.628 864.628 215.211C864.356 215.791 863.982 216.239 863.507 216.553C863.032 216.865 862.489 217.021 861.88 217.021C861.421 217.021 861.045 216.944 860.754 216.789C860.465 216.635 860.239 216.455 860.075 216.249C859.911 216.042 859.785 215.859 859.697 215.698H859.608V219.705H858.138ZM859.579 213.097C859.579 213.628 859.656 214.093 859.81 214.493C859.964 214.893 860.187 215.206 860.478 215.432C860.77 215.655 861.127 215.767 861.55 215.767C861.989 215.767 862.357 215.65 862.652 215.418C862.947 215.182 863.169 214.862 863.32 214.459C863.474 214.056 863.551 213.602 863.551 213.097C863.551 212.599 863.476 212.151 863.325 211.755C863.178 211.358 862.955 211.045 862.656 210.816C862.361 210.586 861.993 210.471 861.55 210.471C861.124 210.471 860.764 210.581 860.469 210.801C860.177 211.021 859.956 211.327 859.805 211.72C859.654 212.114 859.579 212.573 859.579 213.097ZM872.342 211.165L871.01 211.401C870.954 211.23 870.866 211.068 870.744 210.914C870.626 210.76 870.466 210.634 870.263 210.535C870.059 210.437 869.805 210.388 869.501 210.388C869.084 210.388 868.737 210.481 868.458 210.668C868.18 210.852 868.04 211.089 868.04 211.381C868.04 211.633 868.134 211.837 868.321 211.991C868.507 212.145 868.809 212.271 869.225 212.369L870.425 212.645C871.12 212.805 871.638 213.053 871.979 213.387C872.319 213.721 872.49 214.156 872.49 214.69C872.49 215.142 872.359 215.546 872.097 215.9C871.838 216.25 871.475 216.526 871.01 216.726C870.548 216.925 870.012 217.025 869.402 217.025C868.557 217.025 867.867 216.845 867.332 216.485C866.798 216.121 866.47 215.605 866.349 214.936L867.77 214.72C867.858 215.09 868.04 215.37 868.316 215.56C868.591 215.747 868.95 215.841 869.392 215.841C869.874 215.841 870.259 215.741 870.548 215.541C870.836 215.337 870.98 215.09 870.98 214.798C870.98 214.562 870.892 214.364 870.715 214.203C870.541 214.043 870.274 213.921 869.914 213.839L868.635 213.559C867.93 213.399 867.409 213.143 867.072 212.792C866.737 212.441 866.57 211.997 866.57 211.46C866.57 211.014 866.695 210.624 866.944 210.29C867.193 209.955 867.537 209.695 867.976 209.508C868.416 209.318 868.919 209.223 869.486 209.223C870.302 209.223 870.944 209.4 871.413 209.754C871.882 210.104 872.192 210.575 872.342 211.165ZM878.89 213.741V209.321H880.365V216.873H878.92V215.565H878.841C878.667 215.968 878.389 216.304 878.005 216.573C877.625 216.839 877.151 216.971 876.584 216.971C876.099 216.971 875.67 216.865 875.296 216.652C874.926 216.435 874.634 216.116 874.421 215.693C874.211 215.27 874.106 214.747 874.106 214.125V209.321H875.576V213.948C875.576 214.462 875.719 214.872 876.004 215.177C876.289 215.482 876.66 215.634 877.115 215.634C877.391 215.634 877.664 215.565 877.936 215.428C878.212 215.29 878.44 215.082 878.62 214.803C878.803 214.524 878.893 214.17 878.89 213.741ZM882.341 216.873V209.321H883.752V210.55H883.845C884.002 210.134 884.26 209.809 884.617 209.577C884.974 209.341 885.402 209.223 885.9 209.223C886.405 209.223 886.828 209.341 887.169 209.577C887.513 209.813 887.767 210.137 887.931 210.55H888.009C888.19 210.147 888.477 209.826 888.87 209.586C889.263 209.344 889.732 209.223 890.276 209.223C890.961 209.223 891.52 209.437 891.953 209.867C892.389 210.296 892.607 210.943 892.607 211.809V216.873H891.137V211.946C891.137 211.435 890.997 211.065 890.719 210.835C890.44 210.606 890.107 210.491 889.721 210.491C889.242 210.491 888.87 210.639 888.604 210.934C888.339 211.225 888.206 211.601 888.206 212.06V216.873H886.741V211.853C886.741 211.443 886.613 211.114 886.357 210.865C886.102 210.616 885.769 210.491 885.359 210.491C885.081 210.491 884.823 210.565 884.587 210.712C884.355 210.857 884.166 211.058 884.022 211.317C883.881 211.576 883.811 211.876 883.811 212.217V216.873H882.341Z" fill="#E2E8F0"/>
<path d="M809.17 248.411V246.57L813.471 242.588C813.837 242.234 814.143 241.915 814.391 241.632C814.643 241.349 814.834 241.071 814.964 240.8C815.093 240.525 815.158 240.228 815.158 239.909C815.158 239.555 815.078 239.25 814.916 238.995C814.755 238.735 814.535 238.536 814.256 238.399C813.976 238.257 813.66 238.186 813.306 238.186C812.936 238.186 812.613 238.261 812.338 238.411C812.063 238.56 811.85 238.774 811.701 239.054C811.551 239.333 811.477 239.665 811.477 240.051H809.052C809.052 239.26 809.231 238.574 809.589 237.992C809.947 237.409 810.448 236.959 811.093 236.641C811.738 236.322 812.482 236.163 813.323 236.163C814.189 236.163 814.942 236.316 815.583 236.623C816.228 236.926 816.73 237.347 817.088 237.885C817.446 238.424 817.625 239.042 817.625 239.738C817.625 240.194 817.534 240.645 817.353 241.089C817.176 241.534 816.859 242.027 816.403 242.57C815.947 243.109 815.304 243.756 814.474 244.511L812.71 246.24V246.323H817.784V248.411H809.17ZM819.635 248.411V246.57L823.936 242.588C824.302 242.234 824.609 241.915 824.856 241.632C825.108 241.349 825.299 241.071 825.429 240.8C825.559 240.525 825.624 240.228 825.624 239.909C825.624 239.555 825.543 239.25 825.382 238.995C825.22 238.735 825 238.536 824.721 238.399C824.442 238.257 824.125 238.186 823.771 238.186C823.401 238.186 823.079 238.261 822.803 238.411C822.528 238.56 822.316 238.774 822.166 239.054C822.017 239.333 821.942 239.665 821.942 240.051H819.517C819.517 239.26 819.696 238.574 820.054 237.992C820.412 237.409 820.913 236.959 821.558 236.641C822.203 236.322 822.947 236.163 823.789 236.163C824.654 236.163 825.407 236.316 826.048 236.623C826.693 236.926 827.195 237.347 827.553 237.885C827.911 238.424 828.09 239.042 828.09 239.738C828.09 240.194 827.999 240.645 827.818 241.089C827.641 241.534 827.325 242.027 826.868 242.57C826.412 243.109 825.769 243.756 824.939 244.511L823.175 246.24V246.323H828.249V248.411H819.635ZM830.124 248.411V239.349H832.519V240.948H832.625C832.814 240.417 833.129 239.998 833.569 239.691C834.01 239.384 834.537 239.231 835.151 239.231C835.772 239.231 836.301 239.386 836.738 239.697C837.174 240.004 837.465 240.42 837.611 240.948H837.705C837.89 240.428 838.225 240.013 838.708 239.703C839.196 239.388 839.772 239.231 840.437 239.231C841.283 239.231 841.969 239.5 842.496 240.039C843.027 240.574 843.293 241.333 843.293 242.316V248.411H840.785V242.812C840.785 242.309 840.651 241.931 840.384 241.679C840.117 241.427 839.782 241.302 839.381 241.302C838.925 241.302 838.569 241.447 838.313 241.738C838.057 242.025 837.93 242.405 837.93 242.877V248.411H835.493V242.759C835.493 242.314 835.365 241.96 835.109 241.697C834.858 241.433 834.525 241.302 834.112 241.302C833.833 241.302 833.581 241.372 833.357 241.514C833.137 241.652 832.962 241.846 832.832 242.098C832.702 242.346 832.637 242.637 832.637 242.971V248.411H830.124ZM845.278 248.411V239.349H847.674V240.948H847.78C847.969 240.417 848.283 239.998 848.724 239.691C849.164 239.384 849.691 239.231 850.305 239.231C850.926 239.231 851.455 239.386 851.892 239.697C852.329 240.004 852.62 240.42 852.765 240.948H852.86C853.045 240.428 853.379 240.013 853.863 239.703C854.35 239.388 854.927 239.231 855.591 239.231C856.437 239.231 857.123 239.5 857.65 240.039C858.182 240.574 858.447 241.333 858.447 242.316V248.411H855.939V242.812C855.939 242.309 855.806 241.931 855.538 241.679C855.271 241.427 854.936 241.302 854.535 241.302C854.079 241.302 853.723 241.447 853.467 241.738C853.212 242.025 853.084 242.405 853.084 242.877V248.411H850.647V242.759C850.647 242.314 850.519 241.96 850.264 241.697C850.012 241.433 849.68 241.302 849.267 241.302C848.987 241.302 848.736 241.372 848.511 241.514C848.291 241.652 848.116 241.846 847.986 242.098C847.856 242.346 847.792 242.637 847.792 242.971V248.411H845.278Z" fill="white"/>
</g>
<defs>
<filter id="filter0_d_53_5356" x="739.606" y="208.068" width="50.7779" height="41.5365" filterUnits="userSpaceOnUse" color-interpolation-filters="sRGB">
<feFlood flood-opacity="0" result="BackgroundImageFix"/>
<feColorMatrix in="SourceAlpha" type="matrix" values="0 0 0 0 0 0 0 0 0 0 0 0 0 0 0 0 0 0 127 0" result="hardAlpha"/>
<feOffset dy="1.38455"/>
<feGaussianBlur stdDeviation="5.53819"/>
<feComposite in2="hardAlpha" operator="out"/>
<feColorMatrix type="matrix" values="0 0 0 0 0.145098 0 0 0 0 0.388235 0 0 0 0 0.921569 0 0 0 0.14 0"/>
<feBlend mode="normal" in2="BackgroundImageFix" result="effect1_dropShadow_53_5356"/>
<feBlend mode="normal" in="SourceGraphic" in2="effect1_dropShadow_53_5356" result="shape"/>
</filter>
<filter id="filter1_bd_53_5356" x="734.809" y="160.992" width="281.195" height="189.683" filterUnits="userSpaceOnUse" color-interpolation-filters="sRGB">
<feFlood flood-opacity="0" result="BackgroundImageFix"/>
<feGaussianBlur in="BackgroundImageFix" stdDeviation="5.53819"/>
<feComposite in2="SourceAlpha" operator="in" result="effect1_backgroundBlur_53_5356"/>
<feColorMatrix in="SourceAlpha" type="matrix" values="0 0 0 0 0 0 0 0 0 0 0 0 0 0 0 0 0 0 127 0" result="hardAlpha"/>
<feOffset dy="27.6909"/>
<feGaussianBlur stdDeviation="27.6909"/>
<feColorMatrix type="matrix" values="0 0 0 0 0.0588235 0 0 0 0 0.0901962 0 0 0 0 0.164706 0 0 0 0.15 0"/>
<feBlend mode="normal" in2="effect1_backgroundBlur_53_5356" result="effect2_dropShadow_53_5356"/>
<feBlend mode="normal" in="SourceGraphic" in2="effect2_dropShadow_53_5356" result="shape"/>
</filter>
<linearGradient id="paint0_linear_53_5356" x1="850.36" y1="423.363" x2="850.36" y2="-76.4582" gradientUnits="userSpaceOnUse">
<stop stop-color="#2563EB" stop-opacity="0"/>
<stop offset="1" stop-color="#2563EB" stop-opacity="0.12"/>
</linearGradient>
</defs>
</svg>
