<svg width="26" height="15" viewBox="0 0 26 15" fill="none" xmlns="http://www.w3.org/2000/svg">
<path d="M3.00059 9.20898C3.01606 9.20898 3.03153 9.20898 3.03153 9.20898C2.79952 8.67167 2.66032 8.08958 2.66032 7.47764C2.66032 5.05974 4.6865 3.10453 7.19215 3.10453C8.07377 3.10453 8.90898 3.35826 9.605 3.77616C10.5485 1.55229 12.8067 6.08795e-05 15.4515 6.08795e-05C18.9471 -0.0148644 21.762 2.71647 21.762 6.07466C21.762 6.32839 21.7466 6.58212 21.7156 6.82093C21.7311 6.82093 21.7466 6.82093 21.762 6.82093C24.0976 6.82093 26 8.65674 26 10.9105C26 13.1642 24.0976 15 21.762 15H3.00059C1.34563 15 0 13.7015 0 12.1045C0 10.4926 1.34563 9.20898 3.00059 9.20898Z" fill="#2561A1"/>
</svg>
