<svg width="53" height="53" viewBox="0 0 53 53" fill="none" xmlns="http://www.w3.org/2000/svg">
<path d="M40.9664 21.1767H40.068V16.8426C40.0673 16.8151 40.0646 16.7877 40.0601 16.7605C40.0613 16.5864 39.9991 16.4178 39.8852 16.2861L32.6745 8.04862L32.6692 8.04332C32.626 7.99668 32.577 7.95571 32.5235 7.92142L32.4758 7.89227C32.43 7.86681 32.3815 7.84637 32.3313 7.83132L32.2916 7.81807C32.2365 7.80435 32.18 7.79723 32.1233 7.79688H14.3988C13.5892 7.79688 12.932 8.4554 12.932 9.26365V21.1754H12.0336C10.8756 21.1754 9.9375 22.1135 9.9375 23.2715V34.1737C9.9375 35.3304 10.8769 36.2698 12.0336 36.2698H12.932V43.7322C12.932 44.5405 13.5892 45.199 14.3988 45.199H38.6012C39.4095 45.199 40.068 44.5405 40.068 43.7322V36.2698H40.9664C42.1231 36.2698 43.0625 35.3317 43.0625 34.1737V23.2715C43.0625 22.1148 42.1244 21.1767 40.9664 21.1767ZM14.3988 9.26365H31.3893V16.7684C31.3893 17.1739 31.7178 17.5012 32.1233 17.5012H38.6026V21.1754H14.3988V9.26365ZM25.3724 29.3612C23.5916 28.7253 22.4163 27.7395 22.4163 26.1826C22.4163 24.3554 23.9586 22.9734 26.4695 22.9734C27.6938 22.9734 28.567 23.2119 29.203 23.5127L28.6624 25.4512C27.9695 25.1137 27.2084 24.9401 26.4377 24.9437C25.3883 24.9437 24.8795 25.4353 24.8795 25.9759C24.8795 26.6596 25.4665 26.9604 26.8657 27.4851C28.7578 28.1847 29.631 29.1691 29.631 30.6796C29.631 32.4763 28.2649 34.0014 25.3247 34.0014C24.1004 34.0014 22.8934 33.6675 22.2892 33.3336L22.7821 31.3474C23.6141 31.7722 24.5324 32.0007 25.4665 32.0152C26.5795 32.0152 27.1678 31.5528 27.1678 30.8545C27.1678 30.1867 26.6603 29.8064 25.3724 29.3612ZM12.7505 28.6299C12.7505 24.9901 15.3568 22.9721 18.5977 22.9721C19.8538 22.9721 20.8065 23.2252 21.2358 23.4332L20.727 25.3558C20.0834 25.0855 19.3911 24.9502 18.6931 24.9583C16.7864 24.9583 15.2931 26.1176 15.2931 28.5013C15.2931 30.6306 16.5638 31.9821 18.709 31.9821C19.4563 31.9821 20.2513 31.8403 20.7429 31.6323L21.094 33.539C20.6647 33.7444 19.6471 34.0001 18.3605 34.0001C14.6572 34.0014 12.7505 31.6813 12.7505 28.6299ZM38.6012 43.3374H14.3988V36.2711H38.6012V43.3374ZM36.6429 33.8424H33.814L30.3823 23.1311H33.0362L34.3387 27.6613C34.7031 28.9479 35.037 30.1562 35.2914 31.4905H35.3391C35.61 30.2173 35.9331 28.9557 36.3077 27.709L37.6751 23.1324H40.2482L36.6429 33.8424Z" fill="#3B8F85"/>
</svg>
