<svg width="75" height="51" viewBox="0 0 75 51" fill="none" xmlns="http://www.w3.org/2000/svg">
<path d="M0.558594 0H50.5586C58.0137 0 61.7412 0 64.6815 1.21793C68.602 2.84183 71.7168 5.95662 73.3407 9.87706C74.5586 12.8174 74.5586 16.5449 74.5586 24V27C74.5586 34.4551 74.5586 38.1826 73.3407 41.1229C71.7168 45.0434 68.602 48.1582 64.6815 49.7821C61.7412 51 58.0137 51 50.5586 51H24.5586C17.1035 51 13.376 51 10.4357 49.7821C6.51521 48.1582 3.40042 45.0434 1.77652 41.1229C0.558594 38.1826 0.558594 34.4551 0.558594 27V0Z" fill="white"/>
<circle cx="19.5586" cy="26" r="3" fill="#3B8F85"/>
<circle cx="31.5586" cy="23" r="3" fill="#3B8F85"/>
<circle cx="43.5586" cy="28" r="3" fill="#3B8F85"/>
<circle cx="55.5586" cy="25" r="3" fill="#3B8F85"/>
</svg>
