<svg width="21" height="21" viewBox="0 0 21 21" fill="none" xmlns="http://www.w3.org/2000/svg">
<path d="M17.0844 16.428L16.083 13.4922H14.9842L15.5944 16.355H4.85077L5.46099 13.4922H4.36216L3.36003 16.428C3.10584 17.1751 3.55635 17.7864 4.36216 17.7864H16.083C16.8888 17.7864 17.3393 17.1751 17.0844 16.428ZM13.8853 7.0509C13.8853 5.07486 12.2459 3.47241 10.2226 3.47241C8.19926 3.47241 6.55981 5.07486 6.55981 7.0509C6.55981 10.4683 10.2226 14.2079 10.2226 14.2079C10.2226 14.2079 13.8853 10.4683 13.8853 7.0509ZM8.24468 7.09384C8.24468 6.02673 9.1296 5.16217 10.2226 5.16217C11.3155 5.16217 12.2005 6.02673 12.2005 7.09384C12.2005 8.16166 11.3148 9.02622 10.2226 9.02622C9.13034 9.02622 8.24468 8.16094 8.24468 7.09384Z" fill="#1A1A1A"/>
<mask id="mask0_588_1893" style="mask-type:alpha" maskUnits="userSpaceOnUse" x="3" y="3" width="15" height="15">
<path d="M17.0844 16.428L16.083 13.4922H14.9842L15.5944 16.355H4.85077L5.46099 13.4922H4.36216L3.36003 16.428C3.10584 17.1751 3.55635 17.7864 4.36216 17.7864H16.083C16.8888 17.7864 17.3393 17.1751 17.0844 16.428ZM13.8853 7.0509C13.8853 5.07486 12.2459 3.47241 10.2226 3.47241C8.19926 3.47241 6.55981 5.07486 6.55981 7.0509C6.55981 10.4683 10.2226 14.2079 10.2226 14.2079C10.2226 14.2079 13.8853 10.4683 13.8853 7.0509ZM8.24468 7.09384C8.24468 6.02673 9.1296 5.16217 10.2226 5.16217C11.3155 5.16217 12.2005 6.02673 12.2005 7.09384C12.2005 8.16166 11.3148 9.02622 10.2226 9.02622C9.13034 9.02622 8.24468 8.16094 8.24468 7.09384Z" fill="black"/>
</mask>
<g mask="url(#mask0_588_1893)">
<rect x="0.605469" y="0.78833" width="19.6817" height="19.6817" fill="#1A1A1A"/>
</g>
</svg>
