<svg width="21" height="20" viewBox="0 0 21 20" fill="none" xmlns="http://www.w3.org/2000/svg">
<path d="M16.1716 4.63013H4.72046C3.93319 4.63013 3.29622 5.29647 3.29622 6.11088L3.28906 13.8848C3.28906 14.6992 3.93319 15.3656 4.72046 15.3656H16.1716C16.9589 15.3656 17.603 14.6992 17.603 13.8848V6.11088C17.603 5.29647 16.9589 4.63013 16.1716 4.63013ZM15.4559 13.8848H5.43615C5.04252 13.8848 4.72046 13.5517 4.72046 13.1445V7.59163L9.68739 10.8049C10.1526 11.1084 10.7395 11.1084 11.2047 10.8049L16.1716 7.59163V13.1445C16.1716 13.5517 15.8495 13.8848 15.4559 13.8848ZM10.446 9.81276L4.72046 6.11088H16.1716L10.446 9.81276Z" fill="#1A1A1A"/>
<mask id="mask0_91_6250" style="mask-type:alpha" maskUnits="userSpaceOnUse" x="3" y="4" width="15" height="12">
<path d="M16.1716 4.63013H4.72046C3.93319 4.63013 3.29622 5.29647 3.29622 6.11088L3.28906 13.8848C3.28906 14.6992 3.93319 15.3656 4.72046 15.3656H16.1716C16.9589 15.3656 17.603 14.6992 17.603 13.8848V6.11088C17.603 5.29647 16.9589 4.63013 16.1716 4.63013ZM15.4559 13.8848H5.43615C5.04252 13.8848 4.72046 13.5517 4.72046 13.1445V7.59163L9.68739 10.8049C10.1526 11.1084 10.7395 11.1084 11.2047 10.8049L16.1716 7.59163V13.1445C16.1716 13.5517 15.8495 13.8848 15.4559 13.8848ZM10.446 9.81276L4.72046 6.11088H16.1716L10.446 9.81276Z" fill="white"/>
</mask>
<g mask="url(#mask0_91_6250)">
<rect x="0.605469" y="0.158936" width="19.6817" height="19.6817" fill="#1A1A1A"/>
</g>
</svg>
