<svg width="20" height="20" viewBox="0 0 20 20" fill="none" xmlns="http://www.w3.org/2000/svg">
<path d="M19.4994 8.00076V17.0008C19.4994 17.7964 19.1833 18.5595 18.6207 19.1221C18.0581 19.6847 17.295 20.0008 16.4994 20.0008H3.49939C2.70374 20.0008 1.94068 19.6847 1.37807 19.1221C0.81546 18.5595 0.49939 17.7964 0.49939 17.0008V8.00076C0.49939 6.89076 1.09939 5.92076 1.99939 5.40076L9.99939 0.780762L17.9994 5.40076C18.8994 5.92076 19.4994 6.89076 19.4994 8.00076ZM2.21939 6.47076L9.99939 11.5008L17.7794 6.47076L9.99939 1.93076L2.21939 6.47076ZM9.99939 12.7108L1.62939 7.28076C1.54939 7.50076 1.49939 7.75076 1.49939 8.00076V17.0008C1.49939 17.5312 1.7101 18.0399 2.08518 18.415C2.46025 18.79 2.96896 19.0008 3.49939 19.0008H16.4994C17.0298 19.0008 17.5385 18.79 17.9136 18.415C18.2887 18.0399 18.4994 17.5312 18.4994 17.0008V8.00076C18.4994 7.75076 18.4494 7.50076 18.3694 7.28076L9.99939 12.7108Z" fill="white"/>
</svg>
