<svg width="8" height="15" viewBox="0 0 8 15" fill="none" xmlns="http://www.w3.org/2000/svg">
<path d="M6.15499 2.14709H1.43139V0H0V13.312C0 13.863 0.450173 14.3139 1.00054 14.3139H6.15499C6.70536 14.3139 7.15697 13.8623 7.15697 13.312V3.14978C7.15697 2.59726 6.70536 2.14709 6.15499 2.14709ZM2.14709 10.7355C1.65254 10.7355 1.25247 10.4155 1.25247 10.0198C1.25247 9.62398 1.65254 9.30406 2.14709 9.30406C2.64164 9.30406 3.04171 9.62398 3.04171 10.0198C3.04171 10.4155 2.64164 10.7355 2.14709 10.7355ZM3.04171 12.1668C3.04171 12.5626 2.64164 12.8825 2.14709 12.8825C1.65254 12.8825 1.25247 12.5626 1.25247 12.1668C1.25247 11.7711 1.65254 11.4512 2.14709 11.4512C2.64164 11.4512 3.04171 11.7711 3.04171 12.1668ZM1.43139 7.87267V3.57848H5.72558V7.87267H1.43139ZM5.00988 10.7355C4.51533 10.7355 4.11526 10.4155 4.11526 10.0198C4.11526 9.62398 4.51533 9.30406 5.00988 9.30406C5.50443 9.30406 5.9045 9.62398 5.9045 10.0198C5.9045 10.4155 5.50443 10.7355 5.00988 10.7355ZM5.9045 12.1668C5.9045 12.5626 5.50443 12.8825 5.00988 12.8825C4.51533 12.8825 4.11526 12.5626 4.11526 12.1668C4.11526 11.7711 4.51533 11.4512 5.00988 11.4512C5.50443 11.4512 5.9045 11.7711 5.9045 12.1668Z" fill="#1A1A1A"/>
</svg>
