<svg width="44" height="43" viewBox="0 0 44 43" fill="none" xmlns="http://www.w3.org/2000/svg">
<path d="M32.7324 3.0459L40.1047 10.7309V39.9551H12.5646V40.0505H40.1988V10.8276L32.7324 3.0459Z" fill="#909090"/>
<path d="M32.6412 2.9502H12.4707V39.9548H40.1049V10.7319L32.6412 2.9502Z" fill="#F4F4F4"/>
<path d="M12.2678 4.9375H3.80103V13.9833H30.4335V4.9375H12.2678Z" fill="#7A7B7C"/>
<path d="M30.5754 13.8297H3.97339V4.77734H30.5754V13.8297Z" fill="#DD2025"/>
<path d="M12.794 6.30714H11.0623V12.6671H12.4244V10.522L12.7251 10.5392C13.0175 10.5352 13.3072 10.4828 13.5824 10.3842C13.8244 10.302 14.0468 10.1707 14.2356 9.99859C14.4293 9.83621 14.5815 9.62999 14.6795 9.39704C14.8137 9.01109 14.8612 8.60033 14.8186 8.19394C14.8111 7.90357 14.7602 7.61596 14.6676 7.34064C14.5841 7.14164 14.4601 6.96225 14.3033 6.81394C14.1466 6.66564 13.9606 6.55169 13.7573 6.47939C13.582 6.41448 13.4004 6.36829 13.2154 6.34159C13.0756 6.31884 12.9343 6.30732 12.7927 6.30714M12.5423 9.34669H12.4244V7.38569H12.6801C12.7929 7.37756 12.9062 7.39488 13.0115 7.43639C13.1167 7.4779 13.2113 7.54254 13.2883 7.62552C13.4477 7.83886 13.5328 8.09855 13.5307 8.36487C13.5307 8.69082 13.5307 8.98629 13.2366 9.19432C13.0247 9.31102 12.7835 9.36483 12.5423 9.34669ZM17.4064 6.28992C17.2593 6.28992 17.1162 6.30052 17.0155 6.30449L16.7001 6.31244H15.6666V12.6724H16.883C17.3478 12.6844 17.8104 12.6056 18.2451 12.4406C18.595 12.3024 18.9048 12.0787 19.1461 11.79C19.3825 11.5 19.5514 11.161 19.6403 10.7976C19.7448 10.3867 19.7956 9.96405 19.7914 9.54014C19.8173 9.0395 19.7785 8.5376 19.6761 8.04687C19.578 7.68606 19.3964 7.35336 19.1461 7.07564C18.9497 6.85107 18.7082 6.67047 18.4372 6.54564C18.2051 6.43805 17.9609 6.35886 17.7098 6.30979C17.6099 6.29343 17.5088 6.28589 17.4077 6.28727M17.1665 11.5038H17.034V7.44399H17.0513C17.3244 7.41241 17.6008 7.4617 17.8463 7.58577C18.026 7.7293 18.1725 7.91013 18.2756 8.11577C18.3868 8.33219 18.4509 8.56972 18.4637 8.81272C18.4756 9.10422 18.4637 9.34272 18.4637 9.54014C18.4686 9.76755 18.454 9.99496 18.42 10.2199C18.3783 10.4505 18.3028 10.6737 18.1961 10.8824C18.0754 11.0769 17.9106 11.2403 17.7151 11.3594C17.5517 11.4654 17.358 11.5147 17.1639 11.4998M23.8949 6.31244H20.6751V12.6724H22.0372V10.1496H23.7597V8.96774H22.0372V7.49434H23.8922V6.31244" fill="#464648"/>
<path d="M29.6597 27.1371C29.6597 27.1371 33.8838 26.3713 33.8838 27.8142C33.8838 29.2571 31.2669 28.6701 29.6597 27.1371ZM26.5367 27.2471C25.8655 27.395 25.2114 27.6121 24.585 27.895L25.115 26.7025C25.645 25.51 26.1948 23.8842 26.1948 23.8842C26.8257 24.9497 27.5616 25.9493 28.3917 26.8681C27.7668 26.9612 27.1476 27.0886 26.5367 27.2497V27.2471ZM24.8645 18.6346C24.8645 17.3772 25.2713 17.034 25.588 17.034C25.9047 17.034 26.2611 17.1864 26.273 18.2782C26.1697 19.376 25.9398 20.4582 25.588 21.5032C25.1044 20.6264 24.8548 19.6398 24.8632 18.6386L24.8645 18.6346ZM18.7046 32.5683C17.4088 31.7932 21.4222 29.4068 22.1496 29.33C22.1456 29.3313 20.0614 33.3792 18.7046 32.5683ZM35.1174 27.9851C35.1041 27.8526 34.9849 26.3858 32.3746 26.4481C31.2866 26.429 30.199 26.5058 29.1244 26.6773C28.0828 25.6289 27.1862 24.4458 26.4585 23.1595C26.9167 21.8335 27.1943 20.452 27.284 19.052C27.2456 17.462 26.8653 16.5504 25.6463 16.5636C24.4273 16.5769 24.2497 17.6435 24.4101 19.2308C24.567 20.2976 24.8632 21.3391 25.2912 22.3287C25.2912 22.3287 24.7281 24.0817 23.9834 25.8254C23.2388 27.5691 22.73 28.4833 22.73 28.4833C21.4349 28.9044 20.2158 29.5307 19.1193 30.3383C18.0275 31.3546 17.5837 32.135 18.1587 32.9154C18.6543 33.5885 20.3887 33.7409 21.9389 31.7097C22.7612 30.6595 23.5137 29.5565 24.1914 28.4078C24.1914 28.4078 26.5552 27.7599 27.2906 27.5823C28.026 27.4048 28.9151 27.2643 28.9151 27.2643C28.9151 27.2643 31.0735 29.436 33.1551 29.3591C35.2366 29.2823 35.1359 28.115 35.1227 27.9878" fill="#DD2025"/>
<path d="M32.5392 3.05176V10.8335H40.0029L32.5392 3.05176Z" fill="#909090"/>
<path d="M32.6411 2.9502V10.7319H40.1048L32.6411 2.9502Z" fill="#F4F4F4"/>
<path d="M12.6919 6.20461H10.9601V12.5646H12.3275V10.4208L12.6296 10.438C12.9219 10.434 13.2116 10.3816 13.4869 10.283C13.7288 10.2008 13.9512 10.0695 14.1401 9.89738C14.3323 9.73454 14.4831 9.52836 14.58 9.29583C14.7141 8.90988 14.7616 8.49911 14.7191 8.09273C14.7116 7.80236 14.6606 7.51475 14.5681 7.23943C14.4846 7.04043 14.3606 6.86103 14.2038 6.71273C14.0471 6.56443 13.8611 6.45048 13.6578 6.37818C13.4817 6.31263 13.2992 6.26599 13.1132 6.23906C12.9735 6.2163 12.8321 6.20478 12.6905 6.20461M12.4401 9.24416H12.3222V7.28316H12.5792C12.6921 7.27502 12.8053 7.29234 12.9106 7.33385C13.0159 7.37536 13.1105 7.44 13.1874 7.52298C13.3468 7.73633 13.432 7.99601 13.4299 8.26233C13.4299 8.58828 13.4299 8.88376 13.1357 9.09178C12.9239 9.20848 12.6826 9.26096 12.4414 9.24283M17.3042 6.18738C17.1571 6.18738 17.014 6.19798 16.9133 6.20196L16.6019 6.20991H15.5684V12.5699H16.7848C17.2496 12.5819 17.7122 12.5031 18.1469 12.338C18.4968 12.1998 18.8066 11.9762 19.0479 11.6875C19.2843 11.3975 19.4532 11.0585 19.5421 10.695C19.6466 10.2842 19.6974 9.86151 19.6932 9.43761C19.7191 8.93696 19.6804 8.43506 19.5779 7.94433C19.4798 7.58352 19.2982 7.25083 19.0479 6.97311C18.8515 6.74853 18.61 6.56793 18.339 6.44311C18.1069 6.33551 17.8627 6.25633 17.6116 6.20726C17.5117 6.19089 17.4106 6.18335 17.3095 6.18473M17.0683 11.4013H16.9358V7.34146H16.9531C17.2262 7.30987 17.5027 7.35916 17.7481 7.48323C17.9278 7.62676 18.0743 7.80759 18.1774 8.01323C18.2886 8.22965 18.3527 8.46718 18.3655 8.71018C18.3774 9.00168 18.3655 9.24018 18.3655 9.43761C18.3704 9.66501 18.3558 9.89242 18.3218 10.1173C18.2801 10.348 18.2046 10.5712 18.0979 10.7798C17.9772 10.9744 17.8124 11.1378 17.6169 11.2568C17.4535 11.3628 17.2598 11.4122 17.0657 11.3973M23.7927 6.20991H20.573V12.5699H21.9351V10.0471H23.6576V8.86521H21.9351V7.39181H23.7901V6.20991" fill="white"/>
</svg>
