<svg width="33" height="37" viewBox="0 0 33 37" fill="none" xmlns="http://www.w3.org/2000/svg">
<g clip-path="url(#clip0_43_941)">
<path d="M28.688 12.3712C28.6696 12.3712 28.6511 12.3712 28.6511 12.3712C28.9275 11.6881 29.0933 10.9481 29.0933 10.1701C29.0933 7.0963 26.6796 4.61066 23.6948 4.61066C22.6445 4.61066 21.6496 4.93322 20.8205 5.46451C19.6781 2.63733 17.0064 0.64502 13.8557 0.64502C9.69166 0.64502 6.33829 4.11733 6.33829 8.38656C6.33829 8.70912 6.35671 9.03169 6.39356 9.33528C6.37514 9.33528 6.35671 9.33528 6.33829 9.33528C3.53766 9.33528 1.28979 11.6691 1.28979 14.5342C1.28979 17.3994 3.53766 19.7332 6.33829 19.7332H28.688C30.6595 19.7332 32.2625 18.0825 32.2625 16.0522C32.2625 14.0219 30.6595 12.3712 28.688 12.3712Z" fill="#B9D7FF"/>
<path d="M7.99657 28.8032C7.38854 30.1125 5.87768 30.6437 4.60635 30.0366C3.33501 29.4104 2.81911 27.8545 3.40871 26.5453C4.01674 25.2361 7.9413 22.8643 7.9413 22.8643C7.9413 22.8643 8.6046 27.513 7.99657 28.8032Z" fill="#B9D7FF"/>
<path d="M30.1251 28.8032C29.5171 30.1125 28.0062 30.6437 26.7349 30.0366C25.4636 29.4104 24.9476 27.8545 25.5373 26.5453C26.1453 25.2361 30.0698 22.8643 30.0698 22.8643C30.0698 22.8643 30.7331 27.513 30.1251 28.8032Z" fill="#B9D7FF"/>
<path d="M13.5794 36.5069L21.0784 26.1659H17.2091L18.6832 21.9536H14.777L12.4739 29.1828H15.643L13.5794 36.5069Z" fill="#FFDC7B"/>
</g>
<defs>
<clipPath id="clip0_43_941">
<rect width="32.8889" height="37" fill="white"/>
</clipPath>
</defs>
</svg>
