<svg width="28" height="30" viewBox="0 0 28 30" fill="none" xmlns="http://www.w3.org/2000/svg">
<path d="M20.0005 30.0001C17.9255 30.0001 16.157 29.2686 14.695 27.8056C13.233 26.3426 12.5015 24.5741 12.5005 22.5001C12.4995 20.4261 13.231 18.6576 14.695 17.1946C16.159 15.7316 17.9275 15.0001 20.0005 15.0001C22.0735 15.0001 23.8425 15.7316 25.3075 17.1946C26.7725 18.6576 27.5035 20.4261 27.5005 22.5001C27.4975 24.5741 26.766 26.3431 25.306 27.8071C23.846 29.2711 22.0775 30.0021 20.0005 30.0001ZM0.500488 13.6501V6.5626C0.500488 5.9376 0.681988 5.3751 1.04499 4.8751C1.40799 4.3751 1.87649 4.0126 2.45049 3.7876L11.4505 0.412598C11.8005 0.287598 12.1505 0.225098 12.5005 0.225098C12.8505 0.225098 13.2005 0.287598 13.5505 0.412598L22.5505 3.7876C23.1255 4.0126 23.5945 4.3751 23.9575 4.8751C24.3205 5.3751 24.5015 5.9376 24.5005 6.5626V11.1376C24.5005 11.5626 24.313 11.9066 23.938 12.1696C23.563 12.4326 23.163 12.5011 22.738 12.3751C22.288 12.2501 21.838 12.1566 21.388 12.0946C20.938 12.0326 20.4755 12.0011 20.0005 12.0001C17.1005 12.0001 14.6255 13.0251 12.5755 15.0751C10.5255 17.1251 9.50049 19.6001 9.50049 22.5001C9.50049 23.3001 9.59449 24.0816 9.78249 24.8446C9.97049 25.6076 10.239 26.3761 10.588 27.1501C10.813 27.6251 10.7445 28.0501 10.3825 28.4251C10.0205 28.8001 9.60149 28.8751 9.12549 28.6501C8.07549 28.1001 7.11299 27.4251 6.23799 26.6251C5.36299 25.8251 4.58799 24.9501 3.91299 24.0001C2.83799 22.5251 2.00049 20.9061 1.40049 19.1431C0.800488 17.3801 0.500488 15.5491 0.500488 13.6501ZM20.0005 22.5001C20.6255 22.5001 21.157 22.2816 21.595 21.8446C22.033 21.4076 22.2515 20.8761 22.2505 20.2501C22.2495 19.6241 22.031 19.0931 21.595 18.6571C21.159 18.2211 20.6275 18.0021 20.0005 18.0001C19.3735 17.9981 18.8425 18.2171 18.4075 18.6571C17.9725 19.0971 17.7535 19.6281 17.7505 20.2501C17.7475 20.8721 17.9665 21.4036 18.4075 21.8446C18.8485 22.2856 19.3795 22.5041 20.0005 22.5001ZM20.0005 27.0001C20.7755 27.0001 21.488 26.8186 22.138 26.4556C22.788 26.0926 23.313 25.6116 23.713 25.0126C23.163 24.6876 22.5755 24.4376 21.9505 24.2626C21.3255 24.0876 20.6755 24.0001 20.0005 24.0001C19.3255 24.0001 18.6755 24.0876 18.0505 24.2626C17.4255 24.4376 16.838 24.6876 16.288 25.0126C16.688 25.6126 17.213 26.0941 17.863 26.4571C18.513 26.8201 19.2255 27.0011 20.0005 27.0001Z" fill="white"/>
</svg>
