<svg width="18" height="21" viewBox="0 0 18 21" fill="none" xmlns="http://www.w3.org/2000/svg">
<path d="M7.81071 8.77344C7.57671 8.92553 7.37581 9.12095 7.21949 9.34854C7.06316 9.57612 6.95447 9.83141 6.89963 10.0998C6.78887 10.6419 6.90414 11.2046 7.22009 11.6641C7.53604 12.1235 8.02679 12.4422 8.58437 12.5498C9.14196 12.6575 9.72071 12.5455 10.1933 12.2383C10.6659 11.9311 10.9936 11.454 11.1044 10.9119C11.2152 10.3698 11.0999 9.80712 10.7839 9.34766C10.468 8.88819 9.97723 8.56957 9.41964 8.46188C8.86206 8.35419 8.28331 8.46626 7.81071 8.77344ZM13.5281 6.10156C13.3192 5.89844 13.0661 5.73828 12.7888 5.63281C12.0616 5.35547 10.4746 5.36719 9.45 5.37891C9.28527 5.37891 9.13259 5.38281 9 5.38281C8.86741 5.38281 8.71071 5.38281 8.54196 5.37891C7.51741 5.36719 5.93839 5.35156 5.21116 5.63281C4.93393 5.73828 4.68482 5.89844 4.47188 6.10156C4.25893 6.30469 4.09821 6.55078 3.98973 6.82031C3.70446 7.52734 3.72054 9.07422 3.72857 10.0703C3.72857 10.2305 3.73259 10.3789 3.73259 10.5039C3.73259 10.6289 3.73259 10.7773 3.72857 10.9375C3.72054 11.9336 3.70446 13.4805 3.98973 14.1875C4.09821 14.457 4.26295 14.6992 4.47188 14.9062C4.6808 15.1133 4.93393 15.2695 5.21116 15.375C5.93839 15.6523 7.52545 15.6406 8.55 15.6289C8.71473 15.6289 8.86741 15.625 9 15.625C9.13259 15.625 9.28929 15.625 9.45804 15.6289C10.4826 15.6406 12.0616 15.6562 12.7888 15.375C13.0661 15.2695 13.3152 15.1094 13.5281 14.9062C13.7411 14.7031 13.9018 14.457 14.0103 14.1875C14.2996 13.4844 14.2835 11.9453 14.2714 10.9453C14.2714 10.7812 14.2674 10.6289 14.2674 10.5C14.2674 10.3711 14.2674 10.2227 14.2714 10.0547C14.2835 9.05859 14.2996 7.51953 14.0103 6.8125C13.9018 6.54297 13.7371 6.30078 13.5281 6.09375V6.10156ZM10.8321 7.83984C11.5589 8.31226 12.0628 9.04601 12.2331 9.87966C12.4034 10.7133 12.2261 11.5786 11.7402 12.2852C11.4996 12.635 11.1905 12.9354 10.8305 13.1691C10.4705 13.4028 10.0667 13.5652 9.64208 13.6472C8.7846 13.8128 7.8946 13.6404 7.16786 13.168C6.44112 12.6961 5.93696 11.9628 5.76629 11.1295C5.59563 10.2962 5.77243 9.43116 6.25781 8.72461C6.74319 8.01806 7.49739 7.5279 8.35449 7.36198C9.21159 7.19605 10.1014 7.36795 10.8281 7.83984H10.8321ZM12.0054 7.78906C11.8808 7.70703 11.7804 7.58984 11.7201 7.45312C11.6598 7.31641 11.6478 7.16797 11.6759 7.01953C11.704 6.87109 11.7804 6.74219 11.8848 6.63672C11.9893 6.53125 12.1299 6.46094 12.2786 6.43359C12.4272 6.40625 12.5839 6.41797 12.7246 6.47656C12.8652 6.53516 12.9857 6.62891 13.0701 6.75C13.1545 6.87109 13.1987 7.01562 13.1987 7.16406C13.1987 7.26172 13.1786 7.35938 13.1424 7.44922C13.1062 7.53906 13.046 7.62109 12.9777 7.69141C12.9094 7.76172 12.821 7.81641 12.7286 7.85547C12.6362 7.89453 12.5357 7.91406 12.4353 7.91406C12.2826 7.91406 12.1339 7.87109 12.0094 7.78906H12.0054ZM18 4.25391C18 2.875 16.8469 1.75391 15.4286 1.75391H2.57143C1.15313 1.75391 0 2.875 0 4.25391V16.7539C0 18.1328 1.15313 19.2539 2.57143 19.2539H15.4286C16.8469 19.2539 18 18.1328 18 16.7539V4.25391ZM14.3438 15.6992C13.5924 16.4297 12.6804 16.6602 11.6518 16.7109C10.5911 16.7695 7.40893 16.7695 6.34821 16.7109C5.31964 16.6602 4.40759 16.4297 3.65625 15.6992C2.90491 14.9688 2.66786 14.082 2.61964 13.082C2.55937 12.0508 2.55937 8.95703 2.61964 7.92578C2.67187 6.92578 2.90491 6.03906 3.65625 5.30859C4.40759 4.57812 5.32366 4.34766 6.34821 4.30078C7.40893 4.24219 10.5911 4.24219 11.6518 4.30078C12.6804 4.35156 13.5924 4.57812 14.3438 5.30859C15.0951 6.03906 15.3321 6.92578 15.3804 7.92578C15.4406 8.95312 15.4406 12.043 15.3804 13.0781C15.3281 14.0781 15.0951 14.9648 14.3438 15.6953V15.6992Z" fill="#0F0F0F"/>
</svg>
