<svg width="15" height="17" viewBox="0 0 15 17" fill="none" xmlns="http://www.w3.org/2000/svg">
<path d="M10.6501 16.0301C9.53938 16.0301 8.59271 15.6385 7.81011 14.8554C7.02752 14.0723 6.63595 13.1256 6.63542 12.0154C6.63488 10.9052 7.02645 9.95856 7.81011 9.17543C8.59378 8.3923 9.54045 8.00073 10.6501 8.00073C11.7598 8.00073 12.7067 8.3923 13.4909 9.17543C14.2751 9.95856 14.6664 10.9052 14.6648 12.0154C14.6632 13.1256 14.2716 14.0726 13.4901 14.8562C12.7086 15.6399 11.7619 16.0312 10.6501 16.0301ZM0.211914 7.27809V3.48421C0.211914 3.14965 0.309069 2.84855 0.50338 2.5809C0.697691 2.31326 0.948476 2.11921 1.25573 1.99877L6.07336 0.192164C6.26071 0.125253 6.44806 0.0917969 6.63542 0.0917969C6.82277 0.0917969 7.01012 0.125253 7.19747 0.192164L12.0151 1.99877C12.3229 2.11921 12.5739 2.31326 12.7683 2.5809C12.9626 2.84855 13.0595 3.14965 13.0589 3.48421V5.93317C13.0589 6.16067 12.9586 6.34481 12.7578 6.48559C12.5571 6.62637 12.343 6.66304 12.1155 6.59559C11.8746 6.52868 11.6337 6.47863 11.3928 6.44544C11.1519 6.41226 10.9044 6.39539 10.6501 6.39486C9.09776 6.39486 7.77291 6.94353 6.67556 8.04088C5.57822 9.13823 5.02954 10.4631 5.02954 12.0154C5.02954 12.4437 5.07986 12.862 5.18049 13.2704C5.28113 13.6788 5.42485 14.0902 5.61167 14.5045C5.73211 14.7588 5.69544 14.9863 5.50167 15.187C5.30789 15.3878 5.08361 15.4279 4.82881 15.3075C4.26675 15.0131 3.75153 14.6517 3.28315 14.2235C2.81477 13.7953 2.39992 13.3269 2.0386 12.8184C1.46316 12.0288 1.01485 11.1622 0.693677 10.2184C0.372502 9.27473 0.211914 8.29461 0.211914 7.27809ZM10.6501 12.0154C10.9847 12.0154 11.2692 11.8985 11.5036 11.6645C11.7381 11.4306 11.855 11.1461 11.8545 10.811C11.854 10.4759 11.737 10.1917 11.5036 9.9583C11.2702 9.72491 10.9857 9.60768 10.6501 9.60661C10.3145 9.60554 10.0302 9.72277 9.79739 9.9583C9.56453 10.1938 9.4473 10.4781 9.4457 10.811C9.44409 11.144 9.56132 11.4285 9.79739 11.6645C10.0334 11.9006 10.3177 12.0176 10.6501 12.0154ZM10.6501 14.4242C11.065 14.4242 11.4464 14.3271 11.7943 14.1328C12.1422 13.9385 12.4233 13.681 12.6374 13.3603C12.343 13.1864 12.0285 13.0526 11.6939 12.9589C11.3594 12.8652 11.0114 12.8184 10.6501 12.8184C10.2888 12.8184 9.94084 12.8652 9.60629 12.9589C9.27173 13.0526 8.95724 13.1864 8.66283 13.3603C8.87695 13.6815 9.15798 13.9393 9.50592 14.1336C9.85386 14.3279 10.2353 14.4248 10.6501 14.4242Z" fill="black"/>
</svg>
