<svg width="18" height="18" viewBox="0 0 18 18" fill="none" xmlns="http://www.w3.org/2000/svg">
<path d="M2.57143 0.25C1.15313 0.25 0 1.37109 0 2.75V15.25C0 16.6289 1.15313 17.75 2.57143 17.75H15.4286C16.8469 17.75 18 16.6289 18 15.25V2.75C18 1.37109 16.8469 0.25 15.4286 0.25H2.57143ZM14.5085 3.53125L10.3379 8.16406L15.2437 14.4688H11.4027L8.39732 10.6445L4.95402 14.4688H3.04554L7.50536 9.51172L2.80045 3.53125H6.73795L9.45804 7.02734L12.6 3.53125H14.5085ZM12.9897 13.3594L6.16339 4.58203H5.02634L11.929 13.3594H12.9857H12.9897Z" fill="#0F0F0F"/>
</svg>
