<svg width="50" height="50" viewBox="0 0 50 50" fill="none" xmlns="http://www.w3.org/2000/svg">
<rect width="50" height="50" rx="25" fill="#EDF7FF"/>
<path d="M23.1333 35.0225C23.6583 35.208 24.2222 34.8223 24.2222 34.2656V15.8379C24.2222 15.6328 24.1444 15.4277 23.9792 15.3008C23.0264 14.5391 20.8389 13.5625 18 13.5625C15.5451 13.5625 13.2507 14.2119 11.8799 14.7393C11.3306 14.9541 11 15.501 11 16.0918V34.1729C11 34.7539 11.6222 35.1592 12.1715 34.9785C13.7028 34.4658 16.1285 33.875 18 33.875C19.6479 33.875 21.8403 34.5586 23.1333 35.0225ZM26.8667 35.0225C28.1597 34.5586 30.3521 33.875 32 33.875C33.8715 33.875 36.2972 34.4658 37.8285 34.9785C38.3778 35.1641 39 34.7539 39 34.1729V16.0918C39 15.501 38.6694 14.9541 38.1201 14.7441C36.7493 14.2119 34.4549 13.5625 32 13.5625C29.1611 13.5625 26.9736 14.5391 26.0208 15.3008C25.8604 15.4277 25.7778 15.6328 25.7778 15.8379V34.2656C25.7778 34.8223 26.3465 35.208 26.8667 35.0225Z" fill="#009F95"/>
</svg>
